SplineFontDB: 3.2
FontName: Dreluhu
FullName: Dreluhu
FamilyName: Dreluhu
Weight: Book
Copyright: Copyright (c) 2019, Jack Humbert
UComments: "2019-8-23: Created with FontForge (http://fontforge.org)"
Version: 0.1
DefaultBaseFilename: fontforge-15
ItalicAngle: 0
UnderlinePosition: -200
UnderlineWidth: 25
Ascent: 867
Descent: 133
InvalidEm: 0
sfntRevision: 0x0000199a
LayerCount: 2
Layer: 0 1 "Back" 1
Layer: 1 1 "Fore" 0
XUID: [1021 647 -312734098 29385]
StyleMap: 0x0040
FSType: 0
OS2Version: 3
OS2_WeightWidthSlopeOnly: 0
OS2_UseTypoMetrics: 0
CreationTime: 1566577596
ModificationTime: 1567636541
PfmFamily: 17
TTFWeight: 400
TTFWidth: 5
LineGap: 90
VLineGap: 90
Panose: 2 1 6 0 3 1 1 1 1 1
OS2TypoAscent: 0
OS2TypoAOffset: 1
OS2TypoDescent: 0
OS2TypoDOffset: 1
OS2TypoLinegap: 90
OS2WinAscent: 0
OS2WinAOffset: 1
OS2WinDescent: 0
OS2WinDOffset: 1
HheadAscent: 0
HheadAOffset: 1
HheadDescent: 0
HheadDOffset: 1
OS2Vendor: 'OLKB'
OS2CodePages: 00020000.00000000
Lookup: 6 0 0 "semivowels" { "semivowels contextual 0"  "semivowels contextual 1"  } ['liga' ('latn' <'dflt' > 'DFLT' <'dflt' > ) ]
Lookup: 1 0 0 "Single Substitution lookup 1" { "Single Substitution lookup 1 subtable"  } []
Lookup: 1 0 0 "Single Substitution lookup 2" { "Single Substitution lookup 2 subtable"  } []
Lookup: 4 0 1 "diphthongs" { "diphthongs subtable"  } ['liga' ('latn' <'dflt' > 'DFLT' <'dflt' > ) ]

StartChar: ny
Encoding: 0 60256 0
Width: 733
VWidth: 2427
GlyphClass: 2
Flags: W
HStem: 267 66<199.991 532.991> 469 66<199.996 532.994> 667 66<199.999 532.999>
VStem: 133.99 66.0025<333 469 535 667> 532.993 65.9996<333 469 535 667>
AnchorPoint: "Above" 0 0 basechar 0
LayerCount: 2
Back
SplineSet
167 700 m 1,0,-1
 566 700 l 1,1,-1
 565.990234375 300 l 1,2,-1
 166.990234375 300 l 1,3,-1
 167 700 l 1,0,-1
167 500 m 1,4,-1
 566 500 l 1025
EndSplineSet
Fore
SplineSet
167 733 m 2,0,-1
 566 733 l 2,1,2
 580.056355279 733 580.056355279 733 589.528320031 722.332147646 c 128,-1,3
 599.000284782 711.664295292 599.000284782 711.664295292 598.99999999 699.999194336 c 0,4,5
 598.99999999 672.499328615 598.99999999 672.499328615 598.99798584 617.49959717 c 128,-1,6
 598.99597169 562.499865725 598.99597169 562.499865725 598.99597169 535.000000001 c 0,7,-1
 599 502 l 1,8,-1
 599 469 l 2,9,10
 598.994360361 440.833199054 598.994360361 440.833199054 598.992297363 384.499597166 c 128,-1,11
 598.990234365 328.165995278 598.990234365 328.165995278 598.990234365 299.999194336 c 0,12,13
 598.989900129 286.308870606 598.989900129 286.308870606 588.882579672 276.654435303 c 128,-1,14
 578.775259214 267 578.775259214 267 565.990234375 267 c 2,15,-1
 166.990234375 267 l 2,16,17
 152.933879096 267 152.933879096 267 143.461914344 277.667852354 c 128,-1,18
 133.989949593 288.335704708 133.989949593 288.335704708 133.990234385 300.000805664 c 2,19,-1
 134.00000001 700.000805664 l 2,20,21
 134.000334246 713.691129394 134.000334246 713.691129394 144.107654703 723.345564697 c 128,-1,22
 154.214975161 733 154.214975161 733 167 733 c 2,0,-1
532.99597167 535 m 1,23,24
 532.99597167 557 532.99597167 557 532.997582998 601 c 128,-1,25
 532.999194326 645 532.999194326 645 532.999194326 667 c 1,26,-1
 199.999194346 667 l 1,27,28
 199.999194346 645 199.999194346 645 199.997583018 601 c 128,-1,29
 199.99597169 557 199.99597169 557 199.99597169 535 c 1,30,-1
 532.99597167 535 l 1,23,24
532.994360342 469 m 1,31,-1
 199.994360361 469 l 1,32,33
 199.994360361 446.333333333 199.994360361 446.333333333 199.992700205 401 c 128,-1,34
 199.991040049 355.666666667 199.991040049 355.666666667 199.991040049 333.000000001 c 1,35,-1
 532.991040029 333 l 1,36,37
 532.991040029 355.666666665 532.991040029 355.666666665 532.992700186 400.999999998 c 128,-1,38
 532.994360342 446.333333331 532.994360342 446.333333331 532.994360342 469 c 1,31,-1
EndSplineSet
Substitution2: "Single Substitution lookup 82 subtable" ny.cvc.3
Substitution2: "Single Substitution lookup 71 subtable" ny.cvc.1
Substitution2: "Single Substitution lookup 64 subtable" ny.ccv.2
Substitution2: "Single Substitution lookup 60 subtable" ny.cvc.3
Substitution2: "Single Substitution lookup 56 subtable" ny.cvc.1
Substitution2: "Single Substitution lookup 54 subtable" ny.ccv.1
Substitution2: "Single Substitution lookup 31 subtable" ny.ccv.2
Substitution2: "Single Substitution lookup 18 subtable" ny.ccv.2
EndChar

StartChar: dy
Encoding: 1 60257 1
Width: 733
VWidth: 2427
Flags: W
HStem: 267 66<200 599> 469 66<200 599> 667 66<200 599>
VStem: 134 66<333 469 535 667>
AnchorPoint: "Above" 0 0 basechar 0
LayerCount: 2
Back
SplineSet
566 502 m 29,0,1
 170 502 l 1025
566 700 m 29,3,-1
 167 700 l 1,4,-1
 167 300 l 1,5,-1
 566 300 l 1025
EndSplineSet
Fore
SplineSet
599 700 m 1,0,-1
 599 667 l 1,1,-1
 566 667 l 1,2,-1
 200 667 l 1,3,-1
 200 535 l 1,4,-1
 566 535 l 1,5,-1
 599 535 l 1,6,-1
 599 502 l 1,7,-1
 599 469 l 1,8,-1
 566 469 l 1,9,-1
 200 469 l 1,10,-1
 200 333 l 1,11,-1
 566 333 l 1,12,-1
 599 333 l 1,13,-1
 599 300 l 1,14,-1
 599 267 l 1,15,-1
 566 267 l 1,16,-1
 167 267 l 2,17,18
 155 267 155 267 144.5 276.5 c 128,-1,19
 134 286 134 286 134 300 c 2,20,-1
 134 700 l 2,21,22
 134 712 134 712 143.5 722.5 c 128,-1,23
 153 733 153 733 167 733 c 2,24,-1
 566 733 l 1,25,-1
 599 733 l 1,26,-1
 599 700 l 1,0,-1
EndSplineSet
Substitution2: "Single Substitution lookup 82 subtable" dy.cvc.3
Substitution2: "Single Substitution lookup 71 subtable" dy.cvc.1
Substitution2: "Single Substitution lookup 64 subtable" dy.ccv.2
Substitution2: "Single Substitution lookup 60 subtable" dy.cvc.3
Substitution2: "Single Substitution lookup 56 subtable" dy.cvc.1
Substitution2: "Single Substitution lookup 54 subtable" dy.ccv.1
Substitution2: "Single Substitution lookup 36 subtable" dy.ccv.2
Substitution2: "Single Substitution lookup 23 subtable" dy.ccv.2
EndChar

StartChar: ty
Encoding: 2 60258 2
Width: 733
VWidth: 2427
Flags: W
HStem: 267 66<134 533> 467 66<134 533> 667 66<134 533>
VStem: 533 66<333 467 533 667>
CounterMasks: 1 e0
AnchorPoint: "Above" 0 0 basechar 0
LayerCount: 2
Back
SplineSet
167 500 m 29,0,1
 565 500 l 1025
167 700 m 29,3,-1
 566 700 l 1,4,-1
 566 300 l 1,5,-1
 167 300 l 1025
EndSplineSet
Fore
SplineSet
134 700 m 1,0,-1
 134 733 l 1,1,-1
 167 733 l 1,2,-1
 566 733 l 2,3,4
 580 733 580 733 589.5 722.5 c 128,-1,5
 599 712 599 712 599 700 c 2,6,-1
 599 300 l 2,7,8
 599 286 599 286 588.5 276.5 c 128,-1,9
 578 267 578 267 566 267 c 2,10,-1
 167 267 l 1,11,-1
 134 267 l 1,12,-1
 134 300 l 1,13,-1
 134 333 l 1,14,-1
 167 333 l 1,15,-1
 533 333 l 1,16,-1
 533 467 l 1,17,-1
 167 467 l 1,18,-1
 134 467 l 1,19,-1
 134 500 l 1,20,-1
 134 533 l 1,21,-1
 167 533 l 1,22,-1
 533 533 l 1,23,-1
 533 667 l 1,24,-1
 167 667 l 1,25,-1
 134 667 l 1,26,-1
 134 700 l 1,0,-1
EndSplineSet
Substitution2: "Single Substitution lookup 82 subtable" ty.cvc.3
Substitution2: "Single Substitution lookup 71 subtable" ty.cvc.1
Substitution2: "Single Substitution lookup 64 subtable" ty.ccv.2
Substitution2: "Single Substitution lookup 60 subtable" ty.cvc.3
Substitution2: "Single Substitution lookup 56 subtable" ty.cvc.1
Substitution2: "Single Substitution lookup 54 subtable" ty.ccv.1
Substitution2: "Single Substitution lookup 28 subtable" ty.ccv.2
Substitution2: "Single Substitution lookup 15 subtable" ty.ccv.2
EndChar

StartChar: zy
Encoding: 3 60259 3
Width: 733
VWidth: 2427
Flags: W
HStem: 267 66<200 471.191> 467 66<200 494.166>
VStem: 134 66<333 467 533 733>
AnchorPoint: "Above" 0 0 basechar 0
LayerCount: 2
Back
SplineSet
521 500 m 29,0,-1
 167 500 l 1025
167 700 m 29,2,-1
 167 300 l 1,3,-1
 500 300 l 1,4,5
 503 399 503 399 544 516 c 0
 585 633 585 633 634 698 c 1024
EndSplineSet
Fore
SplineSet
167 733 m 1,0,-1
 200 733 l 1,1,-1
 200 700 l 1,2,-1
 200 533 l 1,3,-1
 514.789129588 533 l 1,4,5
 555.350845353 648.164353061 555.350845353 648.164353061 607.604492188 717.805664062 c 2,6,-1
 627.409179688 744.201171875 l 1,7,-1
 653.805664062 724.395507812 l 1,8,-1
 680.201171875 704.590820312 l 1,9,-1
 660.395507812 678.194335938 l 2,10,11
 615.642217958 618.549192039 615.642217958 618.549192039 575.803909368 504.877122151 c 128,-1,12
 535.965600778 391.205052263 535.965600778 391.205052263 532.982421875 298.93359375 c 0,13,14
 532.565414481 286.027103805 532.565414481 286.027103805 522.908093426 276.513551903 c 128,-1,15
 513.25077237 267 513.25077237 267 500 267 c 2,16,-1
 167 267 l 2,17,18
 155 267 155 267 144.5 276.5 c 128,-1,19
 134 286 134 286 134 300 c 2,20,-1
 134 467 l 1,21,-1
 134 500 l 1,22,-1
 134 533 l 1,23,-1
 134 700 l 1,24,-1
 134 733 l 1,25,-1
 167 733 l 1,0,-1
200 467 m 1,26,-1
 200 333 l 1,27,-1
 469.030273438 333 l 1,28,29
 474.896541876 396.445242266 474.896541876 396.445242266 494.166230048 467 c 1,30,-1
 200 467 l 1,26,-1
EndSplineSet
Substitution2: "Single Substitution lookup 82 subtable" zy.cvc.3
Substitution2: "Single Substitution lookup 71 subtable" zy.cvc.1
Substitution2: "Single Substitution lookup 64 subtable" zy.ccv.2
Substitution2: "Single Substitution lookup 60 subtable" zy.cvc.3
Substitution2: "Single Substitution lookup 56 subtable" zy.cvc.1
Substitution2: "Single Substitution lookup 54 subtable" zy.ccv.1
Substitution2: "Single Substitution lookup 46 subtable" zy.ccv.2
EndChar

StartChar: sy
Encoding: 4 60260 4
Width: 733
VWidth: 2427
Flags: W
HStem: 467 66<238.834 533> 667 66<261.809 533>
VStem: 533 66<267 467 533 667>
AnchorPoint: "Above" 0 0 basechar 0
LayerCount: 2
Back
SplineSet
212 500 m 5,0,-1
 566 500 l 1025
566 300 m 5,2,-1
 566 700 l 1,3,-1
 233 700 l 1,4,5
 230 601 230 601 189 484 c 0
 148 367 148 367 99 302 c 1024
EndSplineSet
Fore
SplineSet
566 267 m 1,0,-1
 533 267 l 1,1,-1
 533 300 l 1,2,-1
 533 467 l 1,3,-1
 218.210846482 467 l 1,4,5
 177.649249072 351.835314829 177.649249072 351.835314829 125.395857912 282.194478419 c 2,6,-1
 105.59033633 255.798620507 l 1,7,-1
 79.1944784185 275.604142088 l 1,8,-1
 52.798620507 295.40966367 l 1,9,-1
 72.6041420885 321.805521581 l 2,10,11
 117.357516257 381.45069178 117.357516257 381.45069178 157.195855409 495.122928555 c 128,-1,12
 197.034194562 608.79516533 197.034194562 608.79516533 200.017231746 701.066301213 c 0,13,14
 200.434498696 713.973178682 200.434498696 713.973178682 210.091732494 723.486589341 c 128,-1,15
 219.748966292 733 219.748966292 733 233 733 c 2,16,-1
 566 733 l 2,17,18
 578 733 578 733 588.5 723.5 c 128,-1,19
 599 714 599 714 599 700 c 2,20,-1
 599 533 l 1,21,-1
 599 500 l 1,22,-1
 599 467 l 1,23,-1
 599 300 l 1,24,-1
 599 267 l 1,25,-1
 566 267 l 1,0,-1
533 533 m 1,26,-1
 533 667 l 1,27,-1
 263.969546417 667 l 1,28,29
 258.103212251 603.554726777 258.103212251 603.554726777 238.833630547 533 c 1,30,-1
 533 533 l 1,26,-1
EndSplineSet
Substitution2: "Single Substitution lookup 82 subtable" sy.cvc.3
Substitution2: "Single Substitution lookup 71 subtable" sy.cvc.1
Substitution2: "Single Substitution lookup 64 subtable" sy.ccv.2
Substitution2: "Single Substitution lookup 60 subtable" sy.cvc.3
Substitution2: "Single Substitution lookup 56 subtable" sy.cvc.1
Substitution2: "Single Substitution lookup 54 subtable" sy.ccv.1
Substitution2: "Single Substitution lookup 41 subtable" sy.ccv.2
EndChar

StartChar: gy
Encoding: 5 60261 5
Width: 733
VWidth: 2427
Flags: W
VStem: 233.613 279.056
AnchorPoint: "Above" 0 0 basechar 0
LayerCount: 2
Back
SplineSet
466 700 m 1,0,-1
 266 500 l 1,1,-1
 466 300 l 1025
EndSplineSet
Fore
SplineSet
489.334960938 723.334960938 m 5,0,-1
 512.668945312 700 l 1,1,-1
 489.334960938 676.665039062 l 1,2,-1
 312.668945312 500 l 1,3,-1
 489.334960938 323.334960938 l 1,4,-1
 512.668945312 300 l 1,5,-1
 489.334960938 276.665039062 l 1,6,-1
 466 253.331054688 l 1,7,-1
 442.665039062 276.665039062 l 1,8,-1
 242.665039062 476.665039062 l 2,9,10
 234.417434777 484.9134476 234.417434777 484.9134476 233.613037109 498.458984375 c 128,-1,11
 232.808639441 512.00452115 232.808639441 512.00452115 242.665039062 523.334960938 c 2,12,-1
 442.665039062 723.334960938 l 1,13,-1
 466 746.668945312 l 1,14,-1
 489.334960938 723.334960938 l 5,0,-1
EndSplineSet
Substitution2: "Single Substitution lookup 82 subtable" gy.cvc.3
Substitution2: "Single Substitution lookup 71 subtable" gy.cvc.1
Substitution2: "Single Substitution lookup 64 subtable" gy.ccv.2
Substitution2: "Single Substitution lookup 60 subtable" gy.cvc.3
Substitution2: "Single Substitution lookup 56 subtable" gy.cvc.1
Substitution2: "Single Substitution lookup 54 subtable" gy.ccv.1
Substitution2: "Single Substitution lookup 37 subtable" gy.ccv.2
Substitution2: "Single Substitution lookup 24 subtable" gy.ccv.2
EndChar

StartChar: jy
Encoding: 6 60262 6
Width: 733
VWidth: 2427
Flags: W
HStem: 467 66<134 316.29 417.036 599> 667 66<134 246.963 489.22 599>
VStem: 334 66<267 465.785>
AnchorPoint: "Above" 0 0 basechar 0
LayerCount: 2
Back
SplineSet
167 433 m 5,0,-1
 566 433 l 1025
367 370 m 5,2,-1
 367 300 l 1025
167 700 m 4,4,5
 368 700 368 700 367 370 c 1,6,7
 366 533 366 533 416.5 616.5 c 0
 467 700 467 700 566 700 c 1024
EndSplineSet
Fore
SplineSet
134 700 m 1,0,-1
 134 733 l 1,1,-1
 167 733 l 2,2,3
 236.721445464 733 236.721445464 733 288.040772593 695.862135904 c 128,-1,4
 339.360099723 658.724271808 339.360099723 658.724271808 366.635758676 589.980815451 c 1,5,6
 393.910099006 658.713025568 393.910099006 658.713025568 445.275956607 695.856512784 c 128,-1,7
 496.641814209 733 496.641814209 733 566 733 c 2,8,-1
 599 733 l 1,9,-1
 599 700 l 1,10,-1
 599 667 l 1,11,-1
 566 667 l 2,12,13
 452.466701301 667 452.466701301 667 417.03577052 533 c 1,14,-1
 566 533 l 1,15,-1
 599 533 l 1,16,-1
 599 500 l 1,17,-1
 599 467 l 1,18,-1
 566 467 l 1,19,-1
 404.777300369 467 l 1,20,21
 400.406714788 430.420608801 400.406714788 430.420608801 400 387.864678732 c 2,22,-1
 400 376.345737323 l 1,23,-1
 400 369.944504512 l 1,24,-1
 400 300 l 1,25,-1
 400 267 l 1,26,-1
 367 267 l 1,27,-1
 334 267 l 1,28,-1
 334 300 l 1,29,-1
 334 369.850728726 l 2,30,31
 333.946738841 375.799438644 333.946738841 375.799438644 333.96384147 382.514930382 c 0,32,33
 333.538658054 428.163783824 333.538658054 428.163783824 328.749522462 467 c 1,34,-1
 167 467 l 1,35,-1
 134 467 l 1,36,-1
 134 500 l 1,37,-1
 134 533 l 1,38,-1
 167 533 l 1,39,-1
 316.29019951 533 l 1,40,41
 297.618209899 603.046912959 297.618209899 603.046912959 260.578611783 635.02345648 c 128,-1,42
 223.539013668 667 223.539013668 667 167 667 c 2,43,-1
 134 667 l 1,44,-1
 134 700 l 1,0,-1
EndSplineSet
Substitution2: "Single Substitution lookup 82 subtable" jy.cvc.3
Substitution2: "Single Substitution lookup 71 subtable" jy.cvc.1
Substitution2: "Single Substitution lookup 64 subtable" jy.ccv.2
Substitution2: "Single Substitution lookup 60 subtable" jy.cvc.3
Substitution2: "Single Substitution lookup 56 subtable" jy.cvc.1
Substitution2: "Single Substitution lookup 54 subtable" jy.ccv.1
Substitution2: "Single Substitution lookup 44 subtable" jy.ccv.2
EndChar

StartChar: xy
Encoding: 7 60263 7
Width: 733
VWidth: 2427
Flags: W
VStem: 334 66<437.521 733>
AnchorPoint: "Above" 0 0 basechar 0
LayerCount: 2
Back
SplineSet
367 556 m 5,0,-1
 367 700 l 1025
566 300 m 4,2,3
 484.413119198 330.217328195 484.413119198 330.217328195 453.047079394 353.18763934 c 0
 367 416.202549705 367 416.202549705 367 556 c 1,4,5
 367 501 367 501 355 459 c 0
 343 417 343 417 326 391.5 c 0
 309 366 309 366 280 347 c 0
 251 328 251 328 227.5 319 c 0
 204 310 204 310 167 300 c 1024
EndSplineSet
Fore
SplineSet
400 556 m 2,0,1
 400 522.446875451 400 522.446875451 405.217355261 494.650645153 c 128,-1,2
 410.434710522 466.854414854 410.434710522 466.854414854 417.553829349 447.428940981 c 128,-1,3
 424.672948176 428.003467107 424.672948176 428.003467107 438.869537342 411.232036613 c 128,-1,4
 453.066126508 394.460606118 453.066126508 394.460606118 463.955453677 384.69771929 c 128,-1,5
 474.844780846 374.934832463 474.844780846 374.934832463 495.142969474 364.607095601 c 128,-1,6
 515.441158102 354.27935874 515.441158102 354.27935874 527.22305917 349.597952787 c 128,-1,7
 539.004960238 344.916546834 539.004960238 344.916546834 562.055837843 336.567439976 c 0,8,9
 572.343770408 332.841115547 572.343770408 332.841115547 577.461362047 330.945713436 c 2,10,-1
 608.407075482 319.484351389 l 1,11,-1
 585.484351389 257.592924518 l 1,12,-1
 554.538637953 269.054286564 l 2,13,14
 554.138783458 269.20238065 554.138783458 269.20238065 537.609294543 275.254050791 c 128,-1,15
 521.079805629 281.305720932 521.079805629 281.305720932 518.09541008 282.516841141 c 128,-1,16
 515.111014531 283.72796135 515.111014531 283.72796135 499.38632021 290.146185251 c 128,-1,17
 483.661625888 296.564409153 483.661625888 296.564409153 478.432906927 299.634616411 c 128,-1,18
 473.204187966 302.704823669 473.204187966 302.704823669 459.053736122 310.139728546 c 128,-1,19
 444.903284278 317.574633424 444.903284278 317.574633424 438.199689789 323.154054947 c 128,-1,20
 431.496095301 328.733476469 431.496095301 328.733476469 419.689333819 337.835189538 c 128,-1,21
 407.882572337 346.936902608 407.882572337 346.936902608 400.473550205 355.67566561 c 128,-1,22
 393.064528073 364.414428612 393.064528073 364.414428612 384.370904838 375.833077089 c 128,-1,23
 375.677281603 387.251725565 375.677281603 387.251725565 368.761509957 399.654023553 c 1,24,25
 353.028769708 368.688595717 353.028769708 368.688595717 330.818335976 345.65189241 c 128,-1,26
 308.607902244 322.615189102 308.607902244 322.615189102 279.968891442 307.777078857 c 128,-1,27
 251.32988064 292.938968612 251.32988064 292.938968612 229.747357955 285.046350138 c 128,-1,28
 208.16483527 277.153731663 208.16483527 277.153731663 175.803535246 268.195947315 c 2,29,-1
 143.999482561 259.392412069 l 1,30,-1
 126.392412069 323.000517439 l 1,31,-1
 158.196464754 331.804052685 l 2,32,33
 184.320546981 339.035341129 184.320546981 339.035341129 198.845234474 343.660808499 c 128,-1,34
 213.369921966 348.28627587 213.369921966 348.28627587 234.925834896 357.64104141 c 128,-1,35
 256.481747826 366.995806951 256.481747826 366.995806951 268.456923418 376.924253785 c 128,-1,36
 280.432099011 386.852700619 280.432099011 386.852700619 294.833402957 403.525111065 c 128,-1,37
 309.234706903 420.197521511 309.234706903 420.197521511 316.515514543 440.700771412 c 128,-1,38
 323.796322182 461.204021313 323.796322182 461.204021313 328.898161091 490.465900268 c 128,-1,39
 334 519.727779223 334 519.727779223 334 556 c 2,40,-1
 334 700 l 1,41,-1
 334 733 l 1,42,-1
 367 733 l 1,43,-1
 400 733 l 1,44,-1
 400 700 l 1,45,-1
 400 556 l 2,0,1
EndSplineSet
Substitution2: "Single Substitution lookup 82 subtable" xy.cvc.3
Substitution2: "Single Substitution lookup 71 subtable" xy.cvc.1
Substitution2: "Single Substitution lookup 64 subtable" xy.ccv.2
Substitution2: "Single Substitution lookup 60 subtable" xy.cvc.3
Substitution2: "Single Substitution lookup 56 subtable" xy.cvc.1
Substitution2: "Single Substitution lookup 54 subtable" xy.ccv.1
EndChar

StartChar: iy
Encoding: 8 60264 8
Width: 733
VWidth: 2427
Flags: W
HStem: 255 60<196 617>
VStem: 136 60<315 645>
AnchorPoint: "Above" 0 0 basechar 0
LayerCount: 2
Back
Refer: 47 -1 N 1 0 0 1 -29 -217 2
Fore
SplineSet
617 315 m 1,0,-1
 617 255 l 1,1,-1
 166 255 l 2,2,3
 153 255 153 255 144 264 c 0,4,5
 136 272 136 272 136 285 c 2,6,-1
 136 645 l 1,7,-1
 196 645 l 1,8,-1
 196 315 l 1,9,-1
 617 315 l 1,0,-1
EndSplineSet
Substitution2: "Single Substitution lookup 82 subtable" iy.cvc.3
Substitution2: "Single Substitution lookup 71 subtable" iy.cvc.1
Substitution2: "Single Substitution lookup 64 subtable" iy.ccv.2
Substitution2: "Single Substitution lookup 60 subtable" iy.cvc.3
Substitution2: "Single Substitution lookup 56 subtable" iy.cvc.1
Substitution2: "Single Substitution lookup 54 subtable" iy.ccv.1
EndChar

StartChar: ry
Encoding: 9 60265 9
Width: 733
VWidth: 2427
Flags: W
AnchorPoint: "Above" 0 0 basechar 0
LayerCount: 2
Back
SplineSet
167 300 m 29,0,-1
 566 700 l 1025
167 700 m 29,2,-1
 566 300 l 1025
EndSplineSet
Fore
SplineSet
143.694699134 723.363710141 m 1,0,-1
 167.058409275 746.669011007 l 1,1,-1
 190.363710141 723.305300866 l 1,2,-1
 366.5 546.727566671 l 1,3,-1
 542.636289859 723.305300866 l 1,4,-1
 565.941590725 746.669011007 l 1,5,-1
 589.305300866 723.363710141 l 1,6,-1
 612.669011007 700.058409275 l 1,7,-1
 589.363710141 676.694699134 l 1,8,-1
 413.110747755 500 l 1,9,-1
 589.363710141 323.305300866 l 1,10,-1
 612.669011007 299.941590725 l 1,11,-1
 589.305300866 276.636289859 l 1,12,-1
 565.941590725 253.330988993 l 1,13,-1
 542.636289859 276.694699134 l 1,14,-1
 366.5 453.272433329 l 1,15,-1
 190.363710141 276.694699134 l 1,16,-1
 167.058409275 253.330988993 l 1,17,-1
 143.694699134 276.636289859 l 1,18,-1
 120.330988993 299.941590725 l 1,19,-1
 143.636289859 323.305300866 l 1,20,-1
 319.889252245 500 l 1,21,-1
 143.636289859 676.694699134 l 1,22,-1
 120.330988993 700.058409275 l 1,23,-1
 143.694699134 723.363710141 l 1,0,-1
EndSplineSet
Substitution2: "Single Substitution lookup 82 subtable" ry.cvc.3
Substitution2: "Single Substitution lookup 71 subtable" ry.cvc.1
Substitution2: "Single Substitution lookup 64 subtable" ry.ccv.2
Substitution2: "Single Substitution lookup 60 subtable" ry.cvc.3
Substitution2: "Single Substitution lookup 56 subtable" ry.cvc.1
Substitution2: "Single Substitution lookup 54 subtable" ry.ccv.1
Substitution2: "Single Substitution lookup 52 subtable" ry.ccv.2
Substitution2: "Single Substitution lookup 50 subtable" ry.ccv.2
Substitution2: "Single Substitution lookup 48 subtable" ry.ccv.2
Substitution2: "Single Substitution lookup 45 subtable" ry.ccv.2
Substitution2: "Single Substitution lookup 43 subtable" ry.ccv.2
Substitution2: "Single Substitution lookup 40 subtable" ry.ccv.2
Substitution2: "Single Substitution lookup 33 subtable" ry.ccv.2
Substitution2: "Single Substitution lookup 20 subtable" ry.ccv.2
Substitution2: "Single Substitution lookup 12 subtable" ry.ccv.2
Substitution2: "Single Substitution lookup 10 subtable" ry.ccv.2
Substitution2: "Single Substitution lookup 8 subtable" ry.ccv.2
Substitution2: "Single Substitution lookup 6 subtable" ry.ccv.2
EndChar

StartChar: ebu
Encoding: 10 60266 10
Width: 733
VWidth: 230
Flags: W
HStem: 133 66<133 666> 267 66<285.349 449.358> 667 66<285.349 449.358>
VStem: 67 66<-67 133> 134 66<418.049 581.951> 533 66<416.846 583.154>
LayerCount: 2
Back
Refer: 32 -1 N 1 0 0 1 0 0 2
Refer: 31 60287 N 1 0 0 1 0 0 2
Fore
SplineSet
200 500 m 128,-1,1
 200 431 200 431 249 382 c 128,-1,2
 298 333 298 333 367 333 c 128,-1,3
 436 333 436 333 484.5 381.5 c 128,-1,4
 533 430 533 430 533 500 c 128,-1,5
 533 570 533 570 484.5 618.5 c 128,-1,6
 436 667 436 667 367 667 c 128,-1,7
 298 667 298 667 249 618 c 128,-1,0
 200 569 200 569 200 500 c 128,-1,1
134 500 m 128,-1,9
 134 597 134 597 202.5 665 c 128,-1,10
 271 733 271 733 367 733 c 128,-1,11
 463 733 463 733 531 665 c 128,-1,12
 599 597 599 597 599 500 c 128,-1,13
 599 403 599 403 531 335 c 128,-1,14
 463 267 463 267 367 267 c 128,-1,15
 271 267 271 267 202.5 335 c 128,-1,8
 134 403 134 403 134 500 c 128,-1,9
666 166 m 1,16,-1
 666 133 l 1,17,-1
 633 133 l 1,18,-1
 133 133 l 1,19,-1
 133 -34 l 1,20,-1
 133 -67 l 1,21,-1
 100 -67 l 1,22,-1
 67 -67 l 1,23,-1
 67 -34 l 1,24,-1
 67 166 l 2,25,26
 67 178 67 178 76.5 188.5 c 128,-1,27
 86 199 86 199 100 199 c 2,28,-1
 633 199 l 1,29,-1
 666 199 l 1,30,-1
 666 166 l 1,16,-1
EndSplineSet
LCarets2: 1 0
Ligature2: "Vdenpabu subtable" denpabu ebu
Substitution2: "Single Substitution lookup 80 subtable" ebu.cvc
Substitution2: "Single Substitution lookup 68 subtable" ebu.ccv
Substitution2: "Single Substitution lookup 62 subtable" ebu.cv
Substitution2: "Single Substitution lookup 58 subtable" ebu.cvc
EndChar

StartChar: obu
Encoding: 11 60267 11
Width: 733
VWidth: 230
Flags: W
HStem: 133 66<67 600> 267 66<285.349 449.358> 667 66<285.349 449.358>
VStem: 134 66<418.049 581.951> 533 66<416.846 583.154> 600 66<-67 133>
LayerCount: 2
Back
Refer: 33 -1 N 1 0 0 1 0 0 2
Refer: 31 60287 N 1 0 0 1 0 0 2
Fore
SplineSet
200 500 m 128,-1,1
 200 431 200 431 249 382 c 128,-1,2
 298 333 298 333 367 333 c 128,-1,3
 436 333 436 333 484.5 381.5 c 128,-1,4
 533 430 533 430 533 500 c 128,-1,5
 533 570 533 570 484.5 618.5 c 128,-1,6
 436 667 436 667 367 667 c 128,-1,7
 298 667 298 667 249 618 c 128,-1,0
 200 569 200 569 200 500 c 128,-1,1
134 500 m 128,-1,9
 134 597 134 597 202.5 665 c 128,-1,10
 271 733 271 733 367 733 c 128,-1,11
 463 733 463 733 531 665 c 128,-1,12
 599 597 599 597 599 500 c 128,-1,13
 599 403 599 403 531 335 c 128,-1,14
 463 267 463 267 367 267 c 128,-1,15
 271 267 271 267 202.5 335 c 128,-1,8
 134 403 134 403 134 500 c 128,-1,9
67 166 m 1,16,-1
 67 199 l 1,17,-1
 100 199 l 1,18,-1
 633 199 l 2,19,20
 647 199 647 199 656.5 188.5 c 128,-1,21
 666 178 666 178 666 166 c 2,22,-1
 666 -34 l 1,23,-1
 666 -67 l 1,24,-1
 633 -67 l 1,25,-1
 600 -67 l 1,26,-1
 600 -34 l 1,27,-1
 600 133 l 1,28,-1
 100 133 l 1,29,-1
 67 133 l 1,30,-1
 67 166 l 1,16,-1
EndSplineSet
Ligature2: "Vdenpabu subtable" denpabu obu
Substitution2: "Single Substitution lookup 80 subtable" obu.cvc
Substitution2: "Single Substitution lookup 68 subtable" obu.ccv
Substitution2: "Single Substitution lookup 62 subtable" obu.cv
Substitution2: "Single Substitution lookup 58 subtable" obu.cvc
EndChar

StartChar: ibu
Encoding: 12 60268 12
Width: 733
VWidth: 230
Flags: W
HStem: -1 21G<334 400> 133 66<133 334 400 667> 267 66<285.349 449.358> 667 66<285.349 449.358>
VStem: 67 66<-67 133> 134 66<418.049 581.951> 334 66<-1 133> 533 66<416.846 583.154>
LayerCount: 2
Back
Refer: 34 -1 N 1 0 0 1 0 0 2
Refer: 31 60287 N 1 0 0 1 0 0 2
Fore
SplineSet
200 500 m 128,-1,1
 200 431 200 431 249 382 c 128,-1,2
 298 333 298 333 367 333 c 128,-1,3
 436 333 436 333 484.5 381.5 c 128,-1,4
 533 430 533 430 533 500 c 128,-1,5
 533 570 533 570 484.5 618.5 c 128,-1,6
 436 667 436 667 367 667 c 128,-1,7
 298 667 298 667 249 618 c 128,-1,0
 200 569 200 569 200 500 c 128,-1,1
134 500 m 128,-1,9
 134 597 134 597 202.5 665 c 128,-1,10
 271 733 271 733 367 733 c 128,-1,11
 463 733 463 733 531 665 c 128,-1,12
 599 597 599 597 599 500 c 128,-1,13
 599 403 599 403 531 335 c 128,-1,14
 463 267 463 267 367 267 c 128,-1,15
 271 267 271 267 202.5 335 c 128,-1,8
 134 403 134 403 134 500 c 128,-1,9
667 166 m 1,16,-1
 667 133 l 1,17,-1
 634 133 l 1,18,-1
 400 133 l 1,19,-1
 400 32 l 1,20,-1
 400 -1 l 1,21,-1
 367 -1 l 1,22,-1
 334 -1 l 1,23,-1
 334 32 l 1,24,-1
 334 133 l 1,25,-1
 133 133 l 1,26,-1
 133 -34 l 1,27,-1
 133 -67 l 1,28,-1
 100 -67 l 1,29,-1
 67 -67 l 1,30,-1
 67 -34 l 1,31,-1
 67 166 l 2,32,33
 67 178 67 178 76.5 188.5 c 128,-1,34
 86 199 86 199 100 199 c 2,35,-1
 634 199 l 1,36,-1
 667 199 l 1,37,-1
 667 166 l 1,16,-1
EndSplineSet
Ligature2: "Vdenpabu subtable" denpabu ibu
Substitution2: "Single Substitution lookup 80 subtable" ibu.cvc
Substitution2: "Single Substitution lookup 68 subtable" ibu.ccv
Substitution2: "Single Substitution lookup 62 subtable" ibu.cv
Substitution2: "Single Substitution lookup 58 subtable" ibu.cvc
Substitution2: "Single Substitution lookup 1 subtable" iy
EndChar

StartChar: ubu
Encoding: 13 60269 13
Width: 733
VWidth: 230
Flags: W
HStem: 0 21G<334 400> 133 66<67 334 400 600> 267 66<285.349 449.358> 667 66<285.349 449.358>
VStem: 134 66<418.049 581.951> 334 66<0 133> 533 66<416.846 583.154> 600 66<-67 133>
LayerCount: 2
Back
Refer: 84 -1 S 1 0 0 1 0 0 2
Refer: 31 60287 N 1 0 0 1 0 0 2
Fore
SplineSet
200 500 m 128,-1,1
 200 431 200 431 249 382 c 128,-1,2
 298 333 298 333 367 333 c 128,-1,3
 436 333 436 333 484.5 381.5 c 128,-1,4
 533 430 533 430 533 500 c 128,-1,5
 533 570 533 570 484.5 618.5 c 128,-1,6
 436 667 436 667 367 667 c 128,-1,7
 298 667 298 667 249 618 c 128,-1,0
 200 569 200 569 200 500 c 128,-1,1
134 500 m 128,-1,9
 134 597 134 597 202.5 665 c 128,-1,10
 271 733 271 733 367 733 c 128,-1,11
 463 733 463 733 531 665 c 128,-1,12
 599 597 599 597 599 500 c 128,-1,13
 599 403 599 403 531 335 c 128,-1,14
 463 267 463 267 367 267 c 128,-1,15
 271 267 271 267 202.5 335 c 128,-1,8
 134 403 134 403 134 500 c 128,-1,9
67 166 m 1,16,-1
 67 199 l 1,17,-1
 100 199 l 1,18,-1
 633 199 l 2,19,20
 647 199 647 199 656.5 188.5 c 128,-1,21
 666 178 666 178 666 166 c 2,22,-1
 666 -34 l 1,23,-1
 666 -67 l 1,24,-1
 633 -67 l 1,25,-1
 600 -67 l 1,26,-1
 600 -34 l 1,27,-1
 600 133 l 1,28,-1
 400 133 l 1,29,-1
 400 33 l 1,30,-1
 400 0 l 1,31,-1
 367 0 l 1,32,-1
 334 0 l 1,33,-1
 334 33 l 1,34,-1
 334 133 l 1,35,-1
 100 133 l 1,36,-1
 67 133 l 1,37,-1
 67 166 l 1,16,-1
EndSplineSet
Ligature2: "Vdenpabu subtable" denpabu ubu
Substitution2: "Single Substitution lookup 80 subtable" ubu.cvc
Substitution2: "Single Substitution lookup 68 subtable" ubu.ccv
Substitution2: "Single Substitution lookup 62 subtable" ubu.cv
Substitution2: "Single Substitution lookup 58 subtable" ubu.cvc
Substitution2: "Single Substitution lookup 2 subtable" uy
EndChar

StartChar: abu
Encoding: 14 60270 14
Width: 733
VWidth: 230
Flags: W
HStem: 133 66<67 666> 267 66<285.349 449.358> 667 66<285.349 449.358>
VStem: 134 66<418.049 581.951> 533 66<416.846 583.154>
LayerCount: 2
Back
Refer: 85 -1 N 1 0 0 1 0 0 2
Refer: 31 60287 N 1 0 0 1 0 0 2
Fore
SplineSet
200 500 m 128,-1,1
 200 431 200 431 249 382 c 128,-1,2
 298 333 298 333 367 333 c 128,-1,3
 436 333 436 333 484.5 381.5 c 128,-1,4
 533 430 533 430 533 500 c 128,-1,5
 533 570 533 570 484.5 618.5 c 128,-1,6
 436 667 436 667 367 667 c 128,-1,7
 298 667 298 667 249 618 c 128,-1,0
 200 569 200 569 200 500 c 128,-1,1
134 500 m 128,-1,9
 134 597 134 597 202.5 665 c 128,-1,10
 271 733 271 733 367 733 c 128,-1,11
 463 733 463 733 531 665 c 128,-1,12
 599 597 599 597 599 500 c 128,-1,13
 599 403 599 403 531 335 c 128,-1,14
 463 267 463 267 367 267 c 128,-1,15
 271 267 271 267 202.5 335 c 128,-1,8
 134 403 134 403 134 500 c 128,-1,9
67 166 m 1,16,-1
 67 199 l 1,17,-1
 100 199 l 1,18,-1
 633 199 l 1,19,-1
 666 199 l 1,20,-1
 666 166 l 1,21,-1
 666 133 l 1,22,-1
 633 133 l 1,23,-1
 100 133 l 1,24,-1
 67 133 l 1,25,-1
 67 166 l 1,16,-1
EndSplineSet
Ligature2: "Vdenpabu subtable" denpabu abu
Substitution2: "Single Substitution lookup 80 subtable" abu.cvc
Substitution2: "Single Substitution lookup 68 subtable" abu.ccv
Substitution2: "Single Substitution lookup 62 subtable" abu.cv
Substitution2: "Single Substitution lookup 58 subtable" abu.cvc
EndChar

StartChar: ybu
Encoding: 15 60271 15
Width: 733
VWidth: 230
Flags: W
HStem: 0 21G<334 400> 133 66<67 334 400 666> 267 66<285.349 449.358> 667 66<285.349 449.358>
VStem: 134 66<418.049 581.951> 334 66<0 133> 533 66<416.846 583.154>
LayerCount: 2
Back
Refer: 79 -1 N 1 0 0 1 0 0 2
Refer: 31 60287 N 1 0 0 1 0 0 2
Fore
SplineSet
200 500 m 128,-1,1
 200 431 200 431 249 382 c 128,-1,2
 298 333 298 333 367 333 c 128,-1,3
 436 333 436 333 484.5 381.5 c 128,-1,4
 533 430 533 430 533 500 c 128,-1,5
 533 570 533 570 484.5 618.5 c 128,-1,6
 436 667 436 667 367 667 c 128,-1,7
 298 667 298 667 249 618 c 128,-1,0
 200 569 200 569 200 500 c 128,-1,1
134 500 m 128,-1,9
 134 597 134 597 202.5 665 c 128,-1,10
 271 733 271 733 367 733 c 128,-1,11
 463 733 463 733 531 665 c 128,-1,12
 599 597 599 597 599 500 c 128,-1,13
 599 403 599 403 531 335 c 128,-1,14
 463 267 463 267 367 267 c 128,-1,15
 271 267 271 267 202.5 335 c 128,-1,8
 134 403 134 403 134 500 c 128,-1,9
666 166 m 1,16,-1
 666 133 l 1,17,-1
 633 133 l 1,18,-1
 400 133 l 1,19,-1
 400 33 l 1,20,-1
 400 0 l 1,21,-1
 367 0 l 1,22,-1
 334 0 l 1,23,-1
 334 33 l 1,24,-1
 334 133 l 1,25,-1
 100 133 l 1,26,-1
 67 133 l 1,27,-1
 67 166 l 1,28,-1
 67 199 l 1,29,-1
 100 199 l 1,30,-1
 334 199 l 1,31,-1
 367 199 l 1,32,-1
 400 199 l 1,33,-1
 633 199 l 1,34,-1
 666 199 l 1,35,-1
 666 166 l 1,16,-1
EndSplineSet
Ligature2: "Vdenpabu subtable" denpabu ybu
Substitution2: "Single Substitution lookup 80 subtable" ybu.cvc
Substitution2: "Single Substitution lookup 68 subtable" ybu.ccv
Substitution2: "Single Substitution lookup 62 subtable" ybu.cv
Substitution2: "Single Substitution lookup 58 subtable" ybu.cvc
EndChar

StartChar: my
Encoding: 16 60272 16
Width: 733
VWidth: 2427
Flags: W
HStem: 267 66<200 533> 667 66<200 533>
VStem: 134 66<333 667> 533 66<333 667>
AnchorPoint: "Above" 0 0 basechar 0
LayerCount: 2
Back
SplineSet
167 700 m 29,0,-1
 566 700 l 1,1,-1
 566 300 l 1,2,-1
 167 300 l 1,3,-1
 167 700 l 29,0,-1
EndSplineSet
Fore
SplineSet
200 667 m 1,0,-1
 200 333 l 1,1,-1
 533 333 l 1,2,-1
 533 667 l 1,3,-1
 200 667 l 1,0,-1
167 733 m 2,4,-1
 566 733 l 2,5,6
 580 733 580 733 589.5 722.5 c 128,-1,7
 599 712 599 712 599 700 c 2,8,-1
 599 300 l 2,9,10
 599 286 599 286 588.5 276.5 c 128,-1,11
 578 267 578 267 566 267 c 2,12,-1
 167 267 l 2,13,14
 153 267 153 267 143.5 277.5 c 128,-1,15
 134 288 134 288 134 300 c 2,16,-1
 134 700 l 2,17,18
 134 714 134 714 144.5 723.5 c 128,-1,19
 155 733 155 733 167 733 c 2,4,-1
EndSplineSet
Substitution2: "Single Substitution lookup 82 subtable" my.cvc.3
Substitution2: "Single Substitution lookup 71 subtable" my.cvc.1
Substitution2: "Single Substitution lookup 64 subtable" my.ccv.2
Substitution2: "Single Substitution lookup 60 subtable" my.cvc.3
Substitution2: "Single Substitution lookup 56 subtable" my.cvc.1
Substitution2: "Single Substitution lookup 54 subtable" my.ccv.1
Substitution2: "Single Substitution lookup 38 subtable" my.ccv.2
Substitution2: "Single Substitution lookup 30 subtable" my.ccv.2
Substitution2: "Single Substitution lookup 25 subtable" my.ccv.2
Substitution2: "Single Substitution lookup 17 subtable" my.ccv.2
EndChar

StartChar: by
Encoding: 17 60273 17
Width: 733
VWidth: 2427
Flags: W
HStem: 267 66<200 599> 667 66<200 599>
VStem: 134 66<333 667>
AnchorPoint: "Above" 0 0 basechar 0
LayerCount: 2
Back
SplineSet
566 700 m 29,0,-1
 167 700 l 1,1,-1
 167 300 l 1,2,-1
 566 300 l 1025
EndSplineSet
Fore
SplineSet
599 700 m 1,0,-1
 599 667 l 1,1,-1
 566 667 l 1,2,-1
 200 667 l 1,3,-1
 200 333 l 1,4,-1
 566 333 l 1,5,-1
 599 333 l 1,6,-1
 599 300 l 1,7,-1
 599 267 l 1,8,-1
 566 267 l 1,9,-1
 167 267 l 2,10,11
 155 267 155 267 144.5 276.5 c 128,-1,12
 134 286 134 286 134 300 c 2,13,-1
 134 700 l 2,14,15
 134 712 134 712 143.5 722.5 c 128,-1,16
 153 733 153 733 167 733 c 2,17,-1
 566 733 l 1,18,-1
 599 733 l 1,19,-1
 599 700 l 1,0,-1
EndSplineSet
Substitution2: "Single Substitution lookup 82 subtable" by.cvc.3
Substitution2: "Single Substitution lookup 71 subtable" by.cvc.1
Substitution2: "Single Substitution lookup 64 subtable" by.ccv.2
Substitution2: "Single Substitution lookup 60 subtable" by.cvc.3
Substitution2: "Single Substitution lookup 56 subtable" by.cvc.1
Substitution2: "Single Substitution lookup 54 subtable" by.ccv.1
Substitution2: "Single Substitution lookup 34 subtable" by.ccv.2
Substitution2: "Single Substitution lookup 21 subtable" by.ccv.2
EndChar

StartChar: py
Encoding: 18 60274 18
Width: 733
VWidth: 2427
Flags: W
HStem: 267 66<134 533> 667 66<134 533>
VStem: 533 66<333 667>
AnchorPoint: "Above" 0 0 basechar 0
LayerCount: 2
Back
SplineSet
167 700 m 29,0,-1
 566 700 l 1,1,-1
 566 300 l 1,2,-1
 167 300 l 1025
EndSplineSet
Fore
SplineSet
134 700 m 1,0,-1
 134 733 l 1,1,-1
 167 733 l 1,2,-1
 566 733 l 2,3,4
 580 733 580 733 589.5 722.5 c 128,-1,5
 599 712 599 712 599 700 c 2,6,-1
 599 300 l 2,7,8
 599 286 599 286 588.5 276.5 c 128,-1,9
 578 267 578 267 566 267 c 2,10,-1
 167 267 l 1,11,-1
 134 267 l 1,12,-1
 134 300 l 1,13,-1
 134 333 l 1,14,-1
 167 333 l 1,15,-1
 533 333 l 1,16,-1
 533 667 l 1,17,-1
 167 667 l 1,18,-1
 134 667 l 1,19,-1
 134 700 l 1,0,-1
EndSplineSet
Substitution2: "Single Substitution lookup 82 subtable" py.cvc.3
Substitution2: "Single Substitution lookup 71 subtable" py.cvc.1
Substitution2: "Single Substitution lookup 64 subtable" py.ccv.2
Substitution2: "Single Substitution lookup 60 subtable" py.cvc.3
Substitution2: "Single Substitution lookup 56 subtable" py.cvc.1
Substitution2: "Single Substitution lookup 54 subtable" py.ccv.1
Substitution2: "Single Substitution lookup 26 subtable" py.ccv.2
Substitution2: "Single Substitution lookup 13 subtable" py.ccv.2
EndChar

StartChar: vy
Encoding: 19 60275 19
Width: 733
VWidth: 2427
Flags: W
HStem: 267 66<200 471.07>
VStem: 134 66<333 733>
AnchorPoint: "Above" 0 0 basechar 0
LayerCount: 2
Back
SplineSet
167 700 m 29,0,-1
 167 300 l 1,1,-1
 500 300 l 1,2,3
 503 399 503 399 544 516 c 0
 585 633 585 633 634 698 c 1024
EndSplineSet
Fore
SplineSet
167 733 m 1,0,-1
 200 733 l 1,1,-1
 200 700 l 1,2,-1
 200 333 l 1,3,-1
 469.030399564 333 l 1,4,5
 478.459040694 434.970948256 478.459040694 434.970948256 518.754154125 544.018475964 c 128,-1,6
 559.049267555 653.066003672 559.049267555 653.066003672 607.719615938 717.826127628 c 2,7,-1
 627.545743566 744.20651169 l 1,8,-1
 653.926127628 724.380384062 l 1,9,-1
 680.30651169 704.554256434 l 1,10,-1
 660.480384062 678.173872372 l 2,11,12
 615.679475579 618.562374136 615.679475579 618.562374136 575.822861255 504.895334423 c 128,-1,13
 535.966246931 391.22829471 535.966246931 391.22829471 532.982771912 298.933811934 c 0,14,15
 532.56554576 286.026825404 532.56554576 286.026825404 522.908295341 276.513412702 c 128,-1,16
 513.251044921 267 513.251044921 267 500 267 c 2,17,-1
 167 267 l 2,18,19
 155 267 155 267 144.5 276.5 c 128,-1,20
 134 286 134 286 134 300 c 2,21,-1
 134 700 l 1,22,-1
 134 733 l 1,23,-1
 167 733 l 1,0,-1
EndSplineSet
Substitution2: "Single Substitution lookup 82 subtable" vy.cvc.3
Substitution2: "Single Substitution lookup 71 subtable" vy.cvc.1
Substitution2: "Single Substitution lookup 64 subtable" vy.ccv.2
Substitution2: "Single Substitution lookup 60 subtable" vy.cvc.3
Substitution2: "Single Substitution lookup 56 subtable" vy.cvc.1
Substitution2: "Single Substitution lookup 54 subtable" vy.ccv.1
Substitution2: "Single Substitution lookup 35 subtable" vy.ccv.2
Substitution2: "Single Substitution lookup 22 subtable" vy.ccv.2
EndChar

StartChar: fy
Encoding: 20 60276 20
Width: 733
VWidth: 2427
Flags: W
HStem: 667 66<261.931 533>
VStem: 533 66<267 667>
AnchorPoint: "Above" 0 0 basechar 0
LayerCount: 2
Back
SplineSet
566 300 m 5,0,-1
 566 700 l 1,1,-1
 233 700 l 1,2,3
 230 601 230 601 189 484 c 0
 148 367 148 367 99 302 c 1024
EndSplineSet
Fore
SplineSet
566 267 m 1,0,-1
 533 267 l 1,1,-1
 533 300 l 1,2,-1
 533 667 l 1,3,-1
 263.969546417 667 l 1,4,5
 254.543753428 565.058652194 254.543753428 565.058652194 214.272247118 456.0157043 c 128,-1,6
 174.000740808 346.972756407 174.000740808 346.972756407 125.395857911 282.194478418 c 2,7,-1
 105.59033633 255.798620507 l 1,8,-1
 79.1944784184 275.604142089 l 1,9,-1
 52.798620507 295.40966367 l 1,10,-1
 72.6041420886 321.805521582 l 2,11,12
 117.357516257 381.45069178 117.357516257 381.45069178 157.19585541 495.122928555 c 128,-1,13
 197.034194563 608.79516533 197.034194563 608.79516533 200.017231746 701.066301213 c 0,14,15
 200.434498696 713.973178682 200.434498696 713.973178682 210.091732494 723.486589341 c 128,-1,16
 219.748966292 733 219.748966292 733 233 733 c 2,17,-1
 566 733 l 2,18,19
 578 733 578 733 588.5 723.5 c 128,-1,20
 599 714 599 714 599 700 c 2,21,-1
 599 300 l 1,22,-1
 599 267 l 1,23,-1
 566 267 l 1,0,-1
EndSplineSet
Substitution2: "Single Substitution lookup 82 subtable" fy.cvc.3
Substitution2: "Single Substitution lookup 71 subtable" fy.cvc.1
Substitution2: "Single Substitution lookup 64 subtable" fy.ccv.2
Substitution2: "Single Substitution lookup 60 subtable" fy.cvc.3
Substitution2: "Single Substitution lookup 56 subtable" fy.cvc.1
Substitution2: "Single Substitution lookup 54 subtable" fy.ccv.1
Substitution2: "Single Substitution lookup 27 subtable" fy.ccv.2
Substitution2: "Single Substitution lookup 14 subtable" fy.ccv.2
EndChar

StartChar: ky
Encoding: 21 60277 21
Width: 733
VWidth: 2427
Flags: W
VStem: 219.331 279.056
AnchorPoint: "Above" 0 0 basechar 0
LayerCount: 2
Back
SplineSet
266 300 m 5,0,-1
 466 500 l 1,1,-1
 266 700 l 1025
EndSplineSet
Fore
SplineSet
242.665039062 276.665039062 m 1,0,-1
 219.331054688 300 l 1,1,-1
 242.665039062 323.334960938 l 1,2,-1
 419.331054688 500 l 1,3,-1
 242.665039062 676.665039062 l 1,4,-1
 219.331054688 700 l 1,5,-1
 242.665039062 723.334960938 l 1,6,-1
 266 746.668945312 l 1,7,-1
 289.334960938 723.334960938 l 1,8,-1
 489.334960938 523.334960938 l 2,9,10
 497.582565223 515.0865524 497.582565223 515.0865524 498.386962891 501.541015625 c 128,-1,11
 499.191360559 487.99547885 499.191360559 487.99547885 489.334960938 476.665039062 c 2,12,-1
 289.334960938 276.665039062 l 1,13,-1
 266 253.331054688 l 1,14,-1
 242.665039062 276.665039062 l 1,0,-1
EndSplineSet
Substitution2: "Single Substitution lookup 82 subtable" ky.cvc.3
Substitution2: "Single Substitution lookup 71 subtable" ky.cvc.1
Substitution2: "Single Substitution lookup 64 subtable" ky.ccv.2
Substitution2: "Single Substitution lookup 60 subtable" ky.cvc.3
Substitution2: "Single Substitution lookup 56 subtable" ky.cvc.1
Substitution2: "Single Substitution lookup 54 subtable" ky.ccv.1
Substitution2: "Single Substitution lookup 29 subtable" ky.ccv.2
Substitution2: "Single Substitution lookup 16 subtable" ky.ccv.2
EndChar

StartChar: cy
Encoding: 22 60278 22
Width: 733
VWidth: 2427
Flags: W
HStem: 267 66<134 243.78 486.037 599> 467 66<134 315.964 416.71 599>
VStem: 333 66<534.215 733>
AnchorPoint: "Above" 0 0 basechar 0
LayerCount: 2
Back
SplineSet
566 500 m 5,0,-1
 167 500 l 1025
366 630 m 5,2,-1
 366 700 l 1025
566 300 m 4,4,5
 365 300 365 300 366 630 c 1,6,7
 367 467 367 467 316.5 383.5 c 0
 266 300 266 300 167 300 c 1024
EndSplineSet
Fore
SplineSet
599 300 m 1,0,-1
 599 267 l 1,1,-1
 566 267 l 2,2,3
 496.278554536 267 496.278554536 267 444.959227407 304.137864096 c 128,-1,4
 393.639900277 341.275728192 393.639900277 341.275728192 366.364241324 410.019184549 c 1,5,6
 339.089900994 341.286974432 339.089900994 341.286974432 287.724043393 304.143487216 c 128,-1,7
 236.358185791 267 236.358185791 267 167 267 c 2,8,-1
 134 267 l 1,9,-1
 134 300 l 1,10,-1
 134 333 l 1,11,-1
 167 333 l 2,12,13
 280.533298699 333 280.533298699 333 315.96422948 467 c 1,14,-1
 167 467 l 1,15,-1
 134 467 l 1,16,-1
 134 500 l 1,17,-1
 134 533 l 1,18,-1
 167 533 l 1,19,-1
 328.222699631 533 l 1,20,21
 332.593285212 569.579391199 332.593285212 569.579391199 333 612.135321268 c 2,22,-1
 333 623.654262677 l 1,23,-1
 333 630.055495488 l 1,24,-1
 333 700 l 1,25,-1
 333 733 l 1,26,-1
 366 733 l 1,27,-1
 399 733 l 1,28,-1
 399 700 l 1,29,-1
 399 630.149271274 l 2,30,31
 399.053261159 624.200561356 399.053261159 624.200561356 399.03615853 617.485069618 c 0,32,33
 399.461341946 571.836216176 399.461341946 571.836216176 404.250477538 533 c 1,34,-1
 566 533 l 1,35,-1
 599 533 l 1,36,-1
 599 500 l 1,37,-1
 599 467 l 1,38,-1
 566 467 l 1,39,-1
 416.70980049 467 l 1,40,41
 435.381790101 396.953087041 435.381790101 396.953087041 472.421388217 364.97654352 c 128,-1,42
 509.460986332 333 509.460986332 333 566 333 c 2,43,-1
 599 333 l 1,44,-1
 599 300 l 1,0,-1
EndSplineSet
Substitution2: "Single Substitution lookup 82 subtable" cy.cvc.3
Substitution2: "Single Substitution lookup 71 subtable" cy.cvc.1
Substitution2: "Single Substitution lookup 64 subtable" cy.ccv.2
Substitution2: "Single Substitution lookup 60 subtable" cy.cvc.3
Substitution2: "Single Substitution lookup 56 subtable" cy.cvc.1
Substitution2: "Single Substitution lookup 54 subtable" cy.ccv.1
Substitution2: "Single Substitution lookup 39 subtable" cy.ccv.2
EndChar

StartChar: yhy
Encoding: 23 60279 23
Width: 733
VWidth: 2427
Flags: W
VStem: 134 66<379.81 733> 533 66<267 620.19>
AnchorPoint: "Above" 0 0 basechar 0
LayerCount: 2
Back
SplineSet
167 700 m 29,0,-1
 167 300 l 1,1,-1
 566 700 l 1,2,-1
 566 300 l 1025
EndSplineSet
Fore
SplineSet
167 733 m 1,0,-1
 200 733 l 1,1,-1
 200 700 l 1,2,-1
 200 379.810273438 l 1,3,-1
 542.636289859 723.305300866 l 2,4,5
 552.683487431 733.377679384 552.683487431 733.377679384 567.248470815 732.823690593 c 128,-1,6
 581.813454199 732.269701802 581.813454199 732.269701802 591.066510691 721.463225335 c 0,7,8
 599 712.197847393 599 712.197847393 599 700 c 2,9,-1
 599 300 l 1,10,-1
 599 267 l 1,11,-1
 566 267 l 1,12,-1
 533 267 l 1,13,-1
 533 300 l 1,14,-1
 533 620.189726562 l 1,15,-1
 190.363710141 276.694699134 l 2,16,17
 181.749331249 268.058730321 181.749331249 268.058730321 169.58908382 267.101722766 c 0,18,19
 155.406237906 265.985537362 155.406237906 265.985537362 144.703118953 275.879418766 c 128,-1,20
 134 285.77330017 134 285.77330017 134 300 c 2,21,-1
 134 700 l 1,22,-1
 134 733 l 1,23,-1
 167 733 l 1,0,-1
EndSplineSet
Substitution2: "Single Substitution lookup 82 subtable" yhy.cvc.3
Substitution2: "Single Substitution lookup 71 subtable" yhy.cvc.1
Substitution2: "Single Substitution lookup 64 subtable" yhy.ccv.2
Substitution2: "Single Substitution lookup 60 subtable" yhy.cvc.3
Substitution2: "Single Substitution lookup 56 subtable" yhy.cvc.1
Substitution2: "Single Substitution lookup 54 subtable" yhy.ccv.1
EndChar

StartChar: uy
Encoding: 24 60280 24
Width: 733
VWidth: 2427
Flags: W
HStem: 256 60<136 557>
VStem: 557 60<316 645>
AnchorPoint: "Above" 0 0 basechar 0
LayerCount: 2
Back
Refer: 57 -1 S 1 0 0 1 -29 -217 2
Fore
SplineSet
557 645 m 1,0,-1
 617 645 l 1,1,-1
 617 286 l 2,2,3
 617 274 617 274 607 264 c 0,4,5
 599 256 599 256 587 256 c 2,6,-1
 136 256 l 1,7,-1
 136 316 l 1,8,-1
 557 316 l 1,9,-1
 557 645 l 1,0,-1
EndSplineSet
Substitution2: "Single Substitution lookup 82 subtable" uy.cvc.3
Substitution2: "Single Substitution lookup 71 subtable" uy.cvc.1
Substitution2: "Single Substitution lookup 64 subtable" uy.ccv.2
Substitution2: "Single Substitution lookup 60 subtable" uy.cvc.3
Substitution2: "Single Substitution lookup 56 subtable" uy.cvc.1
Substitution2: "Single Substitution lookup 54 subtable" uy.ccv.1
EndChar

StartChar: ly
Encoding: 25 60281 25
Width: 733
VWidth: 2427
Flags: W
HStem: 267 66<200 599> 467 66<200 533> 667 66<134 533>
VStem: 134 66<333 467> 533 66<533 667>
CounterMasks: 1 e0
AnchorPoint: "Above" 0 0 basechar 0
LayerCount: 2
Back
SplineSet
167 700 m 29,0,-1
 566 700 l 1,1,-1
 566 500 l 1,2,-1
 167 500 l 1,3,-1
 167 300 l 1,4,-1
 566 300 l 1025
EndSplineSet
Fore
SplineSet
134 700 m 1,0,-1
 134 733 l 1,1,-1
 167 733 l 1,2,-1
 566 733 l 2,3,4
 580 733 580 733 589.5 722.5 c 128,-1,5
 599 712 599 712 599 700 c 2,6,-1
 599 500 l 2,7,8
 599 486 599 486 588.5 476.5 c 128,-1,9
 578 467 578 467 566 467 c 2,10,-1
 200 467 l 1,11,-1
 200 333 l 1,12,-1
 566 333 l 1,13,-1
 599 333 l 1,14,-1
 599 300 l 1,15,-1
 599 267 l 1,16,-1
 566 267 l 1,17,-1
 167 267 l 2,18,19
 155 267 155 267 144.5 276.5 c 128,-1,20
 134 286 134 286 134 300 c 2,21,-1
 134 500 l 2,22,23
 134 512 134 512 143.5 522.5 c 128,-1,24
 153 533 153 533 167 533 c 2,25,-1
 533 533 l 1,26,-1
 533 667 l 1,27,-1
 167 667 l 1,28,-1
 134 667 l 1,29,-1
 134 700 l 1,0,-1
EndSplineSet
Substitution2: "Single Substitution lookup 82 subtable" ly.cvc.3
Substitution2: "Single Substitution lookup 71 subtable" ly.cvc.1
Substitution2: "Single Substitution lookup 64 subtable" ly.ccv.2
Substitution2: "Single Substitution lookup 60 subtable" ly.cvc.3
Substitution2: "Single Substitution lookup 56 subtable" ly.cvc.1
Substitution2: "Single Substitution lookup 54 subtable" ly.ccv.1
Substitution2: "Single Substitution lookup 51 subtable" ly.ccv.2
Substitution2: "Single Substitution lookup 49 subtable" ly.ccv.2
Substitution2: "Single Substitution lookup 47 subtable" ly.ccv.2
Substitution2: "Single Substitution lookup 42 subtable" ly.ccv.2
Substitution2: "Single Substitution lookup 32 subtable" ly.ccv.2
Substitution2: "Single Substitution lookup 19 subtable" ly.ccv.2
Substitution2: "Single Substitution lookup 11 subtable" ly.ccv.2
Substitution2: "Single Substitution lookup 9 subtable" ly.ccv.2
Substitution2: "Single Substitution lookup 7 subtable" ly.ccv.2
Substitution2: "Single Substitution lookup 5 subtable" ly.ccv.2
EndChar

StartChar: eibu
Encoding: 26 60283 26
Width: 733
VWidth: 230
Flags: W
HStem: 133 133<334 400> 133 66<133 334 400 666> 267 66<285.349 449.358> 667 66<285.349 449.358>
VStem: 67 66<-67 133> 134 66<418.049 581.951> 334 66<199 266> 533 66<416.846 583.154>
LayerCount: 2
Back
Refer: 80 -1 N 1 0 0 1 0 0 2
Refer: 31 60287 N 1 0 0 1 0 0 2
Fore
SplineSet
200 500 m 128,-1,1
 200 431 200 431 249 382 c 128,-1,2
 298 333 298 333 367 333 c 128,-1,3
 436 333 436 333 484.5 381.5 c 128,-1,4
 533 430 533 430 533 500 c 128,-1,5
 533 570 533 570 484.5 618.5 c 128,-1,6
 436 667 436 667 367 667 c 128,-1,7
 298 667 298 667 249 618 c 128,-1,0
 200 569 200 569 200 500 c 128,-1,1
134 500 m 128,-1,9
 134 597 134 597 202.5 665 c 128,-1,10
 271 733 271 733 367 733 c 128,-1,11
 463 733 463 733 531 665 c 128,-1,12
 599 597 599 597 599 500 c 128,-1,13
 599 403 599 403 531 335 c 128,-1,14
 463 267 463 267 367 267 c 128,-1,15
 271 267 271 267 202.5 335 c 128,-1,8
 134 403 134 403 134 500 c 128,-1,9
666 166 m 1,16,-1
 666 133 l 1,17,-1
 633 133 l 1,18,-1
 400 133 l 1,19,-1
 367 133 l 1,20,-1
 334 133 l 1,21,-1
 133 133 l 1,22,-1
 133 -34 l 1,23,-1
 133 -67 l 1,24,-1
 100 -67 l 1,25,-1
 67 -67 l 1,26,-1
 67 -34 l 1,27,-1
 67 166 l 2,28,29
 67 178 67 178 76.5 188.5 c 128,-1,30
 86 199 86 199 100 199 c 2,31,-1
 334 199 l 1,32,-1
 334 233 l 1,33,-1
 334 266 l 1,34,-1
 367 266 l 1,35,-1
 400 266 l 1,36,-1
 400 233 l 1,37,-1
 400 199 l 1,38,-1
 633 199 l 1,39,-1
 666 199 l 1,40,-1
 666 166 l 1,16,-1
EndSplineSet
Ligature2: "Vdenpabu subtable" denpabu eibu
Substitution2: "Single Substitution lookup 80 subtable" eibu.cvc
Substitution2: "Single Substitution lookup 68 subtable" eibu.ccv
Substitution2: "Single Substitution lookup 62 subtable" eibu.cv
Substitution2: "Single Substitution lookup 58 subtable" eibu.cvc
Ligature2: "diphthongs subtable" ebu ibu
EndChar

StartChar: oibu
Encoding: 27 60284 27
Width: 733
VWidth: 230
Flags: W
HStem: 133 133<334 400> 133 66<67 334 400 600> 267 66<285.349 449.358> 667 66<285.349 449.358>
VStem: 134 66<418.049 581.951> 334 66<199 266> 533 66<416.846 583.154> 600 66<-67 133>
LayerCount: 2
Back
Refer: 81 -1 N 1 0 0 1 0 0 2
Refer: 31 60287 N 1 0 0 1 0 0 2
Fore
SplineSet
200 500 m 128,-1,1
 200 431 200 431 249 382 c 128,-1,2
 298 333 298 333 367 333 c 128,-1,3
 436 333 436 333 484.5 381.5 c 128,-1,4
 533 430 533 430 533 500 c 128,-1,5
 533 570 533 570 484.5 618.5 c 128,-1,6
 436 667 436 667 367 667 c 128,-1,7
 298 667 298 667 249 618 c 128,-1,0
 200 569 200 569 200 500 c 128,-1,1
134 500 m 128,-1,9
 134 597 134 597 202.5 665 c 128,-1,10
 271 733 271 733 367 733 c 128,-1,11
 463 733 463 733 531 665 c 128,-1,12
 599 597 599 597 599 500 c 128,-1,13
 599 403 599 403 531 335 c 128,-1,14
 463 267 463 267 367 267 c 128,-1,15
 271 267 271 267 202.5 335 c 128,-1,8
 134 403 134 403 134 500 c 128,-1,9
67 166 m 1,16,-1
 67 199 l 1,17,-1
 100 199 l 1,18,-1
 334 199 l 1,19,-1
 334 233 l 1,20,-1
 334 266 l 1,21,-1
 367 266 l 1,22,-1
 400 266 l 1,23,-1
 400 233 l 1,24,-1
 400 199 l 1,25,-1
 633 199 l 2,26,27
 647 199 647 199 656.5 188.5 c 128,-1,28
 666 178 666 178 666 166 c 2,29,-1
 666 -34 l 1,30,-1
 666 -67 l 1,31,-1
 633 -67 l 1,32,-1
 600 -67 l 1,33,-1
 600 -34 l 1,34,-1
 600 133 l 1,35,-1
 400 133 l 1,36,-1
 367 133 l 1,37,-1
 334 133 l 1,38,-1
 100 133 l 1,39,-1
 67 133 l 1,40,-1
 67 166 l 1,16,-1
EndSplineSet
Ligature2: "Vdenpabu subtable" denpabu oibu
Substitution2: "Single Substitution lookup 80 subtable" oibu.cvc
Substitution2: "Single Substitution lookup 68 subtable" oibu.ccv
Substitution2: "Single Substitution lookup 62 subtable" oibu.cv
Substitution2: "Single Substitution lookup 58 subtable" oibu.cvc
Ligature2: "diphthongs subtable" obu ibu
EndChar

StartChar: aibu
Encoding: 28 60282 28
Width: 733
VWidth: 230
Flags: W
HStem: 133 133<334 400> 133 66<67 334 400 666> 267 66<285.349 449.358> 667 66<285.349 449.358>
VStem: 134 66<418.049 581.951> 334 66<199 266> 533 66<416.846 583.154>
LayerCount: 2
Back
Refer: 82 -1 N 1 0 0 1 0 0 2
Refer: 31 60287 N 1 0 0 1 0 0 2
Fore
SplineSet
200 500 m 128,-1,1
 200 431 200 431 249 382 c 128,-1,2
 298 333 298 333 367 333 c 128,-1,3
 436 333 436 333 484.5 381.5 c 128,-1,4
 533 430 533 430 533 500 c 128,-1,5
 533 570 533 570 484.5 618.5 c 128,-1,6
 436 667 436 667 367 667 c 128,-1,7
 298 667 298 667 249 618 c 128,-1,0
 200 569 200 569 200 500 c 128,-1,1
134 500 m 128,-1,9
 134 597 134 597 202.5 665 c 128,-1,10
 271 733 271 733 367 733 c 128,-1,11
 463 733 463 733 531 665 c 128,-1,12
 599 597 599 597 599 500 c 128,-1,13
 599 403 599 403 531 335 c 128,-1,14
 463 267 463 267 367 267 c 128,-1,15
 271 267 271 267 202.5 335 c 128,-1,8
 134 403 134 403 134 500 c 128,-1,9
67 166 m 1,16,-1
 67 199 l 1,17,-1
 100 199 l 1,18,-1
 334 199 l 1,19,-1
 334 233 l 1,20,-1
 334 266 l 1,21,-1
 367 266 l 1,22,-1
 400 266 l 1,23,-1
 400 233 l 1,24,-1
 400 199 l 1,25,-1
 633 199 l 1,26,-1
 666 199 l 1,27,-1
 666 166 l 1,28,-1
 666 133 l 1,29,-1
 633 133 l 1,30,-1
 400 133 l 1,31,-1
 367 133 l 1,32,-1
 334 133 l 1,33,-1
 100 133 l 1,34,-1
 67 133 l 1,35,-1
 67 166 l 1,16,-1
EndSplineSet
Ligature2: "Vdenpabu subtable" denpabu aibu
Substitution2: "Single Substitution lookup 80 subtable" aibu.cvc
Substitution2: "Single Substitution lookup 68 subtable" aibu.ccv
Substitution2: "Single Substitution lookup 62 subtable" aibu.cv
Substitution2: "Single Substitution lookup 58 subtable" aibu.cvc
Ligature2: "diphthongs subtable" abu ibu
EndChar

StartChar: aubu
Encoding: 29 60285 29
Width: 733
VWidth: 230
Flags: W
HStem: 133 66<133 600> 267 66<285.349 449.358> 667 66<285.349 449.358>
VStem: 67 66<-67 133> 134 66<418.049 581.951> 533 66<416.846 583.154> 600 66<-67 133>
LayerCount: 2
Back
Refer: 83 -1 N 1 0 0 1 0 0 2
Refer: 31 60287 N 1 0 0 1 0 0 2
Fore
SplineSet
200 500 m 128,-1,1
 200 431 200 431 249 382 c 128,-1,2
 298 333 298 333 367 333 c 128,-1,3
 436 333 436 333 484.5 381.5 c 128,-1,4
 533 430 533 430 533 500 c 128,-1,5
 533 570 533 570 484.5 618.5 c 128,-1,6
 436 667 436 667 367 667 c 128,-1,7
 298 667 298 667 249 618 c 128,-1,0
 200 569 200 569 200 500 c 128,-1,1
134 500 m 128,-1,9
 134 597 134 597 202.5 665 c 128,-1,10
 271 733 271 733 367 733 c 128,-1,11
 463 733 463 733 531 665 c 128,-1,12
 599 597 599 597 599 500 c 128,-1,13
 599 403 599 403 531 335 c 128,-1,14
 463 267 463 267 367 267 c 128,-1,15
 271 267 271 267 202.5 335 c 128,-1,8
 134 403 134 403 134 500 c 128,-1,9
633 -67 m 1,16,-1
 600 -67 l 1,17,-1
 600 -34 l 1,18,-1
 600 133 l 1,19,-1
 133 133 l 1,20,-1
 133 -34 l 1,21,-1
 133 -67 l 1,22,-1
 100 -67 l 1,23,-1
 67 -67 l 1,24,-1
 67 -34 l 1,25,-1
 67 166 l 2,26,27
 67 178 67 178 76.5 188.5 c 128,-1,28
 86 199 86 199 100 199 c 2,29,-1
 633 199 l 2,30,31
 645 199 645 199 655.5 189.5 c 128,-1,32
 666 180 666 180 666 166 c 2,33,-1
 666 -34 l 1,34,-1
 666 -67 l 1,35,-1
 633 -67 l 1,16,-1
EndSplineSet
Ligature2: "Vdenpabu subtable" denpabu aubu
Substitution2: "Single Substitution lookup 80 subtable" aubu.cvc
Substitution2: "Single Substitution lookup 68 subtable" aubu.ccv
Substitution2: "Single Substitution lookup 62 subtable" aubu.cv
Substitution2: "Single Substitution lookup 58 subtable" aubu.cvc
Ligature2: "diphthongs subtable" abu ubu
EndChar

StartChar: denpabu
Encoding: 31 60287 31
Width: 733
VWidth: 230
Flags: W
HStem: 267 66<285.349 449.358> 667 66<285.349 449.358>
VStem: 134 66<418.049 581.951> 533 66<416.846 583.154>
AnchorPoint: "Above" 0 0 basechar 0
LayerCount: 2
Back
SplineSet
167 500 m 4,0,1
 167 583 167 583 225.5 641.5 c 0
 284 700 284 700 367 700 c 0,2,3
 450 700 450 700 508 641.5 c 0
 566 583 566 583 566 500 c 0,4,5
 566 417 566 417 508 358.5 c 0
 450 300 450 300 367 300 c 0,6,7
 284 300 284 300 225.5 358.5 c 0
 167 417 167 417 167 500 c 4,0,1
EndSplineSet
Fore
SplineSet
200 500 m 128,-1,1
 200 431 200 431 249 382 c 128,-1,2
 298 333 298 333 367 333 c 128,-1,3
 436 333 436 333 484.5 381.5 c 128,-1,4
 533 430 533 430 533 500 c 128,-1,5
 533 570 533 570 484.5 618.5 c 128,-1,6
 436 667 436 667 367 667 c 128,-1,7
 298 667 298 667 249 618 c 128,-1,0
 200 569 200 569 200 500 c 128,-1,1
134 500 m 128,-1,9
 134 597 134 597 202.5 665 c 128,-1,10
 271 733 271 733 367 733 c 128,-1,11
 463 733 463 733 531 665 c 128,-1,12
 599 597 599 597 599 500 c 128,-1,13
 599 403 599 403 531 335 c 128,-1,14
 463 267 463 267 367 267 c 128,-1,15
 271 267 271 267 202.5 335 c 128,-1,8
 134 403 134 403 134 500 c 128,-1,9
EndSplineSet
Substitution2: "Single Substitution lookup 77 subtable" denpabu.cvc.1
Substitution2: "Single Substitution lookup 75 subtable" denpabu.cvc.3
Substitution2: "Single Substitution lookup 66 subtable" denpabu.ccv.1
EndChar

StartChar: ebu.cv
Encoding: 42 -1 32
Width: 0
VWidth: 230
Flags: W
HStem: 133 66<133 666>
VStem: 67 66<-67 133>
AnchorPoint: "Above" 0 0 mark 0
LayerCount: 2
Back
SplineSet
633 166 m 29,0,-1
 100 166 l 1,1,-1
 100 -34 l 1025
EndSplineSet
Fore
SplineSet
666 166 m 1,0,-1
 666 133 l 1,1,-1
 633 133 l 1,2,-1
 133 133 l 1,3,-1
 133 -34 l 1,4,-1
 133 -67 l 1,5,-1
 100 -67 l 1,6,-1
 67 -67 l 1,7,-1
 67 -34 l 1,8,-1
 67 166 l 2,9,10
 67 178 67 178 76.5 188.5 c 128,-1,11
 86 199 86 199 100 199 c 2,12,-1
 633 199 l 1,13,-1
 666 199 l 1,14,-1
 666 166 l 1,0,-1
EndSplineSet
Substitution2: "Single Substitution lookup 69 subtable" ebu.ccv
Substitution2: "Single Substitution lookup 73 subtable" ebu.cvc
EndChar

StartChar: obu.cv
Encoding: 43 -1 33
Width: 0
VWidth: 230
Flags: W
HStem: 133 66<67 600>
VStem: 600 66<-67 133>
AnchorPoint: "Above" 0 0 mark 0
LayerCount: 2
Back
SplineSet
100 166 m 29,0,-1
 633 166 l 1,1,-1
 633 -34 l 1025
EndSplineSet
Fore
SplineSet
67 166 m 1,0,-1
 67 199 l 1,1,-1
 100 199 l 1,2,-1
 633 199 l 2,3,4
 647 199 647 199 656.5 188.5 c 128,-1,5
 666 178 666 178 666 166 c 2,6,-1
 666 -34 l 1,7,-1
 666 -67 l 1,8,-1
 633 -67 l 1,9,-1
 600 -67 l 1,10,-1
 600 -34 l 1,11,-1
 600 133 l 1,12,-1
 100 133 l 1,13,-1
 67 133 l 1,14,-1
 67 166 l 1,0,-1
EndSplineSet
Substitution2: "Single Substitution lookup 73 subtable" obu.cvc
Substitution2: "Single Substitution lookup 69 subtable" obu.ccv
EndChar

StartChar: ibu.cv
Encoding: 44 -1 34
Width: 0
VWidth: 230
Flags: W
HStem: -1 21G<334 400> 133 66<133 334 400 667>
VStem: 67 66<-67 133> 334 66<-1 133>
AnchorPoint: "Above" 0 0 mark 0
LayerCount: 2
Back
SplineSet
367 165 m 5,0,-1
 367 32 l 1025
634 166 m 5,2,-1
 100 166 l 1,3,-1
 100 -34 l 1025
EndSplineSet
Fore
SplineSet
667 166 m 1,0,-1
 667 133 l 1,1,-1
 634 133 l 1,2,-1
 400 133 l 1,3,-1
 400 32 l 1,4,-1
 400 -1 l 1,5,-1
 367 -1 l 1,6,-1
 334 -1 l 1,7,-1
 334 32 l 1,8,-1
 334 133 l 1,9,-1
 133 133 l 1,10,-1
 133 -34 l 1,11,-1
 133 -67 l 1,12,-1
 100 -67 l 1,13,-1
 67 -67 l 1,14,-1
 67 -34 l 1,15,-1
 67 166 l 2,16,17
 67 178 67 178 76.5 188.5 c 128,-1,18
 86 199 86 199 100 199 c 2,19,-1
 634 199 l 1,20,-1
 667 199 l 1,21,-1
 667 166 l 1,0,-1
EndSplineSet
Substitution2: "Single Substitution lookup 73 subtable" ibu.cvc
Substitution2: "Single Substitution lookup 69 subtable" ibu.ccv
EndChar

StartChar: ny.cvc.1
Encoding: 32 -1 35
Width: 733
VWidth: 230
Flags: W
HStem: 467 66<265.991 466.991> 600 66<265.996 466.994> 734 66<265.999 466.999>
VStem: 200 65.9975<533 600 666 734> 466.998 66.0006<533 600 666 734>
AnchorPoint: "Above" 0 0 basechar 0
LayerCount: 2
Back
SplineSet
233 767 m 5,0,-1
 500 767 l 1,1,-1
 499.990234375 500 l 1,2,-1
 232.990234375 500 l 1,3,-1
 233 767 l 5,0,-1
233 633 m 5,4,-1
 500 633 l 1025
EndSplineSet
Fore
SplineSet
233 800 m 2,0,-1
 500 800 l 2,1,2
 514.056386936 800 514.056386936 800 523.528406792 789.332143076 c 128,-1,3
 533.000426648 778.664286151 533.000426648 778.664286151 532.999999978 766.998793013 c 0,4,5
 532.999999978 750.165660845 532.999999978 750.165660845 532.998152943 716.499396506 c 0,6,7
 532.996341405 682.499798836 532.996341405 682.499798836 532.996305909 665.999999999 c 1,8,-1
 533 633 l 1,9,-1
 533 600 l 2,10,11
 532.993891935 583.333132169 532.993891935 583.333132169 532.992063144 549.999396507 c 128,-1,12
 532.990234353 516.665660845 532.990234353 516.665660845 532.990234353 499.998793014 c 0,13,14
 532.989733625 486.308500722 532.989733625 486.308500722 522.882298275 476.654250361 c 128,-1,15
 512.774862924 467 512.774862924 467 499.990234375 467 c 2,16,-1
 232.990234375 467 l 2,17,18
 218.933847439 467 218.933847439 467 209.461827583 477.667856924 c 128,-1,19
 199.989807727 488.335713849 199.989807727 488.335713849 199.990234397 500.001206987 c 2,20,-1
 200.000000022 767.001206987 l 2,21,22
 200.00050075 780.691499278 200.00050075 780.691499278 210.1079361 790.345749639 c 128,-1,23
 220.215371451 800 220.215371451 800 233 800 c 2,0,-1
466.996305865 666 m 1,24,25
 466.996305865 677.333333334 466.996305865 677.333333334 466.997549428 700 c 0,26,27
 466.998758013 723.000000001 466.998758013 723.000000001 466.998792991 734.000000001 c 1,28,-1
 265.998793035 734 l 1,29,30
 265.998793035 722.666666666 265.998793035 722.666666666 265.997549472 700 c 0,31,32
 265.996340887 676.999999999 265.996340887 676.999999999 265.996305909 665.999999999 c 1,33,-1
 466.996305865 666 l 1,24,25
466.99389189 600 m 1,34,-1
 265.993891935 600 l 1,35,36
 265.993891935 588.833333334 265.993891935 588.833333334 265.99266666 566.5 c 128,-1,37
 265.991441384 544.166666667 265.991441384 544.166666667 265.991441384 533.000000001 c 1,38,-1
 466.99144134 533 l 1,39,40
 466.99144134 544.166666667 466.99144134 544.166666667 466.992666615 566.5 c 128,-1,41
 466.99389189 588.833333333 466.99389189 588.833333333 466.99389189 600 c 1,34,-1
EndSplineSet
EndChar

StartChar: ny.ccv.1
Encoding: 96 -1 36
Width: 867
VWidth: 230
Flags: W
HStem: 267 66<132.991 333.991> 400 66<132.996 333.994> 534 66<132.999 333.999>
VStem: 67 65.9961<333 400 466 534> 333.996 66<333 400 466 534>
AnchorPoint: "Above" 0 0 basechar 0
LayerCount: 2
Back
Refer: 35 -1 S 1 0 0 1 -133 -200 2
Fore
SplineSet
100 600 m 2,0,-1
 367 600 l 2,1,2
 381.056640625 600 381.056640625 600 390.528320312 589.33203125 c 128,-1,3
 400 578.6640625 400 578.6640625 400 566.999023438 c 0,4,5
 400 550.166015625 400 550.166015625 399.998046875 516.499023438 c 0,6,7
 399.99609375 482.5 399.99609375 482.5 399.99609375 466 c 1,8,-1
 400 433 l 1,9,-1
 400 400 l 2,10,11
 399.994140625 383.333007812 399.994140625 383.333007812 399.9921875 349.999023438 c 128,-1,12
 399.990234375 316.666015625 399.990234375 316.666015625 399.990234375 299.999023438 c 0,13,14
 399.989257812 286.30859375 399.989257812 286.30859375 389.881835938 276.654296875 c 128,-1,15
 379.774414062 267 379.774414062 267 366.990234375 267 c 2,16,-1
 99.990234375 267 l 2,17,18
 85.93359375 267 85.93359375 267 76.4619140625 277.66796875 c 128,-1,19
 66.990234375 288.3359375 66.990234375 288.3359375 66.990234375 300.000976562 c 2,20,-1
 67 567.000976562 l 2,21,22
 67.0009765625 580.69140625 67.0009765625 580.69140625 77.1083984375 590.345703125 c 128,-1,23
 87.2158203125 600 87.2158203125 600 100 600 c 2,0,-1
333.99609375 466 m 1,24,25
 333.99609375 477.333007812 333.99609375 477.333007812 333.997070312 500 c 0,26,27
 333.999023438 523 333.999023438 523 333.999023438 534 c 1,28,-1
 132.999023438 534 l 1,29,30
 132.999023438 522.666992188 132.999023438 522.666992188 132.997070312 500 c 0,31,32
 132.99609375 477 132.99609375 477 132.99609375 466 c 1,33,-1
 333.99609375 466 l 1,24,25
333.994140625 400 m 1,34,-1
 132.994140625 400 l 1,35,36
 132.994140625 388.833007812 132.994140625 388.833007812 132.9921875 366.5 c 128,-1,37
 132.991210938 344.166992188 132.991210938 344.166992188 132.991210938 333 c 1,38,-1
 333.991210938 333 l 1,39,40
 333.991210938 344.166992188 333.991210938 344.166992188 333.9921875 366.5 c 128,-1,41
 333.994140625 388.833007812 333.994140625 388.833007812 333.994140625 400 c 1,34,-1
EndSplineSet
EndChar

StartChar: ny.ccv.2
Encoding: 128 -1 37
Width: 0
VWidth: 230
Flags: W
HStem: 267 66<532.991 733.991> 400 66<532.996 733.994> 534 66<532.999 733.999>
VStem: 467 65.9961<333 400 466 534> 733.996 66<333 400 466 534>
AnchorPoint: "Above" 0 0 mark 0
LayerCount: 2
Back
Refer: 35 -1 N 1 0 0 1 267 -199 2
Fore
SplineSet
500 600 m 2,0,-1
 767 600 l 2,1,2
 781.056640625 600 781.056640625 600 790.528320312 589.33203125 c 128,-1,3
 800 578.6640625 800 578.6640625 800 566.999023438 c 0,4,5
 800 550.166015625 800 550.166015625 799.998046875 516.499023438 c 0,6,7
 799.99609375 482.5 799.99609375 482.5 799.99609375 466 c 1,8,-1
 800 433 l 1,9,-1
 800 400 l 2,10,11
 799.994140625 383.333007812 799.994140625 383.333007812 799.9921875 349.999023438 c 128,-1,12
 799.990234375 316.666015625 799.990234375 316.666015625 799.990234375 299.999023438 c 0,13,14
 799.989257812 286.30859375 799.989257812 286.30859375 789.881835938 276.654296875 c 128,-1,15
 779.774414062 267 779.774414062 267 766.990234375 267 c 2,16,-1
 499.990234375 267 l 2,17,18
 485.93359375 267 485.93359375 267 476.461914062 277.66796875 c 128,-1,19
 466.990234375 288.3359375 466.990234375 288.3359375 466.990234375 300.000976562 c 2,20,-1
 467 567.000976562 l 2,21,22
 467.000976562 580.69140625 467.000976562 580.69140625 477.108398438 590.345703125 c 128,-1,23
 487.215820312 600 487.215820312 600 500 600 c 2,0,-1
733.99609375 466 m 1,24,25
 733.99609375 477.333007812 733.99609375 477.333007812 733.997070312 500 c 0,26,27
 733.999023438 523 733.999023438 523 733.999023438 534 c 1,28,-1
 532.999023438 534 l 1,29,30
 532.999023438 522.666992188 532.999023438 522.666992188 532.997070312 500 c 0,31,32
 532.99609375 477 532.99609375 477 532.99609375 466 c 1,33,-1
 733.99609375 466 l 1,24,25
733.994140625 400 m 1,34,-1
 532.994140625 400 l 1,35,36
 532.994140625 388.833007812 532.994140625 388.833007812 532.9921875 366.5 c 128,-1,37
 532.991210938 344.166992188 532.991210938 344.166992188 532.991210938 333 c 1,38,-1
 733.991210938 333 l 1,39,40
 733.991210938 344.166992188 733.991210938 344.166992188 733.9921875 366.5 c 128,-1,41
 733.994140625 388.833007812 733.994140625 388.833007812 733.994140625 400 c 1,34,-1
EndSplineSet
EndChar

StartChar: ebu.ccv
Encoding: 106 -1 38
Width: 0
VWidth: 230
Flags: W
HStem: 133 66<133 800>
VStem: 67 66<-67 133>
AnchorPoint: "Above" 0 0 mark 0
LayerCount: 2
Back
SplineSet
767 166 m 5,0,-1
 100 166 l 1,1,-1
 100 -34 l 1025
EndSplineSet
Fore
SplineSet
800 166 m 1,0,-1
 800 133 l 1,1,-1
 767 133 l 1,2,-1
 133 133 l 1,3,-1
 133 -34 l 1,4,-1
 133 -67 l 1,5,-1
 100 -67 l 1,6,-1
 67 -67 l 1,7,-1
 67 -34 l 1,8,-1
 67 166 l 2,9,10
 67 178 67 178 76.5 188.5 c 128,-1,11
 86 199 86 199 100 199 c 2,12,-1
 767 199 l 1,13,-1
 800 199 l 1,14,-1
 800 166 l 1,0,-1
EndSplineSet
Substitution2: "Single Substitution lookup 69 subtable" ebu.ccv
Substitution2: "Single Substitution lookup 73 subtable" ebu.cvc
EndChar

StartChar: ry.ccv.2
Encoding: 137 -1 39
Width: 0
VWidth: 230
Flags: W
AnchorPoint: "Above" 0 0 mark 0
LayerCount: 2
Back
Refer: 48 -1 S 1 0 0 1 267 -199 2
Fore
SplineSet
476.665039062 591.334960938 m 1,0,-1
 500 614.668945312 l 1,1,-1
 523.334960938 591.334960938 l 1,2,-1
 633.5 481.168945312 l 1,3,-1
 743.665039062 591.334960938 l 1,4,-1
 767 614.668945312 l 1,5,-1
 790.334960938 591.334960938 l 1,6,-1
 813.668945312 568 l 1,7,-1
 790.334960938 544.665039062 l 1,8,-1
 680.168945312 434.5 l 1,9,-1
 790.334960938 324.334960938 l 1,10,-1
 813.668945312 301 l 1,11,-1
 790.334960938 277.665039062 l 1,12,-1
 767 254.331054688 l 1,13,-1
 743.665039062 277.665039062 l 1,14,-1
 633.5 387.831054688 l 1,15,-1
 523.334960938 277.665039062 l 1,16,-1
 500 254.331054688 l 1,17,-1
 476.665039062 277.665039062 l 1,18,-1
 453.331054688 301 l 1,19,-1
 476.665039062 324.334960938 l 1,20,-1
 586.831054688 434.5 l 1,21,-1
 476.665039062 544.665039062 l 1,22,-1
 453.331054688 568 l 1,23,-1
 476.665039062 591.334960938 l 1,0,-1
EndSplineSet
EndChar

StartChar: dy.cvc.1
Encoding: 33 -1 40
Width: 733
VWidth: 230
Flags: W
HStem: 466.01 66<265 534> 601 66<265 532> 734 66<265 534>
VStem: 199 66<532.01 601 667 734>
AnchorPoint: "Above" 0 0 basechar 0
LayerCount: 2
Back
SplineSet
232 634 m 5,0,-1
 499 634 l 1025
501 499.009765625 m 5,2,-1
 232 499.009765625 l 1,3,-1
 232 767 l 1,4,-1
 501 767 l 1025
EndSplineSet
Fore
SplineSet
534 499.009765625 m 1,0,-1
 534 466.009765625 l 1,1,-1
 501 466.009765625 l 1,2,-1
 232 466.009765625 l 2,3,4
 217.943708279 466.009765625 217.943708279 466.009765625 208.471854139 476.677608804 c 128,-1,5
 199 487.345451983 199 487.345451983 199 499.009765625 c 2,6,-1
 199 601 l 1,7,-1
 199 634 l 1,8,-1
 199 667 l 1,9,-1
 199 767 l 2,10,11
 199 781 199 781 209.5 790.5 c 128,-1,12
 220 800 220 800 232 800 c 2,13,-1
 501 800 l 1,14,-1
 534 800 l 1,15,-1
 534 767 l 1,16,-1
 534 734 l 1,17,-1
 501 734 l 1,18,-1
 265 734 l 1,19,-1
 265 667 l 1,20,-1
 499 667 l 1,21,-1
 532 667 l 1,22,-1
 532 634 l 1,23,-1
 532 601 l 1,24,-1
 499 601 l 1,25,-1
 265 601 l 1,26,-1
 265 532.009765625 l 1,27,-1
 501 532.009765625 l 1,28,-1
 534 532.009765625 l 1,29,-1
 534 499.009765625 l 1,0,-1
EndSplineSet
EndChar

StartChar: ty.cvc.1
Encoding: 34 -1 41
Width: 733
VWidth: 230
Flags: W
HStem: 467 66<199 467> 601 66<199 467> 734 66<199 467>
VStem: 467 66<533 601 667 734>
AnchorPoint: "Above" 0 0 basechar 0
LayerCount: 2
Back
SplineSet
499 634 m 5,0,-1
 232 634 l 1025
232 767 m 5,2,-1
 500 767 l 1,3,-1
 500 500 l 1,4,-1
 232 500 l 1025
EndSplineSet
Fore
SplineSet
199 767 m 1,0,-1
 199 800 l 1,1,-1
 232 800 l 1,2,-1
 500 800 l 2,3,4
 514 800 514 800 523.5 789.5 c 128,-1,5
 533 779 533 779 533 767 c 2,6,-1
 533 500 l 2,7,8
 533 486 533 486 522.5 476.5 c 128,-1,9
 512 467 512 467 500 467 c 2,10,-1
 232 467 l 1,11,-1
 199 467 l 1,12,-1
 199 500 l 1,13,-1
 199 533 l 1,14,-1
 232 533 l 1,15,-1
 467 533 l 1,16,-1
 467 601 l 1,17,-1
 232 601 l 1,18,-1
 199 601 l 1,19,-1
 199 634 l 1,20,-1
 199 667 l 1,21,-1
 232 667 l 1,22,-1
 467 667 l 1,23,-1
 467 734 l 1,24,-1
 232 734 l 1,25,-1
 199 734 l 1,26,-1
 199 767 l 1,0,-1
EndSplineSet
EndChar

StartChar: zy.cvc.1
Encoding: 35 -1 42
Width: 733
VWidth: 230
Flags: W
HStem: 467 66<266 412.776> 600 66<266 427.117>
VStem: 200 66<533 600 666 800>
AnchorPoint: "Above" 0 0 basechar 0
LayerCount: 2
Back
SplineSet
461 633 m 5,0,-1
 236 633 l 1025
233 767 m 5,2,-1
 233 500 l 1,3,-1
 434 500 l 1,4,5
 442 540 442 540 452 573 c 0
 462 606 462 606 479.5 637.5 c 0
 497 669 497 669 504.5 681.5 c 0
 512 694 512 694 537.5 729 c 0
 563 764 563 764 566 768 c 1024
EndSplineSet
Fore
SplineSet
233 800 m 1,0,-1
 266 800 l 1,1,-1
 266 767 l 1,2,-1
 266 666 l 1,3,-1
 456.760370848 666 l 1,4,5
 468.702854565 688.09360983 468.702854565 688.09360983 481.712661964 707.667745943 c 128,-1,6
 494.722469364 727.241882056 494.722469364 727.241882056 514.468605263 753.745310569 c 128,-1,7
 534.214741162 780.248739082 534.214741162 780.248739082 539.111009354 787.130660784 c 2,8,-1
 558.241670137 814.01965143 l 1,9,-1
 585.130660784 794.888990646 l 1,10,-1
 612.01965143 775.758329863 l 1,11,-1
 592.888990646 748.869339216 l 2,12,13
 587.763917821 741.665822474 587.763917821 741.665822474 563.713735689 709.292683087 c 128,-1,14
 539.663553556 676.9195437 539.663553556 676.9195437 532.114997698 664.318154452 c 128,-1,15
 524.566441841 651.716765203 524.566441841 651.716765203 508.517836558 622.51330128 c 128,-1,16
 492.469231276 593.309837357 492.469231276 593.309837357 483.140232258 562.809201956 c 128,-1,17
 473.811233241 532.308566556 473.811233241 532.308566556 466.407244682 493.773404451 c 0,18,19
 464.385195621 483.249348704 464.385195621 483.249348704 455.158236963 475.124674352 c 128,-1,20
 445.931278305 467 445.931278305 467 434 467 c 2,21,-1
 233 467 l 2,22,23
 221 467 221 467 210.5 476.5 c 128,-1,24
 200 486 200 486 200 500 c 2,25,-1
 200 767 l 1,26,-1
 200 800 l 1,27,-1
 233 800 l 1,0,-1
266 600 m 1,28,-1
 266 533 l 1,29,-1
 407.269094131 533 l 1,30,31
 415.573428994 568.394004938 415.573428994 568.394004938 427.116585714 600 c 1,32,-1
 266 600 l 1,28,-1
EndSplineSet
EndChar

StartChar: sy.cvc.1
Encoding: 36 -1 43
Width: 733
VWidth: 230
Flags: W
HStem: 601 66<305.884 467> 734 66<320.224 467>
VStem: 467 66<467 601 667 734>
AnchorPoint: "Above" 0 0 basechar 0
LayerCount: 2
Back
SplineSet
272 634 m 5,0,-1
 497 634 l 1025
500 500 m 5,2,-1
 500 767 l 1,3,-1
 299 767 l 1,4,5
 291 727 291 727 281 694 c 0
 271 661 271 661 253.5 629.5 c 0
 236 598 236 598 228.5 585.5 c 0
 221 573 221 573 195.5 538 c 0
 170 503 170 503 167 499 c 1024
EndSplineSet
Fore
SplineSet
500 467 m 1,0,-1
 467 467 l 1,1,-1
 467 500 l 1,2,-1
 467 601 l 1,3,-1
 276.239825694 601 l 1,4,5
 264.297310712 578.906306512 264.297310712 578.906306512 251.287642482 559.33236758 c 128,-1,6
 238.277974252 539.758428647 238.277974252 539.758428647 218.531272299 513.254336971 c 128,-1,7
 198.784570346 486.750245295 198.784570346 486.750245295 193.888927719 479.869250769 c 2,8,-1
 174.758178488 452.98032305 l 1,9,-1
 147.869250769 472.111072281 l 1,10,-1
 120.98032305 491.241821512 l 1,11,-1
 140.111072281 518.130749231 l 2,12,13
 145.235342381 525.333087554 145.235342381 525.333087554 169.28626645 557.707101461 c 128,-1,14
 193.337190518 590.081115368 193.337190518 590.081115368 200.885238172 602.681833413 c 128,-1,15
 208.433285826 615.282551458 208.433285826 615.282551458 224.48219404 644.486435359 c 128,-1,16
 240.531102254 673.69031926 240.531102254 673.69031926 249.859960797 704.190841475 c 128,-1,17
 259.188819341 734.691363691 259.188819341 734.691363691 266.592745036 773.226542034 c 0,18,19
 268.614784786 783.750643114 268.614784786 783.750643114 277.841748338 791.875321557 c 128,-1,20
 287.06871189 800 287.06871189 800 299 800 c 2,21,-1
 500 800 l 2,22,23
 512 800 512 800 522.5 790.5 c 128,-1,24
 533 781 533 781 533 767 c 2,25,-1
 533 500 l 1,26,-1
 533 467 l 1,27,-1
 500 467 l 1,0,-1
467 667 m 1,28,-1
 467 734 l 1,29,-1
 325.730948239 734 l 1,30,31
 317.426671059 698.606001835 317.426671059 698.606001835 305.883548919 667 c 1,32,-1
 467 667 l 1,28,-1
EndSplineSet
EndChar

StartChar: gy.cvc.1
Encoding: 37 -1 44
Width: 733
VWidth: 230
Flags: W
VStem: 268.423 210.243
AnchorPoint: "Above" 0 0 basechar 0
LayerCount: 2
Back
SplineSet
432 767 m 5,0,-1
 301 633 l 1,1,-1
 432 500 l 1025
EndSplineSet
Fore
SplineSet
455.068881158 790.597176147 m 1,0,-1
 478.666057305 767.528294988 l 1,1,-1
 455.597176147 743.931118842 l 1,2,-1
 347.234217555 633.086565779 l 1,3,-1
 455.510625822 523.157082577 l 1,4,-1
 478.667708399 499.646456755 l 1,5,-1
 455.157082577 476.489374178 l 1,6,-1
 431.646456755 453.332291601 l 1,7,-1
 408.489374178 476.842917423 l 1,8,-1
 277.489374178 609.842917423 l 2,9,10
 268.943595495 618.51916601 268.943595495 618.51916601 268.423207281 631.984463394 c 128,-1,11
 267.902819066 645.449760779 267.902819066 645.449760779 277.402823853 656.068881158 c 2,12,-1
 408.402823853 790.068881158 l 1,13,-1
 431.471705012 813.666057305 l 1,14,-1
 455.068881158 790.597176147 l 1,0,-1
EndSplineSet
EndChar

StartChar: jy.cvc.1
Encoding: 38 -1 45
Width: 733
VWidth: 230
Flags: W
HStem: 577 66<200 320.98 414.072 533>
VStem: 334 66<468 577>
AnchorPoint: "Above" 0 0 basechar 0
LayerCount: 2
Back
SplineSet
233 610 m 5,0,-1
 500 610 l 1025
367 538 m 5,2,-1
 367 501 l 1025
233 767 m 4,4,5
 258 767 258 767 278 760.5 c 0
 298 754 298 754 311.5 739.5 c 0
 325 725 325 725 335 712 c 0
 345 699 345 699 351 675.5 c 0
 357 652 357 652 360.5 639 c 0
 364 626 364 626 365 600 c 0
 366 574 366 574 366.5 567 c 0
 367 560 367 560 367 538 c 1,6,7
 369.314442607 634.052093455 369.314442607 634.052093455 381.943559623 674.507785429 c 0
 410.816999772 767 410.816999772 767 500 767 c 1024
EndSplineSet
Fore
SplineSet
201.221486223 775.895283141 m 1,0,-1
 210.116769364 807.673796917 l 1,1,-1
 241.895283141 798.778513777 l 2,2,3
 327.850015836 774.718493539 327.850015836 774.718493539 367.949368405 700.262527729 c 1,4,5
 407.151095579 769.974149791 407.151095579 769.974149791 489.270899223 798.20715297 c 2,6,-1
 520.478052194 808.936253747 l 1,7,-1
 531.20715297 777.729100777 l 1,8,-1
 541.936253747 746.521947806 l 1,9,-1
 510.729100777 735.79284703 l 2,10,11
 437.897354651 710.753102306 437.897354651 710.753102306 414.071699265 643 c 1,12,-1
 500 643 l 1,13,-1
 533 643 l 1,14,-1
 533 610 l 1,15,-1
 533 577 l 1,16,-1
 500 577 l 1,17,-1
 401.608770981 577 l 1,18,19
 400.621887806 563.437666564 400.621887806 563.437666564 400 537.602696002 c 2,20,-1
 400 501 l 1,21,-1
 400 468 l 1,22,-1
 367 468 l 1,23,-1
 334 468 l 1,24,-1
 334 501 l 1,25,-1
 334 537.847490676 l 2,26,27
 333.779753774 561.593964642 333.779753774 561.593964642 332.750355184 577 c 1,28,-1
 233 577 l 1,29,-1
 200 577 l 1,30,-1
 200 610 l 1,31,-1
 200 643 l 1,32,-1
 233 643 l 1,33,-1
 320.979510986 643 l 1,34,35
 297.183843809 714.765541353 297.183843809 714.765541353 224.104716859 735.221486223 c 2,36,-1
 192.326203083 744.116769364 l 1,37,-1
 201.221486223 775.895283141 l 1,0,-1
EndSplineSet
EndChar

StartChar: xy.cvc.1
Encoding: 39 -1 46
Width: 733
VWidth: 230
Flags: W
VStem: 335 66<596.082 800>
AnchorPoint: "Above" 0 0 basechar 0
LayerCount: 2
Back
SplineSet
368 707 m 5,0,-1
 368 767 l 1025
500 500 m 4,2,3
 453 519 453 519 426.5 540 c 0
 400 561 400 561 383.5 602 c 0
 367 643 367 643 368 707 c 1,4,5
 368 674 368 674 366 650.5 c 0
 364 627 364 627 355 607 c 0
 346 587 346 587 339 575.5 c 0
 332 564 332 564 312 549 c 0
 292 534 292 534 279 526 c 0
 266 518 266 518 233 500 c 1024
EndSplineSet
Fore
SplineSet
530.545022795 487.509940656 m 1,0,-1
 518.054963451 456.96491786 l 1,1,-1
 487.509940656 469.454977205 l 2,2,3
 401.101298125 504.788035564 401.101298125 504.788035564 367.308232492 558.927817264 c 1,4,5
 355.299166731 542.189864552 355.299166731 542.189864552 336.823365753 526.917547233 c 128,-1,6
 318.347564775 511.645229914 318.347564775 511.645229914 303.799087484 502.725626043 c 128,-1,7
 289.250610193 493.806022173 289.250610193 493.806022173 259.793876472 477.223167328 c 0,8,9
 252.815104161 473.294423248 252.815104161 473.294423248 249.244546746 471.275190148 c 2,10,-1
 220.519736894 455.030643402 l 1,11,-1
 204.275190148 483.755453254 l 1,12,-1
 188.030643402 512.480263106 l 1,13,-1
 216.755453254 528.724809852 l 2,14,15
 280.524921955 564.787924652 280.524921955 564.787924652 300.743609625 582.251974852 c 128,-1,16
 320.962297295 599.716025053 320.962297295 599.716025053 328.771801511 632.615766743 c 0,17,18
 334.432761643 656.464159794 334.432761643 656.464159794 334.960066785 694.941851233 c 0,19,20
 334.907899905 701.04132231 334.907899905 701.04132231 335 707.248728492 c 2,21,-1
 335 767 l 1,22,-1
 335 800 l 1,23,-1
 368 800 l 1,24,-1
 401 800 l 1,25,-1
 401 767 l 1,26,-1
 401 707.091184361 l 1,27,-1
 401 699.07007699 l 1,28,-1
 401 692.319376382 l 2,29,30
 401.591417641 658.242971143 401.591417641 658.242971143 407.61175101 633.221734298 c 0,31,32
 417.2745728 593.061873074 417.2745728 593.061873074 440.479195711 571.782043254 c 128,-1,33
 463.683818622 550.502213434 463.683818622 550.502213434 512.490059344 530.545022795 c 2,34,-1
 543.03508214 518.054963451 l 1,35,-1
 530.545022795 487.509940656 l 1,0,-1
EndSplineSet
EndChar

StartChar: iy.cvc.1
Encoding: 40 -1 47
Width: 733
VWidth: 230
Flags: W
HStem: 472 60<225 646>
VStem: 165 60<532 862>
AnchorPoint: "Above" 0 0 basechar 0
LayerCount: 2
Back
SplineSet
616.1640625 501.756835938 m 1,0,-1
 194.844726562 501.756835938 l 1,1,-1
 194.844726562 832.208007812 l 1025
EndSplineSet
Fore
SplineSet
646 532 m 1,0,-1
 646 472 l 1,1,-1
 195 472 l 2,2,3
 182 472 182 472 173 481 c 0,4,5
 165 489 165 489 165 502 c 2,6,-1
 165 862 l 1,7,-1
 225 862 l 1,8,-1
 225 532 l 1,9,-1
 646 532 l 1,0,-1
EndSplineSet
EndChar

StartChar: ry.cvc.1
Encoding: 41 -1 48
Width: 733
VWidth: 230
Flags: W
AnchorPoint: "Above" 0 0 basechar 0
LayerCount: 2
Back
SplineSet
500 767 m 29,0,-1
 233 500 l 1025
233 767 m 29,2,-1
 500 500 l 1025
EndSplineSet
Fore
SplineSet
209.665476221 790.334523779 m 1,0,-1
 233 813.669047558 l 1,1,-1
 256.334523779 790.334523779 l 1,2,-1
 366.5 680.169047558 l 1,3,-1
 476.665476221 790.334523779 l 1,4,-1
 500 813.669047558 l 1,5,-1
 523.334523779 790.334523779 l 1,6,-1
 546.669047558 767 l 1,7,-1
 523.334523779 743.665476221 l 1,8,-1
 413.169047558 633.5 l 1,9,-1
 523.334523779 523.334523779 l 1,10,-1
 546.669047558 500 l 1,11,-1
 523.334523779 476.665476221 l 1,12,-1
 500 453.330952442 l 1,13,-1
 476.665476221 476.665476221 l 1,14,-1
 366.5 586.830952442 l 1,15,-1
 256.334523779 476.665476221 l 1,16,-1
 233 453.330952442 l 1,17,-1
 209.665476221 476.665476221 l 1,18,-1
 186.330952442 500 l 1,19,-1
 209.665476221 523.334523779 l 1,20,-1
 319.830952442 633.5 l 1,21,-1
 209.665476221 743.665476221 l 1,22,-1
 186.330952442 767 l 1,23,-1
 209.665476221 790.334523779 l 1,0,-1
EndSplineSet
EndChar

StartChar: my.cvc.1
Encoding: 48 -1 49
Width: 733
VWidth: 230
Flags: W
HStem: 467 66<266 467> 734 66<266 467>
VStem: 200 66<533 734> 467 66<533 734>
AnchorPoint: "Above" 0 0 basechar 0
LayerCount: 2
Back
SplineSet
233 767 m 29,0,-1
 500 767 l 1,1,-1
 500 500 l 1,2,-1
 233 500 l 1,3,-1
 233 767 l 29,0,-1
EndSplineSet
Fore
SplineSet
266 734 m 1,0,-1
 266 533 l 1,1,-1
 467 533 l 1,2,-1
 467 734 l 1,3,-1
 266 734 l 1,0,-1
233 800 m 2,4,-1
 500 800 l 2,5,6
 514 800 514 800 523.5 789.5 c 128,-1,7
 533 779 533 779 533 767 c 2,8,-1
 533 500 l 2,9,10
 533 486 533 486 522.5 476.5 c 128,-1,11
 512 467 512 467 500 467 c 2,12,-1
 233 467 l 2,13,14
 219 467 219 467 209.5 477.5 c 128,-1,15
 200 488 200 488 200 500 c 2,16,-1
 200 767 l 2,17,18
 200 781 200 781 210.5 790.5 c 128,-1,19
 221 800 221 800 233 800 c 2,4,-1
EndSplineSet
EndChar

StartChar: by.cvc.1
Encoding: 49 -1 50
Width: 733
VWidth: 230
Flags: W
HStem: 467 66<266 533> 734 66<266 533>
VStem: 200 66<533 734>
AnchorPoint: "Above" 0 0 basechar 0
LayerCount: 2
Back
SplineSet
500 767 m 29,0,-1
 233 767 l 1,1,-1
 233 500 l 1,2,-1
 500 500 l 1025
EndSplineSet
Fore
SplineSet
533 767 m 1,0,-1
 533 734 l 1,1,-1
 500 734 l 1,2,-1
 266 734 l 1,3,-1
 266 533 l 1,4,-1
 500 533 l 1,5,-1
 533 533 l 1,6,-1
 533 500 l 1,7,-1
 533 467 l 1,8,-1
 500 467 l 1,9,-1
 233 467 l 2,10,11
 221 467 221 467 210.5 476.5 c 128,-1,12
 200 486 200 486 200 500 c 2,13,-1
 200 767 l 2,14,15
 200 779 200 779 209.5 789.5 c 128,-1,16
 219 800 219 800 233 800 c 2,17,-1
 500 800 l 1,18,-1
 533 800 l 1,19,-1
 533 767 l 1,0,-1
EndSplineSet
EndChar

StartChar: py.cvc.1
Encoding: 50 -1 51
Width: 733
VWidth: 230
Flags: W
HStem: 467 66<200 467> 734 66<200 467>
VStem: 467 66<533 734>
AnchorPoint: "Above" 0 0 basechar 0
LayerCount: 2
Back
SplineSet
233 767 m 29,0,-1
 500 767 l 1,1,-1
 500 500 l 1,2,-1
 233 500 l 1025
EndSplineSet
Fore
SplineSet
200 767 m 1,0,-1
 200 800 l 1,1,-1
 233 800 l 1,2,-1
 500 800 l 2,3,4
 514 800 514 800 523.5 789.5 c 128,-1,5
 533 779 533 779 533 767 c 2,6,-1
 533 500 l 2,7,8
 533 486 533 486 522.5 476.5 c 128,-1,9
 512 467 512 467 500 467 c 2,10,-1
 233 467 l 1,11,-1
 200 467 l 1,12,-1
 200 500 l 1,13,-1
 200 533 l 1,14,-1
 233 533 l 1,15,-1
 467 533 l 1,16,-1
 467 734 l 1,17,-1
 233 734 l 1,18,-1
 200 734 l 1,19,-1
 200 767 l 1,0,-1
EndSplineSet
EndChar

StartChar: vy.cvc.1
Encoding: 51 -1 52
Width: 733
VWidth: 230
Flags: W
HStem: 467 66<266 412.698>
VStem: 200 66<533 800>
AnchorPoint: "Above" 0 0 basechar 0
LayerCount: 2
Back
SplineSet
233 767 m 5,0,-1
 233 500 l 1,1,-1
 434 500 l 1,2,3
 442 540 442 540 452 573 c 0
 462 606 462 606 479.5 637.5 c 0
 497 669 497 669 504.5 681.5 c 0
 512 694 512 694 537.5 729 c 0
 563 764 563 764 566 768 c 1024
EndSplineSet
Fore
SplineSet
233 800 m 1,0,-1
 266 800 l 1,1,-1
 266 767 l 1,2,-1
 266 533 l 1,3,-1
 407.269094131 533 l 1,4,5
 416.055255504 570.447603465 416.055255504 570.447603465 427.247257816 601.862264734 c 128,-1,6
 438.439260128 633.276926002 438.439260128 633.276926002 455.26872863 662.714998301 c 128,-1,7
 472.098197132 692.153070601 472.098197132 692.153070601 480.947110952 706.349113156 c 128,-1,8
 489.796024771 720.545155711 489.796024771 720.545155711 512.356669734 750.890696499 c 128,-1,9
 534.917314696 781.236237288 534.917314696 781.236237288 539.111009354 787.130660784 c 2,10,-1
 558.241670137 814.01965143 l 1,11,-1
 585.130660784 794.888990646 l 1,12,-1
 612.01965143 775.758329863 l 1,13,-1
 592.888990646 748.869339216 l 2,14,15
 587.763917821 741.665822474 587.763917821 741.665822474 563.713735689 709.292683087 c 128,-1,16
 539.663553556 676.9195437 539.663553556 676.9195437 532.114997698 664.318154452 c 128,-1,17
 524.566441841 651.716765203 524.566441841 651.716765203 508.517836558 622.51330128 c 128,-1,18
 492.469231276 593.309837357 492.469231276 593.309837357 483.140232258 562.809201956 c 128,-1,19
 473.811233241 532.308566556 473.811233241 532.308566556 466.407244682 493.773404451 c 0,20,21
 464.385195621 483.249348704 464.385195621 483.249348704 455.158236963 475.124674352 c 128,-1,22
 445.931278305 467 445.931278305 467 434 467 c 2,23,-1
 233 467 l 2,24,25
 221 467 221 467 210.5 476.5 c 128,-1,26
 200 486 200 486 200 500 c 2,27,-1
 200 767 l 1,28,-1
 200 800 l 1,29,-1
 233 800 l 1,0,-1
EndSplineSet
EndChar

StartChar: fy.cvc.1
Encoding: 52 -1 53
Width: 733
VWidth: 230
Flags: W
HStem: 734 66<320.302 467>
VStem: 467 66<467 734>
AnchorPoint: "Above" 0 0 basechar 0
LayerCount: 2
Back
SplineSet
500 500 m 5,0,-1
 500 767 l 1,1,-1
 299 767 l 1,2,3
 291 727 291 727 281 694 c 0
 271 661 271 661 253.5 629.5 c 0
 236 598 236 598 228.5 585.5 c 0
 221 573 221 573 195.5 538 c 0
 170 503 170 503 167 499 c 1024
EndSplineSet
Fore
SplineSet
500 467 m 1,0,-1
 467 467 l 1,1,-1
 467 500 l 1,2,-1
 467 734 l 1,3,-1
 325.730948239 734 l 1,4,5
 316.944842289 696.552379798 316.944842289 696.552379798 305.752963914 665.137819929 c 128,-1,6
 294.561085538 633.72326006 294.561085538 633.72326006 277.731307772 604.284763922 c 128,-1,7
 260.901530006 574.846267785 260.901530006 574.846267785 252.05308504 560.650850262 c 128,-1,8
 243.204640073 546.455432738 243.204640073 546.455432738 220.643256614 516.10900645 c 128,-1,9
 198.081873154 485.762580161 198.081873154 485.762580161 193.888927719 479.869250769 c 2,10,-1
 174.758178488 452.98032305 l 1,11,-1
 147.869250769 472.111072281 l 1,12,-1
 120.98032305 491.241821512 l 1,13,-1
 140.111072281 518.130749231 l 2,14,15
 145.235342381 525.333087554 145.235342381 525.333087554 169.28626645 557.707101461 c 128,-1,16
 193.337190518 590.081115368 193.337190518 590.081115368 200.885238172 602.681833413 c 128,-1,17
 208.433285826 615.282551458 208.433285826 615.282551458 224.48219404 644.486435359 c 128,-1,18
 240.531102254 673.69031926 240.531102254 673.69031926 249.859960797 704.190841475 c 128,-1,19
 259.188819341 734.691363691 259.188819341 734.691363691 266.592745036 773.226542034 c 0,20,21
 268.614784786 783.750643114 268.614784786 783.750643114 277.841748338 791.875321557 c 128,-1,22
 287.06871189 800 287.06871189 800 299 800 c 2,23,-1
 500 800 l 2,24,25
 512 800 512 800 522.5 790.5 c 128,-1,26
 533 781 533 781 533 767 c 2,27,-1
 533 500 l 1,28,-1
 533 467 l 1,29,-1
 500 467 l 1,0,-1
EndSplineSet
EndChar

StartChar: ky.cvc.1
Encoding: 53 -1 54
Width: 733
VWidth: 230
Flags: W
VStem: 254.331 212.335
AnchorPoint: "Above" 0 0 basechar 0
LayerCount: 2
Back
SplineSet
301 767 m 5,0,-1
 434 633 l 1,1,-1
 301 500 l 1025
EndSplineSet
Fore
SplineSet
277.753034488 790.421754727 m 1,0,-1
 301.174789214 813.668720239 l 1,1,-1
 324.421754727 790.246965512 l 1,2,-1
 457.421754727 656.246965512 l 2,3,4
 467.042498447 645.936078794 467.042498447 645.936078794 466.665943456 632.27820985 c 128,-1,5
 466.289388464 618.620340905 466.289388464 618.620340905 457.334523779 609.665476221 c 2,6,-1
 324.334523779 476.665476221 l 1,7,-1
 301 453.330952442 l 1,8,-1
 277.665476221 476.665476221 l 1,9,-1
 254.330952442 500 l 1,10,-1
 277.665476221 523.334523779 l 1,11,-1
 387.418184001 633.087231559 l 1,12,-1
 277.578245273 743.753034488 l 1,13,-1
 254.331279761 767.174789214 l 1,14,-1
 277.753034488 790.421754727 l 1,0,-1
EndSplineSet
EndChar

StartChar: cy.cvc.1
Encoding: 54 -1 55
Width: 733
VWidth: 230
Flags: W
HStem: 468 66<200 289.952 442.102 533> 625 66<200 324.762 407.624 533>
VStem: 333 66<691 800>
AnchorPoint: "Above" 0 0 basechar 0
LayerCount: 2
Back
SplineSet
500 658 m 5,0,-1
 233 658 l 1025
366 730 m 5,2,-1
 366 767 l 1025
500 501 m 4,4,5
 475 501 475 501 455 507.5 c 0
 435 514 435 514 421.5 528.5 c 0
 408 543 408 543 398 556 c 0
 388 569 388 569 382 592.5 c 0
 376 616 376 616 372.5 629 c 0
 369 642 369 642 368 668 c 0
 367 694 367 694 366.5 701 c 0
 366 708 366 708 366 730 c 1,6,7
 363.685120385 633.947184295 363.685120385 633.947184295 351.05627538 593.492307838 c 0
 322.182845965 501 322.182845965 501 233 501 c 1024
EndSplineSet
Fore
SplineSet
533 501 m 1,0,-1
 533 468 l 1,1,-1
 500 468 l 2,2,3
 453.394080597 468 453.394080597 468 419.544520253 489.402185223 c 128,-1,4
 385.694959909 510.804370446 385.694959909 510.804370446 366.527540766 545.233654952 c 1,5,6
 324.259898506 468 324.259898506 468 233 468 c 2,7,-1
 200 468 l 1,8,-1
 200 501 l 1,9,-1
 200 534 l 1,10,-1
 233 534 l 2,11,12
 306.230753357 534 306.230753357 534 324.761569605 625 c 1,13,-1
 233 625 l 1,14,-1
 200 625 l 1,15,-1
 200 658 l 1,16,-1
 200 691 l 1,17,-1
 233 691 l 1,18,-1
 331.874066279 691 l 1,19,20
 332.284500271 700.523263761 332.284500271 700.523263761 333 730.396350396 c 2,21,-1
 333 767 l 1,22,-1
 333 800 l 1,23,-1
 366 800 l 1,24,-1
 399 800 l 1,25,-1
 399 767 l 1,26,-1
 399 730.152367954 l 2,27,28
 399.221823116 706.175651854 399.221823116 706.175651854 399.902887613 691 c 1,29,-1
 500 691 l 1,30,-1
 533 691 l 1,31,-1
 533 658 l 1,32,-1
 533 625 l 1,33,-1
 500 625 l 1,34,-1
 407.62437367 625 l 1,35,36
 427.479560762 534 427.479560762 534 500 534 c 2,37,-1
 533 534 l 1,38,-1
 533 501 l 1,0,-1
EndSplineSet
EndChar

StartChar: yhy.cvc.1
Encoding: 55 -1 56
Width: 733
VWidth: 230
Flags: W
VStem: 165 60<565 862> 586 60<473 770>
AnchorPoint: "Above" 0 0 basechar 0
LayerCount: 2
Back
SplineSet
616.009765625 503.009765625 m 1,0,-1
 616.009765625 832.009765625 l 1,1,-1
 195.009765625 503.009765625 l 1,2,-1
 195.009765625 832.009765625 l 1025
EndSplineSet
Fore
SplineSet
646 473 m 1,0,-1
 586 473 l 1,1,-1
 586 770 l 1,2,-1
 213 479 l 2,3,4
 204 472 204 472 188 474 c 128,-1,5
 172 476 172 476 165 486 c 1,6,-1
 165 862 l 1,7,-1
 225 862 l 1,8,-1
 225 565 l 1,9,-1
 611 866 l 1,10,11
 622 867 622 867 635 856 c 0,12,13
 646 846 646 846 646 832 c 2,14,-1
 646 473 l 1,0,-1
EndSplineSet
EndChar

StartChar: uy.cvc.1
Encoding: 56 -1 57
Width: 733
VWidth: 230
Flags: W
HStem: 473 60<165 586>
VStem: 586 60<533 862>
AnchorPoint: "Above" 0 0 basechar 0
LayerCount: 2
Back
SplineSet
616.1640625 832.208007812 m 25,0,-1
 616.1640625 502.756835938 l 1,1,-1
 194.844726562 502.756835938 l 1025
EndSplineSet
Fore
SplineSet
586 862 m 1,0,-1
 646 862 l 1,1,-1
 646 503 l 2,2,3
 646 491 646 491 636 481 c 0,4,5
 628 473 628 473 616 473 c 2,6,-1
 165 473 l 1,7,-1
 165 533 l 1,8,-1
 586 533 l 1,9,-1
 586 862 l 1,0,-1
EndSplineSet
EndChar

StartChar: ly.cvc.1
Encoding: 57 -1 58
Width: 733
VWidth: 230
Flags: W
HStem: 467 66<266 533> 600 66<266 467> 734 66<200 467>
VStem: 200 66<533 600> 467 66<666 734>
AnchorPoint: "Above" 0 0 basechar 0
LayerCount: 2
Back
SplineSet
233 767 m 29,0,-1
 500 767 l 1,1,-1
 500 633 l 1,2,-1
 233 633 l 1,3,-1
 233 500 l 1,4,-1
 500 500 l 1025
EndSplineSet
Fore
SplineSet
200 767 m 1,0,-1
 200 800 l 1,1,-1
 233 800 l 1,2,-1
 500 800 l 2,3,4
 514 800 514 800 523.5 789.5 c 128,-1,5
 533 779 533 779 533 767 c 2,6,-1
 533 633 l 2,7,8
 533 619 533 619 522.5 609.5 c 128,-1,9
 512 600 512 600 500 600 c 2,10,-1
 266 600 l 1,11,-1
 266 533 l 1,12,-1
 500 533 l 1,13,-1
 533 533 l 1,14,-1
 533 500 l 1,15,-1
 533 467 l 1,16,-1
 500 467 l 1,17,-1
 233 467 l 2,18,19
 221 467 221 467 210.5 476.5 c 128,-1,20
 200 486 200 486 200 500 c 2,21,-1
 200 633 l 2,22,23
 200 645 200 645 209.5 655.5 c 128,-1,24
 219 666 219 666 233 666 c 2,25,-1
 467 666 l 1,26,-1
 467 734 l 1,27,-1
 233 734 l 1,28,-1
 200 734 l 1,29,-1
 200 767 l 1,0,-1
EndSplineSet
EndChar

StartChar: dy.ccv.1
Encoding: 97 -1 59
Width: 867
VWidth: 230
Flags: W
HStem: 266.01 66<132 401> 401 66<132 399> 534 66<132 401>
VStem: 66 66<332.01 401 467 534>
AnchorPoint: "Above" 0 0 basechar 0
LayerCount: 2
Back
Refer: 40 -1 N 1 0 0 1 -133 -200 2
Fore
SplineSet
401 299.009765625 m 1,0,-1
 401 266.009765625 l 1,1,-1
 368 266.009765625 l 1,2,-1
 99 266.009765625 l 2,3,4
 84.943359375 266.009765625 84.943359375 266.009765625 75.4716796875 276.677734375 c 128,-1,5
 66 287.345703125 66 287.345703125 66 299.009765625 c 2,6,-1
 66 401 l 1,7,-1
 66 434 l 1,8,-1
 66 467 l 1,9,-1
 66 567 l 2,10,11
 66 581 66 581 76.5 590.5 c 128,-1,12
 87 600 87 600 99 600 c 2,13,-1
 368 600 l 1,14,-1
 401 600 l 1,15,-1
 401 567 l 1,16,-1
 401 534 l 1,17,-1
 368 534 l 1,18,-1
 132 534 l 1,19,-1
 132 467 l 1,20,-1
 366 467 l 1,21,-1
 399 467 l 1,22,-1
 399 434 l 1,23,-1
 399 401 l 1,24,-1
 366 401 l 1,25,-1
 132 401 l 1,26,-1
 132 332.009765625 l 1,27,-1
 368 332.009765625 l 1,28,-1
 401 332.009765625 l 1,29,-1
 401 299.009765625 l 1,0,-1
EndSplineSet
EndChar

StartChar: ty.ccv.1
Encoding: 98 -1 60
Width: 867
VWidth: 230
Flags: W
HStem: 267 66<66 334> 401 66<66 334> 534 66<66 334>
VStem: 334 66<333 401 467 534>
AnchorPoint: "Above" 0 0 basechar 0
LayerCount: 2
Back
Refer: 41 -1 N 1 0 0 1 -133 -200 2
Fore
SplineSet
66 567 m 1,0,-1
 66 600 l 1,1,-1
 99 600 l 1,2,-1
 367 600 l 2,3,4
 381 600 381 600 390.5 589.5 c 128,-1,5
 400 579 400 579 400 567 c 2,6,-1
 400 300 l 2,7,8
 400 286 400 286 389.5 276.5 c 128,-1,9
 379 267 379 267 367 267 c 2,10,-1
 99 267 l 1,11,-1
 66 267 l 1,12,-1
 66 300 l 1,13,-1
 66 333 l 1,14,-1
 99 333 l 1,15,-1
 334 333 l 1,16,-1
 334 401 l 1,17,-1
 99 401 l 1,18,-1
 66 401 l 1,19,-1
 66 434 l 1,20,-1
 66 467 l 1,21,-1
 99 467 l 1,22,-1
 334 467 l 1,23,-1
 334 534 l 1,24,-1
 99 534 l 1,25,-1
 66 534 l 1,26,-1
 66 567 l 1,0,-1
EndSplineSet
EndChar

StartChar: zy.ccv.1
Encoding: 99 -1 61
Width: 867
VWidth: 230
Flags: W
HStem: 267 66<133 334> 401 66<133 334>
VStem: 67 66<333 401 467 598> 334 66<333 401 467 598>
AnchorPoint: "Above" 0 0 basechar 0
LayerCount: 2
Back
SplineSet
360 434 m 5,0,-1
 103 434 l 1025
100 565 m 5,2,-1
 100 300 l 1,3,-1
 367 300 l 1,4,-1
 367 565 l 1025
EndSplineSet
Fore
SplineSet
100 598 m 1,0,-1
 133 598 l 1,1,-1
 133 565 l 1,2,-1
 133 467 l 1,3,-1
 334 467 l 1,4,-1
 334 565 l 1,5,-1
 334 598 l 1,6,-1
 367 598 l 1,7,-1
 400 598 l 1,8,-1
 400 565 l 1,9,-1
 400 300 l 2,10,11
 400 288 400 288 390.5 277.5 c 128,-1,12
 381 267 381 267 367 267 c 2,13,-1
 100 267 l 2,14,15
 88 267 88 267 77.5 276.5 c 128,-1,16
 67 286 67 286 67 300 c 2,17,-1
 67 565 l 1,18,-1
 67 598 l 1,19,-1
 100 598 l 1,0,-1
133 401 m 1,20,-1
 133 333 l 1,21,-1
 334 333 l 1,22,-1
 334 401 l 1,23,-1
 133 401 l 1,20,-1
EndSplineSet
EndChar

StartChar: sy.ccv.1
Encoding: 100 -1 62
Width: 867
VWidth: 230
Flags: W
HStem: 400 66<172.884 334> 533 66<187.224 334>
VStem: 334 66<266 400 466 533>
AnchorPoint: "Above" 0 0 basechar 0
LayerCount: 2
Back
Refer: 43 -1 N 1 0 0 1 -133 -201 2
Fore
SplineSet
367 266 m 1,0,-1
 334 266 l 1,1,-1
 334 299 l 1,2,-1
 334 400 l 1,3,-1
 143.240234375 400 l 1,4,5
 131.296875 377.90625 131.296875 377.90625 118.288085938 358.33203125 c 128,-1,6
 105.278320312 338.758789062 105.278320312 338.758789062 85.53125 312.25390625 c 128,-1,7
 65.7841796875 285.75 65.7841796875 285.75 60.888671875 278.869140625 c 2,8,-1
 41.7578125 251.98046875 l 1,9,-1
 14.869140625 271.111328125 l 1,10,-1
 -12.01953125 290.2421875 l 1,11,-1
 7.111328125 317.130859375 l 2,12,13
 12.2353515625 324.333007812 12.2353515625 324.333007812 36.2861328125 356.70703125 c 128,-1,14
 60.3369140625 389.081054688 60.3369140625 389.081054688 67.884765625 401.681640625 c 128,-1,15
 75.43359375 414.282226562 75.43359375 414.282226562 91.482421875 443.486328125 c 128,-1,16
 107.53125 472.690429688 107.53125 472.690429688 116.860351562 503.190429688 c 128,-1,17
 126.188476562 533.69140625 126.188476562 533.69140625 133.592773438 572.2265625 c 0,18,19
 135.615234375 582.750976562 135.615234375 582.750976562 144.841796875 590.875 c 128,-1,20
 154.068359375 599 154.068359375 599 166 599 c 2,21,-1
 367 599 l 2,22,23
 379 599 379 599 389.5 589.5 c 128,-1,24
 400 580 400 580 400 566 c 2,25,-1
 400 299 l 1,26,-1
 400 266 l 1,27,-1
 367 266 l 1,0,-1
334 466 m 1,28,-1
 334 533 l 1,29,-1
 192.73046875 533 l 1,30,31
 184.426757812 497.606445312 184.426757812 497.606445312 172.883789062 466 c 1,32,-1
 334 466 l 1,28,-1
EndSplineSet
EndChar

StartChar: gy.ccv.1
Encoding: 101 -1 63
Width: 867
VWidth: 230
Flags: W
VStem: 135.423 210.243
AnchorPoint: "Above" 0 0 basechar 0
LayerCount: 2
Back
Refer: 44 -1 N 1 0 0 1 -133 -200 2
Fore
SplineSet
322.069335938 590.59765625 m 1,0,-1
 345.666015625 567.528320312 l 1,1,-1
 322.59765625 543.930664062 l 1,2,-1
 214.234375 433.086914062 l 1,3,-1
 322.510742188 323.157226562 l 1,4,-1
 345.66796875 299.646484375 l 1,5,-1
 322.157226562 276.489257812 l 1,6,-1
 298.646484375 253.33203125 l 1,7,-1
 275.489257812 276.842773438 l 1,8,-1
 144.489257812 409.842773438 l 2,9,10
 135.943359375 418.51953125 135.943359375 418.51953125 135.422851562 431.984375 c 128,-1,11
 134.90234375 445.450195312 134.90234375 445.450195312 144.40234375 456.069335938 c 2,12,-1
 275.40234375 590.069335938 l 1,13,-1
 298.471679688 613.666015625 l 1,14,-1
 322.069335938 590.59765625 l 1,0,-1
EndSplineSet
EndChar

StartChar: jy.ccv.1
Encoding: 102 -1 64
Width: 867
VWidth: 230
Flags: W
HStem: 377 66<67 187.979 281.071 400>
VStem: 201 66<268 377>
AnchorPoint: "Above" 0 0 basechar 0
LayerCount: 2
Back
Refer: 45 -1 S 1 0 0 1 -133 -200 2
Fore
SplineSet
68.2216796875 575.895507812 m 1,0,-1
 77.1171875 607.673828125 l 1,1,-1
 108.895507812 598.778320312 l 2,2,3
 194.849609375 574.71875 194.849609375 574.71875 234.94921875 500.262695312 c 1,4,5
 274.151367188 569.974609375 274.151367188 569.974609375 356.270507812 598.20703125 c 2,6,-1
 387.478515625 608.936523438 l 1,7,-1
 398.20703125 577.729492188 l 1,8,-1
 408.936523438 546.521484375 l 1,9,-1
 377.729492188 535.79296875 l 2,10,11
 304.897460938 510.752929688 304.897460938 510.752929688 281.071289062 443 c 1,12,-1
 367 443 l 1,13,-1
 400 443 l 1,14,-1
 400 410 l 1,15,-1
 400 377 l 1,16,-1
 367 377 l 1,17,-1
 268.608398438 377 l 1,18,19
 267.622070312 363.4375 267.622070312 363.4375 267 337.602539062 c 2,20,-1
 267 301 l 1,21,-1
 267 268 l 1,22,-1
 234 268 l 1,23,-1
 201 268 l 1,24,-1
 201 301 l 1,25,-1
 201 337.84765625 l 2,26,27
 200.779296875 361.59375 200.779296875 361.59375 199.75 377 c 1,28,-1
 100 377 l 1,29,-1
 67 377 l 1,30,-1
 67 410 l 1,31,-1
 67 443 l 1,32,-1
 100 443 l 1,33,-1
 187.979492188 443 l 1,34,35
 164.18359375 514.765625 164.18359375 514.765625 91.1044921875 535.221679688 c 2,36,-1
 59.326171875 544.1171875 l 1,37,-1
 68.2216796875 575.895507812 l 1,0,-1
EndSplineSet
EndChar

StartChar: xy.ccv.1
Encoding: 103 -1 65
Width: 867
VWidth: 230
Flags: W
VStem: 202 66<396.082 600>
AnchorPoint: "Above" 0 0 basechar 0
LayerCount: 2
Back
Refer: 46 -1 N 1 0 0 1 -133 -200 2
Fore
SplineSet
397.544921875 287.509765625 m 1,0,-1
 385.0546875 256.96484375 l 1,1,-1
 354.509765625 269.455078125 l 2,2,3
 268.1015625 304.788085938 268.1015625 304.788085938 234.30859375 358.927734375 c 1,4,5
 222.298828125 342.189453125 222.298828125 342.189453125 203.823242188 326.91796875 c 128,-1,6
 185.34765625 311.645507812 185.34765625 311.645507812 170.798828125 302.725585938 c 128,-1,7
 156.250976562 293.805664062 156.250976562 293.805664062 126.793945312 277.223632812 c 0,8,9
 119.815429688 273.293945312 119.815429688 273.293945312 116.244140625 271.275390625 c 2,10,-1
 87.51953125 255.030273438 l 1,11,-1
 71.275390625 283.755859375 l 1,12,-1
 55.0302734375 312.48046875 l 1,13,-1
 83.755859375 328.724609375 l 2,14,15
 147.525390625 364.788085938 147.525390625 364.788085938 167.743164062 382.251953125 c 128,-1,16
 187.961914062 399.715820312 187.961914062 399.715820312 195.771484375 432.616210938 c 0,17,18
 201.432617188 456.463867188 201.432617188 456.463867188 201.959960938 494.94140625 c 0,19,20
 201.908203125 501.041015625 201.908203125 501.041015625 202 507.249023438 c 2,21,-1
 202 567 l 1,22,-1
 202 600 l 1,23,-1
 235 600 l 1,24,-1
 268 600 l 1,25,-1
 268 567 l 1,26,-1
 268 507.090820312 l 1,27,-1
 268 499.0703125 l 1,28,-1
 268 492.319335938 l 2,29,30
 268.591796875 458.243164062 268.591796875 458.243164062 274.611328125 433.221679688 c 0,31,32
 284.274414062 393.061523438 284.274414062 393.061523438 307.479492188 371.782226562 c 128,-1,33
 330.68359375 350.501953125 330.68359375 350.501953125 379.490234375 330.544921875 c 2,34,-1
 410.03515625 318.0546875 l 1,35,-1
 397.544921875 287.509765625 l 1,0,-1
EndSplineSet
EndChar

StartChar: iy.ccv.1
Encoding: 104 -1 66
Width: 867
VWidth: 230
Flags: W
HStem: 255 60<134 375>
VStem: 74 60<315 862>
AnchorPoint: "Above" 0 0 basechar 0
LayerCount: 2
Back
SplineSet
104.405273438 832.208007812 m 29,0,-1
 104.405273438 284.955078125 l 1,1,-1
 345.064453125 284.955078125 l 1025
EndSplineSet
Fore
SplineSet
74 862 m 1,0,-1
 134 862 l 1,1,-1
 134 315 l 1,2,-1
 375 315 l 1,3,-1
 375 255 l 1,4,-1
 104 255 l 2,5,6
 93 255 93 255 84 264 c 0,7,8
 74 274 74 274 74 285 c 2,9,-1
 74 862 l 1,0,-1
EndSplineSet
EndChar

StartChar: ry.ccv.1
Encoding: 105 -1 67
Width: 867
VWidth: 230
Flags: W
AnchorPoint: "Above" 0 0 basechar 0
LayerCount: 2
Back
Refer: 48 -1 N 1 0 0 1 -133 -201 2
Fore
SplineSet
76.6650390625 589.334960938 m 1,0,-1
 100 612.668945312 l 1,1,-1
 123.334960938 589.334960938 l 1,2,-1
 233.5 479.168945312 l 1,3,-1
 343.665039062 589.334960938 l 1,4,-1
 367 612.668945312 l 1,5,-1
 390.334960938 589.334960938 l 1,6,-1
 413.668945312 566 l 1,7,-1
 390.334960938 542.665039062 l 1,8,-1
 280.168945312 432.5 l 1,9,-1
 390.334960938 322.334960938 l 1,10,-1
 413.668945312 299 l 1,11,-1
 390.334960938 275.665039062 l 1,12,-1
 367 252.331054688 l 1,13,-1
 343.665039062 275.665039062 l 1,14,-1
 233.5 385.831054688 l 1,15,-1
 123.334960938 275.665039062 l 1,16,-1
 100 252.331054688 l 1,17,-1
 76.6650390625 275.665039062 l 1,18,-1
 53.3310546875 299 l 1,19,-1
 76.6650390625 322.334960938 l 1,20,-1
 186.831054688 432.5 l 1,21,-1
 76.6650390625 542.665039062 l 1,22,-1
 53.3310546875 566 l 1,23,-1
 76.6650390625 589.334960938 l 1,0,-1
EndSplineSet
EndChar

StartChar: my.ccv.1
Encoding: 112 -1 68
Width: 867
VWidth: 230
Flags: W
HStem: 267 66<133 334> 534 66<133 334>
VStem: 67 66<333 534> 334 66<333 534>
AnchorPoint: "Above" 0 0 basechar 0
LayerCount: 2
Back
Refer: 49 -1 N 1 0 0 1 -133 -200 2
Fore
SplineSet
133 534 m 1,0,-1
 133 333 l 1,1,-1
 334 333 l 1,2,-1
 334 534 l 1,3,-1
 133 534 l 1,0,-1
100 600 m 2,4,-1
 367 600 l 2,5,6
 381 600 381 600 390.5 589.5 c 128,-1,7
 400 579 400 579 400 567 c 2,8,-1
 400 300 l 2,9,10
 400 286 400 286 389.5 276.5 c 128,-1,11
 379 267 379 267 367 267 c 2,12,-1
 100 267 l 2,13,14
 86 267 86 267 76.5 277.5 c 128,-1,15
 67 288 67 288 67 300 c 2,16,-1
 67 567 l 2,17,18
 67 581 67 581 77.5 590.5 c 128,-1,19
 88 600 88 600 100 600 c 2,4,-1
EndSplineSet
EndChar

StartChar: by.ccv.1
Encoding: 113 -1 69
Width: 867
VWidth: 230
Flags: W
HStem: 267 66<133 400> 534 66<133 400>
VStem: 67 66<333 534>
AnchorPoint: "Above" 0 0 basechar 0
LayerCount: 2
Back
Refer: 50 -1 N 1 0 0 1 -133 -200 2
Fore
SplineSet
400 567 m 1,0,-1
 400 534 l 1,1,-1
 367 534 l 1,2,-1
 133 534 l 1,3,-1
 133 333 l 1,4,-1
 367 333 l 1,5,-1
 400 333 l 1,6,-1
 400 300 l 1,7,-1
 400 267 l 1,8,-1
 367 267 l 1,9,-1
 100 267 l 2,10,11
 88 267 88 267 77.5 276.5 c 128,-1,12
 67 286 67 286 67 300 c 2,13,-1
 67 567 l 2,14,15
 67 579 67 579 76.5 589.5 c 128,-1,16
 86 600 86 600 100 600 c 2,17,-1
 367 600 l 1,18,-1
 400 600 l 1,19,-1
 400 567 l 1,0,-1
EndSplineSet
EndChar

StartChar: py.ccv.1
Encoding: 114 -1 70
Width: 867
VWidth: 230
Flags: W
HStem: 267 66<67 334> 534 66<67 334>
VStem: 334 66<333 534>
AnchorPoint: "Above" 0 0 basechar 0
LayerCount: 2
Back
Refer: 51 -1 N 1 0 0 1 -133 -200 2
Fore
SplineSet
67 567 m 1,0,-1
 67 600 l 1,1,-1
 100 600 l 1,2,-1
 367 600 l 2,3,4
 381 600 381 600 390.5 589.5 c 128,-1,5
 400 579 400 579 400 567 c 2,6,-1
 400 300 l 2,7,8
 400 286 400 286 389.5 276.5 c 128,-1,9
 379 267 379 267 367 267 c 2,10,-1
 100 267 l 1,11,-1
 67 267 l 1,12,-1
 67 300 l 1,13,-1
 67 333 l 1,14,-1
 100 333 l 1,15,-1
 334 333 l 1,16,-1
 334 534 l 1,17,-1
 100 534 l 1,18,-1
 67 534 l 1,19,-1
 67 567 l 1,0,-1
EndSplineSet
EndChar

StartChar: vy.ccv.1
Encoding: 115 -1 71
Width: 867
VWidth: 230
Flags: W
HStem: 267 66<133 334>
VStem: 67 66<333 598> 334 66<333 598>
AnchorPoint: "Above" 0 0 basechar 0
LayerCount: 2
Back
SplineSet
100 565 m 5,0,-1
 100 300 l 1,1,-1
 367 300 l 1,2,-1
 367 565 l 1025
EndSplineSet
Fore
SplineSet
100 598 m 1,0,-1
 133 598 l 1,1,-1
 133 565 l 1,2,-1
 133 333 l 1,3,-1
 334 333 l 1,4,-1
 334 565 l 1,5,-1
 334 598 l 1,6,-1
 367 598 l 1,7,-1
 400 598 l 1,8,-1
 400 565 l 1,9,-1
 400 300 l 2,10,11
 400 288 400 288 390.5 277.5 c 128,-1,12
 381 267 381 267 367 267 c 2,13,-1
 100 267 l 2,14,15
 88 267 88 267 77.5 276.5 c 128,-1,16
 67 286 67 286 67 300 c 2,17,-1
 67 565 l 1,18,-1
 67 598 l 1,19,-1
 100 598 l 1,0,-1
EndSplineSet
EndChar

StartChar: fy.ccv.1
Encoding: 116 -1 72
Width: 867
VWidth: 230
Flags: W
HStem: 534 66<187.302 334>
VStem: 334 66<267 534>
LayerCount: 2
Back
Refer: 53 -1 N 1 0 0 1 -133 -200 2
Fore
SplineSet
367 267 m 1,0,-1
 334 267 l 1,1,-1
 334 300 l 1,2,-1
 334 534 l 1,3,-1
 192.73046875 534 l 1,4,5
 183.9453125 496.552734375 183.9453125 496.552734375 172.752929688 465.137695312 c 128,-1,6
 161.561523438 433.723632812 161.561523438 433.723632812 144.731445312 404.28515625 c 128,-1,7
 127.901367188 374.846679688 127.901367188 374.846679688 119.052734375 360.650390625 c 128,-1,8
 110.205078125 346.455078125 110.205078125 346.455078125 87.6435546875 316.109375 c 128,-1,9
 65.08203125 285.762695312 65.08203125 285.762695312 60.888671875 279.869140625 c 2,10,-1
 41.7578125 252.98046875 l 1,11,-1
 14.869140625 272.111328125 l 1,12,-1
 -12.01953125 291.2421875 l 1,13,-1
 7.111328125 318.130859375 l 2,14,15
 12.2353515625 325.333007812 12.2353515625 325.333007812 36.2861328125 357.70703125 c 128,-1,16
 60.3369140625 390.081054688 60.3369140625 390.081054688 67.884765625 402.681640625 c 128,-1,17
 75.43359375 415.282226562 75.43359375 415.282226562 91.482421875 444.486328125 c 128,-1,18
 107.53125 473.690429688 107.53125 473.690429688 116.860351562 504.190429688 c 128,-1,19
 126.188476562 534.69140625 126.188476562 534.69140625 133.592773438 573.2265625 c 0,20,21
 135.615234375 583.750976562 135.615234375 583.750976562 144.841796875 591.875 c 128,-1,22
 154.068359375 600 154.068359375 600 166 600 c 2,23,-1
 367 600 l 2,24,25
 379 600 379 600 389.5 590.5 c 128,-1,26
 400 581 400 581 400 567 c 2,27,-1
 400 300 l 1,28,-1
 400 267 l 1,29,-1
 367 267 l 1,0,-1
EndSplineSet
EndChar

StartChar: ky.ccv.1
Encoding: 117 -1 73
Width: 867
VWidth: 230
Flags: W
VStem: 121.331 212.335
AnchorPoint: "Above" 0 0 basechar 0
LayerCount: 2
Back
Refer: 54 -1 S 1 0 0 1 -133 -200 2
Fore
SplineSet
144.752929688 590.421875 m 1,0,-1
 168.174804688 613.668945312 l 1,1,-1
 191.421875 590.247070312 l 1,2,-1
 324.421875 456.247070312 l 2,3,4
 334.04296875 445.936523438 334.04296875 445.936523438 333.666015625 432.278320312 c 128,-1,5
 333.2890625 418.620117188 333.2890625 418.620117188 324.334960938 409.665039062 c 2,6,-1
 191.334960938 276.665039062 l 1,7,-1
 168 253.331054688 l 1,8,-1
 144.665039062 276.665039062 l 1,9,-1
 121.331054688 300 l 1,10,-1
 144.665039062 323.334960938 l 1,11,-1
 254.41796875 433.086914062 l 1,12,-1
 144.578125 543.752929688 l 1,13,-1
 121.331054688 567.174804688 l 1,14,-1
 144.752929688 590.421875 l 1,0,-1
EndSplineSet
EndChar

StartChar: cy.ccv.1
Encoding: 118 -1 74
Width: 867
VWidth: 230
Flags: W
HStem: 268 66<67 156.952 309.102 400> 425 66<67 191.762 274.624 400>
VStem: 200 66<491 600>
AnchorPoint: "Above" 0 0 basechar 0
LayerCount: 2
Back
Refer: 55 -1 N 1 0 0 1 -133 -200 2
Fore
SplineSet
400 301 m 1,0,-1
 400 268 l 1,1,-1
 367 268 l 2,2,3
 320.39453125 268 320.39453125 268 286.544921875 289.40234375 c 128,-1,4
 252.6953125 310.8046875 252.6953125 310.8046875 233.52734375 345.233398438 c 1,5,6
 191.259765625 268 191.259765625 268 100 268 c 2,7,-1
 67 268 l 1,8,-1
 67 301 l 1,9,-1
 67 334 l 1,10,-1
 100 334 l 2,11,12
 173.23046875 334 173.23046875 334 191.76171875 425 c 1,13,-1
 100 425 l 1,14,-1
 67 425 l 1,15,-1
 67 458 l 1,16,-1
 67 491 l 1,17,-1
 100 491 l 1,18,-1
 198.874023438 491 l 1,19,20
 199.284179688 500.5234375 199.284179688 500.5234375 200 530.396484375 c 2,21,-1
 200 567 l 1,22,-1
 200 600 l 1,23,-1
 233 600 l 1,24,-1
 266 600 l 1,25,-1
 266 567 l 1,26,-1
 266 530.15234375 l 2,27,28
 266.221679688 506.17578125 266.221679688 506.17578125 266.903320312 491 c 1,29,-1
 367 491 l 1,30,-1
 400 491 l 1,31,-1
 400 458 l 1,32,-1
 400 425 l 1,33,-1
 367 425 l 1,34,-1
 274.624023438 425 l 1,35,36
 294.479492188 334 294.479492188 334 367 334 c 2,37,-1
 400 334 l 1,38,-1
 400 301 l 1,0,-1
EndSplineSet
EndChar

StartChar: yhy.ccv.1
Encoding: 119 -1 75
Width: 867
VWidth: 230
Flags: W
VStem: 74 60<261.221 273 427 862> 315 60<255 690 844 854.718>
AnchorPoint: "Above" 0 0 basechar 0
LayerCount: 2
Back
SplineSet
104.009765625 832.009765625 m 29,0,-1
 104.009765625 285.009765625 l 1,1,-1
 345.009765625 832.009765625 l 1,2,-1
 345.009765625 285.009765625 l 1025
EndSplineSet
Fore
SplineSet
74 862 m 1,0,-1
 134 862 l 1,1,-1
 134 427 l 1,2,-1
 318 844 l 2,3,4
 324 858 324 858 338 861 c 0,5,6
 351 864 351 864 363 855 c 128,-1,7
 375 846 375 846 375 832 c 2,8,-1
 375 255 l 1,9,-1
 315 255 l 1,10,-1
 315 690 l 1,11,-1
 131 273 l 2,12,13
 125 259 125 259 112 256 c 128,-1,14
 99 253 99 253 86 261 c 0,15,16
 74 268 74 268 74 285 c 2,17,-1
 74 862 l 1,0,-1
EndSplineSet
EndChar

StartChar: uy.ccv.1
Encoding: 120 -1 76
Width: 867
VWidth: 230
Flags: W
HStem: 255 60<74 315>
VStem: 315 60<315 862>
AnchorPoint: "Above" 0 0 basechar 0
LayerCount: 2
Back
SplineSet
345.064453125 832.208007812 m 29,0,-1
 345.064453125 284.955078125 l 1,1,-1
 104.405273438 284.955078125 l 1025
EndSplineSet
Fore
SplineSet
315 862 m 1,0,-1
 375 862 l 1,1,-1
 375 285 l 2,2,3
 375 274 375 274 365 264 c 0,4,5
 356 255 356 255 345 255 c 2,6,-1
 74 255 l 1,7,-1
 74 315 l 1,8,-1
 315 315 l 1,9,-1
 315 862 l 1,0,-1
EndSplineSet
EndChar

StartChar: ly.ccv.1
Encoding: 121 -1 77
Width: 867
VWidth: 230
Flags: W
HStem: 267 66<133 400> 400 66<133 334> 534 66<67 334>
VStem: 67 66<333 400> 334 66<466 534>
AnchorPoint: "Above" 0 0 basechar 0
LayerCount: 2
Back
Refer: 58 -1 N 1 0 0 1 -133 -200 2
Fore
SplineSet
67 567 m 1,0,-1
 67 600 l 1,1,-1
 100 600 l 1,2,-1
 367 600 l 2,3,4
 381 600 381 600 390.5 589.5 c 128,-1,5
 400 579 400 579 400 567 c 2,6,-1
 400 433 l 2,7,8
 400 419 400 419 389.5 409.5 c 128,-1,9
 379 400 379 400 367 400 c 2,10,-1
 133 400 l 1,11,-1
 133 333 l 1,12,-1
 367 333 l 1,13,-1
 400 333 l 1,14,-1
 400 300 l 1,15,-1
 400 267 l 1,16,-1
 367 267 l 1,17,-1
 100 267 l 2,18,19
 88 267 88 267 77.5 276.5 c 128,-1,20
 67 286 67 286 67 300 c 2,21,-1
 67 433 l 2,22,23
 67 445 67 445 76.5 455.5 c 128,-1,24
 86 466 86 466 100 466 c 2,25,-1
 334 466 l 1,26,-1
 334 534 l 1,27,-1
 100 534 l 1,28,-1
 67 534 l 1,29,-1
 67 567 l 1,0,-1
EndSplineSet
EndChar

StartChar: denpabu.cvc.1
Encoding: 63 -1 78
Width: 733
VWidth: 230
Flags: W
HStem: 467 66<304.304 427.696> 733 66<304.304 427.696>
VStem: 200 66<571.304 694.696> 466 66<571.304 694.696>
AnchorPoint: "Above" 0 0 basechar 0
LayerCount: 2
Back
SplineSet
233 633 m 4,0,1
 233 688 233 688 272 727 c 0
 311 766 311 766 366 766 c 0,2,3
 421 766 421 766 460 727 c 0
 499 688 499 688 499 633 c 0,4,5
 499 578 499 578 460 539 c 0
 421 500 421 500 366 500 c 0,6,7
 311 500 311 500 272 539 c 0
 233 578 233 578 233 633 c 4,0,1
EndSplineSet
Fore
SplineSet
266 633 m 128,-1,1
 266 592 266 592 295.5 562.5 c 128,-1,2
 325 533 325 533 366 533 c 128,-1,3
 407 533 407 533 436.5 562.5 c 128,-1,4
 466 592 466 592 466 633 c 128,-1,5
 466 674 466 674 436.5 703.5 c 128,-1,6
 407 733 407 733 366 733 c 128,-1,7
 325 733 325 733 295.5 703.5 c 128,-1,0
 266 674 266 674 266 633 c 128,-1,1
200 633 m 128,-1,9
 200 701 200 701 249 750 c 128,-1,10
 298 799 298 799 366 799 c 128,-1,11
 434 799 434 799 483 750 c 128,-1,12
 532 701 532 701 532 633 c 128,-1,13
 532 565 532 565 483 516 c 128,-1,14
 434 467 434 467 366 467 c 128,-1,15
 298 467 298 467 249 516 c 128,-1,8
 200 565 200 565 200 633 c 128,-1,9
EndSplineSet
EndChar

StartChar: ybu.cv
Encoding: 47 -1 79
Width: 0
VWidth: 230
Flags: W
HStem: 0 21G<334 400> 133 66<67 334 400 666>
VStem: 334 66<0 133>
AnchorPoint: "Above" 0 0 mark 0
LayerCount: 2
Back
SplineSet
367 166 m 5,0,-1
 367 33 l 1025
633 166 m 5,2,-1
 100 166 l 1025
EndSplineSet
Fore
SplineSet
666 166 m 1,0,-1
 666 133 l 1,1,-1
 633 133 l 1,2,-1
 400 133 l 1,3,-1
 400 33 l 1,4,-1
 400 0 l 1,5,-1
 367 0 l 1,6,-1
 334 0 l 1,7,-1
 334 33 l 1,8,-1
 334 133 l 1,9,-1
 100 133 l 1,10,-1
 67 133 l 1,11,-1
 67 166 l 1,12,-1
 67 199 l 1,13,-1
 100 199 l 1,14,-1
 334 199 l 1,15,-1
 367 199 l 1,16,-1
 400 199 l 1,17,-1
 633 199 l 1,18,-1
 666 199 l 1,19,-1
 666 166 l 1,0,-1
EndSplineSet
Substitution2: "Single Substitution lookup 73 subtable" ybu.cvc
Substitution2: "Single Substitution lookup 69 subtable" ybu.ccv
EndChar

StartChar: eibu.cv
Encoding: 58 -1 80
Width: 0
VWidth: 230
Flags: W
HStem: 133 133<334 400> 133 66<133 334 400 666>
VStem: 67 66<-67 133> 334 66<199 266>
AnchorPoint: "Above" 0 0 mark 0
LayerCount: 2
Back
SplineSet
367 233 m 5,0,-1
 367 166 l 1025
633 166 m 5,2,-1
 100 166 l 1,3,-1
 100 -34 l 1025
EndSplineSet
Fore
SplineSet
666 166 m 1,0,-1
 666 133 l 1,1,-1
 633 133 l 1,2,-1
 400 133 l 1,3,-1
 367 133 l 1,4,-1
 334 133 l 1,5,-1
 133 133 l 1,6,-1
 133 -34 l 1,7,-1
 133 -67 l 1,8,-1
 100 -67 l 1,9,-1
 67 -67 l 1,10,-1
 67 -34 l 1,11,-1
 67 166 l 2,12,13
 67 178 67 178 76.5 188.5 c 128,-1,14
 86 199 86 199 100 199 c 2,15,-1
 334 199 l 1,16,-1
 334 233 l 1,17,-1
 334 266 l 1,18,-1
 367 266 l 1,19,-1
 400 266 l 1,20,-1
 400 233 l 1,21,-1
 400 199 l 1,22,-1
 633 199 l 1,23,-1
 666 199 l 1,24,-1
 666 166 l 1,0,-1
EndSplineSet
Substitution2: "Single Substitution lookup 73 subtable" eibu.cvc
Substitution2: "Single Substitution lookup 69 subtable" eibu.ccv
EndChar

StartChar: oibu.cv
Encoding: 59 -1 81
Width: 0
VWidth: 230
Flags: W
HStem: 133 133<334 400> 133 66<67 334 400 600>
VStem: 334 66<199 266> 600 66<-67 133>
AnchorPoint: "Above" 0 0 mark 0
LayerCount: 2
Back
SplineSet
367 233 m 5,0,-1
 367 166 l 1025
100 166 m 5,2,-1
 633 166 l 1,3,-1
 633 -34 l 1025
EndSplineSet
Fore
SplineSet
67 166 m 1,0,-1
 67 199 l 1,1,-1
 100 199 l 1,2,-1
 334 199 l 1,3,-1
 334 233 l 1,4,-1
 334 266 l 1,5,-1
 367 266 l 1,6,-1
 400 266 l 1,7,-1
 400 233 l 1,8,-1
 400 199 l 1,9,-1
 633 199 l 2,10,11
 647 199 647 199 656.5 188.5 c 128,-1,12
 666 178 666 178 666 166 c 2,13,-1
 666 -34 l 1,14,-1
 666 -67 l 1,15,-1
 633 -67 l 1,16,-1
 600 -67 l 1,17,-1
 600 -34 l 1,18,-1
 600 133 l 1,19,-1
 400 133 l 1,20,-1
 367 133 l 1,21,-1
 334 133 l 1,22,-1
 100 133 l 1,23,-1
 67 133 l 1,24,-1
 67 166 l 1,0,-1
EndSplineSet
Substitution2: "Single Substitution lookup 73 subtable" oibu.cvc
Substitution2: "Single Substitution lookup 69 subtable" oibu.ccv
EndChar

StartChar: aibu.cv
Encoding: 60 -1 82
Width: 0
VWidth: 230
Flags: W
HStem: 133 133<334 400> 133 66<67 334 400 666>
VStem: 334 66<199 266>
AnchorPoint: "Above" 0 0 mark 0
LayerCount: 2
Back
SplineSet
367 233 m 5,0,-1
 367 166 l 1025
100 166 m 5,2,-1
 633 166 l 1025
EndSplineSet
Fore
SplineSet
67 166 m 1,0,-1
 67 199 l 1,1,-1
 100 199 l 1,2,-1
 334 199 l 1,3,-1
 334 233 l 1,4,-1
 334 266 l 1,5,-1
 367 266 l 1,6,-1
 400 266 l 1,7,-1
 400 233 l 1,8,-1
 400 199 l 1,9,-1
 633 199 l 1,10,-1
 666 199 l 1,11,-1
 666 166 l 1,12,-1
 666 133 l 1,13,-1
 633 133 l 1,14,-1
 400 133 l 1,15,-1
 367 133 l 1,16,-1
 334 133 l 1,17,-1
 100 133 l 1,18,-1
 67 133 l 1,19,-1
 67 166 l 1,0,-1
EndSplineSet
Substitution2: "Single Substitution lookup 73 subtable" aibu.cvc
Substitution2: "Single Substitution lookup 69 subtable" aibu.ccv
EndChar

StartChar: aubu.cv
Encoding: 61 -1 83
Width: 0
VWidth: 230
Flags: W
HStem: 133 66<133 600>
VStem: 67 66<-67 133> 600 66<-67 133>
AnchorPoint: "Above" 0 0 mark 0
LayerCount: 2
Back
SplineSet
633 -34 m 5,0,-1
 633 166 l 1,1,-1
 100 166 l 1,2,-1
 100 -34 l 1025
EndSplineSet
Fore
SplineSet
633 -67 m 1,0,-1
 600 -67 l 1,1,-1
 600 -34 l 1,2,-1
 600 133 l 1,3,-1
 133 133 l 1,4,-1
 133 -34 l 1,5,-1
 133 -67 l 1,6,-1
 100 -67 l 1,7,-1
 67 -67 l 1,8,-1
 67 -34 l 1,9,-1
 67 166 l 2,10,11
 67 178 67 178 76.5 188.5 c 128,-1,12
 86 199 86 199 100 199 c 2,13,-1
 633 199 l 2,14,15
 645 199 645 199 655.5 189.5 c 128,-1,16
 666 180 666 180 666 166 c 2,17,-1
 666 -34 l 1,18,-1
 666 -67 l 1,19,-1
 633 -67 l 1,0,-1
EndSplineSet
Substitution2: "Single Substitution lookup 73 subtable" aubu.cvc
Substitution2: "Single Substitution lookup 69 subtable" aubu.ccv
EndChar

StartChar: ubu.cv
Encoding: 45 -1 84
Width: 0
VWidth: 230
Flags: W
HStem: 0 21G<334 400> 133 66<67 334 400 600>
VStem: 334 66<0 133> 600 66<-67 133>
AnchorPoint: "Above" 0 0 mark 0
LayerCount: 2
Back
SplineSet
367 33 m 29,0,-1
 367 164 l 1025
100 166 m 29,2,-1
 633 166 l 1,3,-1
 633 -34 l 1025
EndSplineSet
Fore
SplineSet
67 166 m 1,0,-1
 67 199 l 1,1,-1
 100 199 l 1,2,-1
 633 199 l 2,3,4
 647 199 647 199 656.5 188.5 c 128,-1,5
 666 178 666 178 666 166 c 2,6,-1
 666 -34 l 1,7,-1
 666 -67 l 1,8,-1
 633 -67 l 1,9,-1
 600 -67 l 1,10,-1
 600 -34 l 1,11,-1
 600 133 l 1,12,-1
 400 133 l 1,13,-1
 400 33 l 1,14,-1
 400 0 l 1,15,-1
 367 0 l 1,16,-1
 334 0 l 1,17,-1
 334 33 l 1,18,-1
 334 133 l 1,19,-1
 100 133 l 1,20,-1
 67 133 l 1,21,-1
 67 166 l 1,0,-1
EndSplineSet
Substitution2: "Single Substitution lookup 73 subtable" ubu.cvc
Substitution2: "Single Substitution lookup 69 subtable" ubu.ccv
EndChar

StartChar: abu.cv
Encoding: 46 -1 85
Width: 0
VWidth: 230
Flags: W
HStem: 133 66<67 666>
AnchorPoint: "Above" 0 0 mark 0
LayerCount: 2
Back
SplineSet
100 166 m 5,0,-1
 633 166 l 1025
EndSplineSet
Fore
SplineSet
67 166 m 1,0,-1
 67 199 l 1,1,-1
 100 199 l 1,2,-1
 633 199 l 1,3,-1
 666 199 l 1,4,-1
 666 166 l 1,5,-1
 666 133 l 1,6,-1
 633 133 l 1,7,-1
 100 133 l 1,8,-1
 67 133 l 1,9,-1
 67 166 l 1,0,-1
EndSplineSet
Substitution2: "Single Substitution lookup 73 subtable" abu.cvc
Substitution2: "Single Substitution lookup 69 subtable" abu.ccv
EndChar

StartChar: dy.ccv.2
Encoding: 129 -1 86
Width: 0
VWidth: 230
Flags: W
HStem: 267.01 66<533 802> 402 66<533 800> 535 66<533 802>
VStem: 467 66<333.01 402 468 535>
AnchorPoint: "Above" 0 0 mark 0
LayerCount: 2
Back
Refer: 40 -1 S 1 0 0 1 268 -199 2
Fore
SplineSet
802 300.009765625 m 1,0,-1
 802 267.009765625 l 1,1,-1
 769 267.009765625 l 1,2,-1
 500 267.009765625 l 2,3,4
 485.943359375 267.009765625 485.943359375 267.009765625 476.471679688 277.677734375 c 128,-1,5
 467 288.345703125 467 288.345703125 467 300.009765625 c 2,6,-1
 467 402 l 1,7,-1
 467 435 l 1,8,-1
 467 468 l 1,9,-1
 467 568 l 2,10,11
 467 582 467 582 477.5 591.5 c 128,-1,12
 488 601 488 601 500 601 c 2,13,-1
 769 601 l 1,14,-1
 802 601 l 1,15,-1
 802 568 l 1,16,-1
 802 535 l 1,17,-1
 769 535 l 1,18,-1
 533 535 l 1,19,-1
 533 468 l 1,20,-1
 767 468 l 1,21,-1
 800 468 l 1,22,-1
 800 435 l 1,23,-1
 800 402 l 1,24,-1
 767 402 l 1,25,-1
 533 402 l 1,26,-1
 533 333.009765625 l 1,27,-1
 769 333.009765625 l 1,28,-1
 802 333.009765625 l 1,29,-1
 802 300.009765625 l 1,0,-1
EndSplineSet
EndChar

StartChar: ty.ccv.2
Encoding: 130 -1 87
Width: 0
VWidth: 230
Flags: W
HStem: 268 66<466 734> 402 66<466 734> 535 66<466 734>
VStem: 734 66<334 402 468 535>
AnchorPoint: "Above" 0 0 mark 0
LayerCount: 2
Back
Refer: 41 -1 S 1 0 0 1 267 -199 2
Fore
SplineSet
466 568 m 1,0,-1
 466 601 l 1,1,-1
 499 601 l 1,2,-1
 767 601 l 2,3,4
 781 601 781 601 790.5 590.5 c 128,-1,5
 800 580 800 580 800 568 c 2,6,-1
 800 301 l 2,7,8
 800 287 800 287 789.5 277.5 c 128,-1,9
 779 268 779 268 767 268 c 2,10,-1
 499 268 l 1,11,-1
 466 268 l 1,12,-1
 466 301 l 1,13,-1
 466 334 l 1,14,-1
 499 334 l 1,15,-1
 734 334 l 1,16,-1
 734 402 l 1,17,-1
 499 402 l 1,18,-1
 466 402 l 1,19,-1
 466 435 l 1,20,-1
 466 468 l 1,21,-1
 499 468 l 1,22,-1
 734 468 l 1,23,-1
 734 535 l 1,24,-1
 499 535 l 1,25,-1
 466 535 l 1,26,-1
 466 568 l 1,0,-1
EndSplineSet
EndChar

StartChar: zy.ccv.2
Encoding: 131 -1 88
Width: 0
VWidth: 230
Flags: W
HStem: 267 66<533 679.776> 400 66<533 694.116>
VStem: 467 66<333 400 466 600>
AnchorPoint: "Above" 0 0 mark 0
LayerCount: 2
Back
Refer: 42 -1 S 1 0 0 1 267 -200 2
Fore
SplineSet
500 600 m 1,0,-1
 533 600 l 1,1,-1
 533 567 l 1,2,-1
 533 466 l 1,3,-1
 723.760742188 466 l 1,4,5
 735.703125 488.09375 735.703125 488.09375 748.712890625 507.66796875 c 128,-1,6
 761.72265625 527.2421875 761.72265625 527.2421875 781.46875 553.745117188 c 128,-1,7
 801.21484375 580.249023438 801.21484375 580.249023438 806.111328125 587.130859375 c 2,8,-1
 825.241210938 614.01953125 l 1,9,-1
 852.130859375 594.888671875 l 1,10,-1
 879.01953125 575.758789062 l 1,11,-1
 859.888671875 548.869140625 l 2,12,13
 854.763671875 541.666015625 854.763671875 541.666015625 830.713867188 509.29296875 c 128,-1,14
 806.663085938 476.919921875 806.663085938 476.919921875 799.115234375 464.318359375 c 128,-1,15
 791.56640625 451.716796875 791.56640625 451.716796875 775.517578125 422.513671875 c 128,-1,16
 759.46875 393.309570312 759.46875 393.309570312 750.140625 362.809570312 c 128,-1,17
 740.811523438 332.30859375 740.811523438 332.30859375 733.407226562 293.7734375 c 0,18,19
 731.384765625 283.249023438 731.384765625 283.249023438 722.158203125 275.125 c 128,-1,20
 712.931640625 267 712.931640625 267 701 267 c 2,21,-1
 500 267 l 2,22,23
 488 267 488 267 477.5 276.5 c 128,-1,24
 467 286 467 286 467 300 c 2,25,-1
 467 567 l 1,26,-1
 467 600 l 1,27,-1
 500 600 l 1,0,-1
533 400 m 1,28,-1
 533 333 l 1,29,-1
 674.26953125 333 l 1,30,31
 682.573242188 368.393554688 682.573242188 368.393554688 694.116210938 400 c 1,32,-1
 533 400 l 1,28,-1
EndSplineSet
EndChar

StartChar: sy.ccv.2
Encoding: 132 -1 89
Width: 0
VWidth: 230
Flags: W
HStem: 399 66<533 734> 533 66<533 734>
VStem: 467 66<268 399 465 533> 734 66<268 399 465 533>
AnchorPoint: "Above" 0 0 mark 0
LayerCount: 2
Back
SplineSet
507 432 m 1,0,-1
 764 432 l 1025
767 301 m 1,2,-1
 767 566 l 1,3,-1
 500 566 l 1,4,-1
 500 301 l 1025
EndSplineSet
Fore
SplineSet
767 268 m 1,0,-1
 734 268 l 1,1,-1
 734 301 l 1,2,-1
 734 399 l 1,3,-1
 533 399 l 1,4,-1
 533 301 l 1,5,-1
 533 268 l 1,6,-1
 500 268 l 1,7,-1
 467 268 l 1,8,-1
 467 301 l 1,9,-1
 467 566 l 2,10,11
 467 578 467 578 476.5 588.5 c 128,-1,12
 486 599 486 599 500 599 c 2,13,-1
 767 599 l 2,14,15
 779 599 779 599 789.5 589.5 c 128,-1,16
 800 580 800 580 800 566 c 2,17,-1
 800 301 l 1,18,-1
 800 268 l 1,19,-1
 767 268 l 1,0,-1
734 465 m 1,20,-1
 734 533 l 1,21,-1
 533 533 l 1,22,-1
 533 465 l 1,23,-1
 734 465 l 1,20,-1
EndSplineSet
EndChar

StartChar: gy.ccv.2
Encoding: 133 -1 90
Width: 0
VWidth: 230
Flags: W
VStem: 535.423 210.243
AnchorPoint: "Above" 0 0 mark 0
LayerCount: 2
Back
Refer: 44 -1 S 1 0 0 1 267 -200 2
Fore
SplineSet
722.069335938 590.59765625 m 1,0,-1
 745.666015625 567.528320312 l 1,1,-1
 722.59765625 543.930664062 l 1,2,-1
 614.234375 433.086914062 l 1,3,-1
 722.510742188 323.157226562 l 1,4,-1
 745.66796875 299.646484375 l 1,5,-1
 722.157226562 276.489257812 l 1,6,-1
 698.646484375 253.33203125 l 1,7,-1
 675.489257812 276.842773438 l 1,8,-1
 544.489257812 409.842773438 l 2,9,10
 535.943359375 418.51953125 535.943359375 418.51953125 535.422851562 431.984375 c 128,-1,11
 534.90234375 445.450195312 534.90234375 445.450195312 544.40234375 456.069335938 c 2,12,-1
 675.40234375 590.069335938 l 1,13,-1
 698.471679688 613.666015625 l 1,14,-1
 722.069335938 590.59765625 l 1,0,-1
EndSplineSet
EndChar

StartChar: jy.ccv.2
Encoding: 134 -1 91
Width: 0
VWidth: 230
Flags: W
HStem: 377 66<467 587.979 681.071 800>
VStem: 601 66<268 377>
AnchorPoint: "Above" 0 0 mark 0
LayerCount: 2
Back
Refer: 45 -1 N 1 0 0 1 267 -203 2
Fore
SplineSet
468.221679688 575.895507812 m 1,0,-1
 477.1171875 607.673828125 l 1,1,-1
 508.895507812 598.778320312 l 2,2,3
 594.849609375 574.71875 594.849609375 574.71875 634.94921875 500.262695312 c 1,4,5
 674.151367188 569.974609375 674.151367188 569.974609375 756.270507812 598.20703125 c 2,6,-1
 787.478515625 608.936523438 l 1,7,-1
 798.20703125 577.729492188 l 1,8,-1
 808.936523438 546.521484375 l 1,9,-1
 777.729492188 535.79296875 l 2,10,11
 704.897460938 510.752929688 704.897460938 510.752929688 681.071289062 443 c 1,12,-1
 767 443 l 1,13,-1
 800 443 l 1,14,-1
 800 410 l 1,15,-1
 800 377 l 1,16,-1
 767 377 l 1,17,-1
 668.608398438 377 l 1,18,19
 667.622070312 363.4375 667.622070312 363.4375 667 337.602539062 c 2,20,-1
 667 301 l 1,21,-1
 667 268 l 1,22,-1
 634 268 l 1,23,-1
 601 268 l 1,24,-1
 601 301 l 1,25,-1
 601 337.84765625 l 2,26,27
 600.779296875 361.59375 600.779296875 361.59375 599.75 377 c 1,28,-1
 500 377 l 1,29,-1
 467 377 l 1,30,-1
 467 410 l 1,31,-1
 467 443 l 1,32,-1
 500 443 l 1,33,-1
 587.979492188 443 l 1,34,35
 564.18359375 514.765625 564.18359375 514.765625 491.104492188 535.221679688 c 2,36,-1
 459.326171875 544.1171875 l 1,37,-1
 468.221679688 575.895507812 l 1,0,-1
EndSplineSet
EndChar

StartChar: xy.ccv.2
Encoding: 135 -1 92
Width: 0
VWidth: 230
Flags: W
VStem: 602 66<397.082 601>
AnchorPoint: "Above" 0 0 mark 0
LayerCount: 2
Back
Refer: 46 -1 S 1 0 0 1 267 -199 2
Fore
SplineSet
797.544921875 288.509765625 m 1,0,-1
 785.0546875 257.96484375 l 1,1,-1
 754.509765625 270.455078125 l 2,2,3
 668.1015625 305.788085938 668.1015625 305.788085938 634.30859375 359.927734375 c 1,4,5
 622.298828125 343.189453125 622.298828125 343.189453125 603.823242188 327.91796875 c 128,-1,6
 585.34765625 312.645507812 585.34765625 312.645507812 570.798828125 303.725585938 c 128,-1,7
 556.250976562 294.805664062 556.250976562 294.805664062 526.793945312 278.223632812 c 0,8,9
 519.815429688 274.293945312 519.815429688 274.293945312 516.244140625 272.275390625 c 2,10,-1
 487.51953125 256.030273438 l 1,11,-1
 471.275390625 284.755859375 l 1,12,-1
 455.030273438 313.48046875 l 1,13,-1
 483.755859375 329.724609375 l 2,14,15
 547.525390625 365.788085938 547.525390625 365.788085938 567.743164062 383.251953125 c 128,-1,16
 587.961914062 400.715820312 587.961914062 400.715820312 595.771484375 433.616210938 c 0,17,18
 601.432617188 457.463867188 601.432617188 457.463867188 601.959960938 495.94140625 c 0,19,20
 601.908203125 502.041015625 601.908203125 502.041015625 602 508.249023438 c 2,21,-1
 602 568 l 1,22,-1
 602 601 l 1,23,-1
 635 601 l 1,24,-1
 668 601 l 1,25,-1
 668 568 l 1,26,-1
 668 508.090820312 l 1,27,-1
 668 500.0703125 l 1,28,-1
 668 493.319335938 l 2,29,30
 668.591796875 459.243164062 668.591796875 459.243164062 674.611328125 434.221679688 c 0,31,32
 684.274414062 394.061523438 684.274414062 394.061523438 707.479492188 372.782226562 c 128,-1,33
 730.68359375 351.501953125 730.68359375 351.501953125 779.490234375 331.544921875 c 2,34,-1
 810.03515625 319.0546875 l 1,35,-1
 797.544921875 288.509765625 l 1,0,-1
EndSplineSet
EndChar

StartChar: iy.ccv.2
Encoding: 136 -1 93
Width: 0
VWidth: 230
Flags: W
HStem: 253 60<508 749>
VStem: 448 60<313 860>
AnchorPoint: "Above" 0 0 mark 0
LayerCount: 2
Back
Refer: 66 -1 S 1 0 0 1 374 -2 2
Fore
SplineSet
448 860 m 1,0,-1
 508 860 l 1,1,-1
 508 313 l 1,2,-1
 749 313 l 1,3,-1
 749 253 l 1,4,-1
 478 253 l 2,5,6
 467 253 467 253 458 262 c 0,7,8
 448 272 448 272 448 283 c 2,9,-1
 448 860 l 1,0,-1
EndSplineSet
EndChar

StartChar: my.ccv.2
Encoding: 144 -1 94
Width: 0
VWidth: 230
Flags: W
HStem: 268 66<533 734> 535 66<533 734>
VStem: 467 66<334 535> 734 66<334 535>
AnchorPoint: "Above" 0 0 mark 0
LayerCount: 2
Back
Refer: 49 -1 S 1 0 0 1 267 -199 2
Fore
SplineSet
533 535 m 1,0,-1
 533 334 l 1,1,-1
 734 334 l 1,2,-1
 734 535 l 1,3,-1
 533 535 l 1,0,-1
500 601 m 2,4,-1
 767 601 l 2,5,6
 781 601 781 601 790.5 590.5 c 128,-1,7
 800 580 800 580 800 568 c 2,8,-1
 800 301 l 2,9,10
 800 287 800 287 789.5 277.5 c 128,-1,11
 779 268 779 268 767 268 c 2,12,-1
 500 268 l 2,13,14
 486 268 486 268 476.5 278.5 c 128,-1,15
 467 289 467 289 467 301 c 2,16,-1
 467 568 l 2,17,18
 467 582 467 582 477.5 591.5 c 128,-1,19
 488 601 488 601 500 601 c 2,4,-1
EndSplineSet
EndChar

StartChar: by.ccv.2
Encoding: 145 -1 95
Width: 0
VWidth: 230
Flags: W
HStem: 267 66<533 800> 534 66<533 800>
VStem: 467 66<333 534>
AnchorPoint: "Above" 0 0 mark 0
LayerCount: 2
Back
Refer: 50 -1 S 1 0 0 1 267 -200 2
Fore
SplineSet
800 567 m 1,0,-1
 800 534 l 1,1,-1
 767 534 l 1,2,-1
 533 534 l 1,3,-1
 533 333 l 1,4,-1
 767 333 l 1,5,-1
 800 333 l 1,6,-1
 800 300 l 1,7,-1
 800 267 l 1,8,-1
 767 267 l 1,9,-1
 500 267 l 2,10,11
 488 267 488 267 477.5 276.5 c 128,-1,12
 467 286 467 286 467 300 c 2,13,-1
 467 567 l 2,14,15
 467 579 467 579 476.5 589.5 c 128,-1,16
 486 600 486 600 500 600 c 2,17,-1
 767 600 l 1,18,-1
 800 600 l 1,19,-1
 800 567 l 1,0,-1
EndSplineSet
EndChar

StartChar: py.ccv.2
Encoding: 146 -1 96
Width: 0
VWidth: 230
Flags: W
HStem: 267 66<467 734> 534 66<467 734>
VStem: 734 66<333 534>
AnchorPoint: "Above" 0 0 mark 0
LayerCount: 2
Back
Refer: 51 -1 S 1 0 0 1 267 -200 2
Fore
SplineSet
467 567 m 1,0,-1
 467 600 l 1,1,-1
 500 600 l 1,2,-1
 767 600 l 2,3,4
 781 600 781 600 790.5 589.5 c 128,-1,5
 800 579 800 579 800 567 c 2,6,-1
 800 300 l 2,7,8
 800 286 800 286 789.5 276.5 c 128,-1,9
 779 267 779 267 767 267 c 2,10,-1
 500 267 l 1,11,-1
 467 267 l 1,12,-1
 467 300 l 1,13,-1
 467 333 l 1,14,-1
 500 333 l 1,15,-1
 734 333 l 1,16,-1
 734 534 l 1,17,-1
 500 534 l 1,18,-1
 467 534 l 1,19,-1
 467 567 l 1,0,-1
EndSplineSet
EndChar

StartChar: vy.ccv.2
Encoding: 147 -1 97
Width: 0
VWidth: 230
Flags: W
HStem: 267 66<533 679.698>
VStem: 467 66<333 600>
AnchorPoint: "Above" 0 0 mark 0
LayerCount: 2
Back
Refer: 52 -1 S 1 0 0 1 267 -200 2
Fore
SplineSet
500 600 m 1,0,-1
 533 600 l 1,1,-1
 533 567 l 1,2,-1
 533 333 l 1,3,-1
 674.26953125 333 l 1,4,5
 683.055664062 370.447265625 683.055664062 370.447265625 694.247070312 401.862304688 c 128,-1,6
 705.439453125 433.27734375 705.439453125 433.27734375 722.268554688 462.71484375 c 128,-1,7
 739.098632812 492.153320312 739.098632812 492.153320312 747.947265625 506.348632812 c 128,-1,8
 756.795898438 520.544921875 756.795898438 520.544921875 779.356445312 550.890625 c 128,-1,9
 801.916992188 581.236328125 801.916992188 581.236328125 806.111328125 587.130859375 c 2,10,-1
 825.241210938 614.01953125 l 1,11,-1
 852.130859375 594.888671875 l 1,12,-1
 879.01953125 575.758789062 l 1,13,-1
 859.888671875 548.869140625 l 2,14,15
 854.763671875 541.666015625 854.763671875 541.666015625 830.713867188 509.29296875 c 128,-1,16
 806.663085938 476.919921875 806.663085938 476.919921875 799.115234375 464.318359375 c 128,-1,17
 791.56640625 451.716796875 791.56640625 451.716796875 775.517578125 422.513671875 c 128,-1,18
 759.46875 393.309570312 759.46875 393.309570312 750.140625 362.809570312 c 128,-1,19
 740.811523438 332.30859375 740.811523438 332.30859375 733.407226562 293.7734375 c 0,20,21
 731.384765625 283.249023438 731.384765625 283.249023438 722.158203125 275.125 c 128,-1,22
 712.931640625 267 712.931640625 267 701 267 c 2,23,-1
 500 267 l 2,24,25
 488 267 488 267 477.5 276.5 c 128,-1,26
 467 286 467 286 467 300 c 2,27,-1
 467 567 l 1,28,-1
 467 600 l 1,29,-1
 500 600 l 1,0,-1
EndSplineSet
EndChar

StartChar: fy.ccv.2
Encoding: 148 -1 98
Width: 0
VWidth: 230
Flags: W
HStem: 535 66<587.302 734>
VStem: 734 66<268 535>
AnchorPoint: "Above" 0 0 mark 0
LayerCount: 2
Back
Refer: 53 -1 S 1 0 0 1 267 -199 2
Fore
SplineSet
767 268 m 1,0,-1
 734 268 l 1,1,-1
 734 301 l 1,2,-1
 734 535 l 1,3,-1
 592.73046875 535 l 1,4,5
 583.9453125 497.552734375 583.9453125 497.552734375 572.752929688 466.137695312 c 128,-1,6
 561.561523438 434.723632812 561.561523438 434.723632812 544.731445312 405.28515625 c 128,-1,7
 527.901367188 375.846679688 527.901367188 375.846679688 519.052734375 361.650390625 c 128,-1,8
 510.205078125 347.455078125 510.205078125 347.455078125 487.643554688 317.109375 c 128,-1,9
 465.08203125 286.762695312 465.08203125 286.762695312 460.888671875 280.869140625 c 2,10,-1
 441.7578125 253.98046875 l 1,11,-1
 414.869140625 273.111328125 l 1,12,-1
 387.98046875 292.2421875 l 1,13,-1
 407.111328125 319.130859375 l 2,14,15
 412.235351562 326.333007812 412.235351562 326.333007812 436.286132812 358.70703125 c 128,-1,16
 460.336914062 391.081054688 460.336914062 391.081054688 467.884765625 403.681640625 c 128,-1,17
 475.43359375 416.282226562 475.43359375 416.282226562 491.482421875 445.486328125 c 128,-1,18
 507.53125 474.690429688 507.53125 474.690429688 516.860351562 505.190429688 c 128,-1,19
 526.188476562 535.69140625 526.188476562 535.69140625 533.592773438 574.2265625 c 0,20,21
 535.615234375 584.750976562 535.615234375 584.750976562 544.841796875 592.875 c 128,-1,22
 554.068359375 601 554.068359375 601 566 601 c 2,23,-1
 767 601 l 2,24,25
 779 601 779 601 789.5 591.5 c 128,-1,26
 800 582 800 582 800 568 c 2,27,-1
 800 301 l 1,28,-1
 800 268 l 1,29,-1
 767 268 l 1,0,-1
EndSplineSet
EndChar

StartChar: ky.ccv.2
Encoding: 149 -1 99
Width: 0
VWidth: 230
Flags: W
VStem: 521.331 212.335
AnchorPoint: "Above" 0 0 mark 0
LayerCount: 2
Back
Refer: 54 -1 S 1 0 0 1 267 -199 2
Fore
SplineSet
544.752929688 591.421875 m 1,0,-1
 568.174804688 614.668945312 l 1,1,-1
 591.421875 591.247070312 l 1,2,-1
 724.421875 457.247070312 l 2,3,4
 734.04296875 446.936523438 734.04296875 446.936523438 733.666015625 433.278320312 c 128,-1,5
 733.2890625 419.620117188 733.2890625 419.620117188 724.334960938 410.665039062 c 2,6,-1
 591.334960938 277.665039062 l 1,7,-1
 568 254.331054688 l 1,8,-1
 544.665039062 277.665039062 l 1,9,-1
 521.331054688 301 l 1,10,-1
 544.665039062 324.334960938 l 1,11,-1
 654.41796875 434.086914062 l 1,12,-1
 544.578125 544.752929688 l 1,13,-1
 521.331054688 568.174804688 l 1,14,-1
 544.752929688 591.421875 l 1,0,-1
EndSplineSet
EndChar

StartChar: cy.ccv.2
Encoding: 150 -1 100
Width: 0
VWidth: 230
Flags: W
HStem: 269 66<468 557.952 710.102 801> 426 66<468 592.762 675.624 801>
VStem: 601 66<492 601>
AnchorPoint: "Above" 0 0 mark 0
LayerCount: 2
Back
Refer: 55 -1 S 1 0 0 1 268 -199 2
Fore
SplineSet
801 302 m 1,0,-1
 801 269 l 1,1,-1
 768 269 l 2,2,3
 721.39453125 269 721.39453125 269 687.544921875 290.40234375 c 128,-1,4
 653.6953125 311.8046875 653.6953125 311.8046875 634.52734375 346.233398438 c 1,5,6
 592.259765625 269 592.259765625 269 501 269 c 2,7,-1
 468 269 l 1,8,-1
 468 302 l 1,9,-1
 468 335 l 1,10,-1
 501 335 l 2,11,12
 574.23046875 335 574.23046875 335 592.76171875 426 c 1,13,-1
 501 426 l 1,14,-1
 468 426 l 1,15,-1
 468 459 l 1,16,-1
 468 492 l 1,17,-1
 501 492 l 1,18,-1
 599.874023438 492 l 1,19,20
 600.284179688 501.5234375 600.284179688 501.5234375 601 531.396484375 c 2,21,-1
 601 568 l 1,22,-1
 601 601 l 1,23,-1
 634 601 l 1,24,-1
 667 601 l 1,25,-1
 667 568 l 1,26,-1
 667 531.15234375 l 2,27,28
 667.221679688 507.17578125 667.221679688 507.17578125 667.903320312 492 c 1,29,-1
 768 492 l 1,30,-1
 801 492 l 1,31,-1
 801 459 l 1,32,-1
 801 426 l 1,33,-1
 768 426 l 1,34,-1
 675.624023438 426 l 1,35,36
 695.479492188 335 695.479492188 335 768 335 c 2,37,-1
 801 335 l 1,38,-1
 801 302 l 1,0,-1
EndSplineSet
EndChar

StartChar: yhy.ccv.2
Encoding: 151 -1 101
Width: 0
VWidth: 230
Flags: W
VStem: 446 60<261.221 273 427 862> 687 60<255 690 844 854.718>
AnchorPoint: "Above" 0 0 mark 0
LayerCount: 2
Back
Refer: 75 -1 S 1 0 0 1 372 0 2
Fore
SplineSet
446 862 m 1,0,-1
 506 862 l 1,1,-1
 506 427 l 1,2,-1
 690 844 l 2,3,4
 696 858 696 858 710 861 c 0,5,6
 723 864 723 864 735 855 c 128,-1,7
 747 846 747 846 747 832 c 2,8,-1
 747 255 l 1,9,-1
 687 255 l 1,10,-1
 687 690 l 1,11,-1
 503 273 l 2,12,13
 497 259 497 259 484 256 c 128,-1,14
 471 253 471 253 458 261 c 0,15,16
 446 268 446 268 446 285 c 2,17,-1
 446 862 l 1,0,-1
EndSplineSet
EndChar

StartChar: uy.ccv.2
Encoding: 152 -1 102
Width: 0
VWidth: 230
Flags: W
HStem: 255 60<447 688>
VStem: 688 60<315 862>
AnchorPoint: "Above" 0 0 mark 0
LayerCount: 2
Back
Refer: 76 -1 S 1 0 0 1 373 0 2
Fore
SplineSet
688 862 m 1,0,-1
 748 862 l 1,1,-1
 748 285 l 2,2,3
 748 274 748 274 738 264 c 0,4,5
 729 255 729 255 718 255 c 2,6,-1
 447 255 l 1,7,-1
 447 315 l 1,8,-1
 688 315 l 1,9,-1
 688 862 l 1,0,-1
EndSplineSet
EndChar

StartChar: ly.ccv.2
Encoding: 153 -1 103
Width: 0
VWidth: 230
Flags: W
HStem: 267 66<533 800> 400 66<533 734> 534 66<467 734>
VStem: 467 66<333 400> 734 66<466 534>
AnchorPoint: "Above" 0 0 mark 0
LayerCount: 2
Back
Refer: 58 -1 S 1 0 0 1 267 -200 2
Fore
SplineSet
467 567 m 1,0,-1
 467 600 l 1,1,-1
 500 600 l 1,2,-1
 767 600 l 2,3,4
 781 600 781 600 790.5 589.5 c 128,-1,5
 800 579 800 579 800 567 c 2,6,-1
 800 433 l 2,7,8
 800 419 800 419 789.5 409.5 c 128,-1,9
 779 400 779 400 767 400 c 2,10,-1
 533 400 l 1,11,-1
 533 333 l 1,12,-1
 767 333 l 1,13,-1
 800 333 l 1,14,-1
 800 300 l 1,15,-1
 800 267 l 1,16,-1
 767 267 l 1,17,-1
 500 267 l 2,18,19
 488 267 488 267 477.5 276.5 c 128,-1,20
 467 286 467 286 467 300 c 2,21,-1
 467 433 l 2,22,23
 467 445 467 445 476.5 455.5 c 128,-1,24
 486 466 486 466 500 466 c 2,25,-1
 734 466 l 1,26,-1
 734 534 l 1,27,-1
 500 534 l 1,28,-1
 467 534 l 1,29,-1
 467 567 l 1,0,-1
EndSplineSet
EndChar

StartChar: eibu.ccv
Encoding: 122 -1 104
Width: 0
VWidth: 230
Flags: W
HStem: 133 66<133 400 466 800>
VStem: 67 66<-67 133> 400 66<132 133 199 333>
AnchorPoint: "Above" 0 0 mark 0
LayerCount: 2
Back
SplineSet
433 300 m 5,0,-1
 433 165 l 1025
100 -34 m 5,2,-1
 100 166 l 1,3,-1
 767 166 l 1025
EndSplineSet
Fore
SplineSet
100 -67 m 1,0,-1
 67 -67 l 1,1,-1
 67 -34 l 1,2,-1
 67 166 l 2,3,4
 67 180 67 180 77.5 189.5 c 128,-1,5
 88 199 88 199 100 199 c 2,6,-1
 400 199 l 1,7,-1
 400 300 l 1,8,-1
 400 333 l 1,9,-1
 433 333 l 1,10,-1
 466 333 l 1,11,-1
 466 300 l 1,12,-1
 466 199 l 1,13,-1
 767 199 l 1,14,-1
 800 199 l 1,15,-1
 800 166 l 1,16,-1
 800 133 l 1,17,-1
 767 133 l 1,18,-1
 466 133 l 1,19,-1
 466 132 l 1,20,-1
 433 132 l 1,21,-1
 400 132 l 1,22,-1
 400 133 l 1,23,-1
 133 133 l 1,24,-1
 133 -34 l 1,25,-1
 133 -67 l 1,26,-1
 100 -67 l 1,0,-1
EndSplineSet
EndChar

StartChar: obu.ccv
Encoding: 107 -1 105
Width: 0
VWidth: 230
Flags: W
HStem: 133 66<67 734>
VStem: 734 66<-67 133>
AnchorPoint: "Above" 0 0 mark 0
LayerCount: 2
Back
SplineSet
767 -34 m 5,0,-1
 767 166 l 1,1,-1
 100 166 l 1025
EndSplineSet
Fore
SplineSet
767 -67 m 1,0,-1
 734 -67 l 1,1,-1
 734 -34 l 1,2,-1
 734 133 l 1,3,-1
 100 133 l 1,4,-1
 67 133 l 1,5,-1
 67 166 l 1,6,-1
 67 199 l 1,7,-1
 100 199 l 1,8,-1
 767 199 l 2,9,10
 779 199 779 199 789.5 189.5 c 128,-1,11
 800 180 800 180 800 166 c 2,12,-1
 800 -34 l 1,13,-1
 800 -67 l 1,14,-1
 767 -67 l 1,0,-1
EndSplineSet
Substitution2: "Single Substitution lookup 73 subtable" obu.cvc
Substitution2: "Single Substitution lookup 69 subtable" obu.ccv
EndChar

StartChar: oibu.ccv
Encoding: 123 -1 106
Width: 0
VWidth: 230
Flags: W
HStem: 133 66<67 400 466 734>
VStem: 400 66<199 333> 734 66<-67 133>
AnchorPoint: "Above" 0 0 mark 0
LayerCount: 2
Back
SplineSet
433 166 m 5,0,-1
 433 300 l 1025
100 166 m 5,2,-1
 767 166 l 1,3,-1
 767 -34 l 1025
EndSplineSet
Fore
SplineSet
67 166 m 1,0,-1
 67 199 l 1,1,-1
 100 199 l 1,2,-1
 400 199 l 1,3,-1
 400 300 l 1,4,-1
 400 333 l 1,5,-1
 433 333 l 1,6,-1
 466 333 l 1,7,-1
 466 300 l 1,8,-1
 466 199 l 1,9,-1
 767 199 l 2,10,11
 781 199 781 199 790.5 188.5 c 128,-1,12
 800 178 800 178 800 166 c 2,13,-1
 800 -34 l 1,14,-1
 800 -67 l 1,15,-1
 767 -67 l 1,16,-1
 734 -67 l 1,17,-1
 734 -34 l 1,18,-1
 734 133 l 1,19,-1
 466 133 l 1,20,-1
 433 133 l 1,21,-1
 400 133 l 1,22,-1
 100 133 l 1,23,-1
 67 133 l 1,24,-1
 67 166 l 1,0,-1
EndSplineSet
EndChar

StartChar: ybu.ccv
Encoding: 111 -1 107
Width: 0
VWidth: 230
Flags: WO
HStem: -1 21G<400 466> 133 66<67 400 466 800>
VStem: 400 66<-1 133>
AnchorPoint: "Above" 0 0 mark 0
LayerCount: 2
Back
SplineSet
433 166 m 5,0,-1
 433 32 l 1025
100 166 m 5,2,-1
 767 166 l 1025
EndSplineSet
Fore
SplineSet
67 166 m 1,0,-1
 67 199 l 1,1,-1
 100 199 l 1,2,-1
 400 199 l 1,3,-1
 433 199 l 1,4,-1
 466 199 l 1,5,-1
 767 199 l 1,6,-1
 800 199 l 1,7,-1
 800 166 l 1,8,-1
 800 133 l 1,9,-1
 767 133 l 1,10,-1
 466 133 l 1,11,-1
 466 32 l 1,12,-1
 466 -1 l 1,13,-1
 433 -1 l 1,14,-1
 400 -1 l 1,15,-1
 400 32 l 1,16,-1
 400 133 l 1,17,-1
 100 133 l 1,18,-1
 67 133 l 1,19,-1
 67 166 l 1,0,-1
EndSplineSet
Substitution2: "Single Substitution lookup 73 subtable" ybu.cvc
Substitution2: "Single Substitution lookup 69 subtable" ybu.ccv
EndChar

StartChar: ebu.cvc
Encoding: 74 -1 108
Width: 0
VWidth: 230
Flags: W
HStem: 334 66<133 666>
VStem: 67 66<67 334>
AnchorPoint: "Above" 0 0 mark 0
LayerCount: 2
Back
SplineSet
633 367 m 1,0,-1
 100 367 l 1,1,-1
 100 100 l 1025
EndSplineSet
Fore
SplineSet
666 367 m 1,0,-1
 666 334 l 1,1,-1
 633 334 l 1,2,-1
 133 334 l 1,3,-1
 133 100 l 1,4,-1
 133 67 l 1,5,-1
 100 67 l 1,6,-1
 67 67 l 1,7,-1
 67 100 l 1,8,-1
 67 367 l 2,9,10
 67 379 67 379 76.5 389.5 c 128,-1,11
 86 400 86 400 100 400 c 2,12,-1
 633 400 l 1,13,-1
 666 400 l 1,14,-1
 666 367 l 1,0,-1
EndSplineSet
EndChar

StartChar: obu.cvc
Encoding: 75 -1 109
Width: 0
VWidth: 230
Flags: W
HStem: 334 66<67 600>
VStem: 600 66<67 334>
AnchorPoint: "Above" 0 0 mark 0
LayerCount: 2
Back
SplineSet
100 367 m 5,0,-1
 633 367 l 1,1,-1
 633 100 l 1025
EndSplineSet
Fore
SplineSet
67 367 m 1,0,-1
 67 400 l 1,1,-1
 100 400 l 1,2,-1
 633 400 l 2,3,4
 647 400 647 400 656.5 389.5 c 128,-1,5
 666 379 666 379 666 367 c 2,6,-1
 666 100 l 1,7,-1
 666 67 l 1,8,-1
 633 67 l 1,9,-1
 600 67 l 1,10,-1
 600 100 l 1,11,-1
 600 334 l 1,12,-1
 100 334 l 1,13,-1
 67 334 l 1,14,-1
 67 367 l 1,0,-1
EndSplineSet
EndChar

StartChar: ibu.cvc
Encoding: 76 -1 110
Width: 0
VWidth: 230
Flags: W
HStem: 267 133<334 400> 334 66<131.165 334 400 666>
VStem: 66.0004 65.9992<133.165 334> 334 66<267 334>
AnchorPoint: "Above" 0 0 mark 0
LayerCount: 2
Back
SplineSet
367 300 m 5,0,-1
 367 364 l 1025
633 367 m 5,2,-1
 98 367 l 1,3,-1
 99 166 l 1025
EndSplineSet
Fore
SplineSet
666 367 m 1,0,-1
 666 334 l 1,1,-1
 633 334 l 1,2,-1
 400 334 l 1,3,-1
 400 300 l 1,4,-1
 400 267 l 1,5,-1
 367 267 l 1,6,-1
 334 267 l 1,7,-1
 334 300 l 1,8,-1
 334 334 l 1,9,-1
 131.164587508 334 l 1,10,-1
 131.999591602 166.164177073 l 1,11,-1
 132.163768674 133.164585471 l 1,12,-1
 99.1641770726 133.000408398 l 1,13,-1
 66.1645854708 132.836231326 l 1,14,-1
 66.0004083982 165.835822927 l 1,15,-1
 65.0004083982 366.835822927 l 2,16,17
 64.9415789753 378.660536922 64.9415789753 378.660536922 74.4362394461 389.330268461 c 128,-1,18
 83.930899917 400 83.930899917 400 98 400 c 2,19,-1
 633 400 l 1,20,-1
 666 400 l 1,21,-1
 666 367 l 1,0,-1
EndSplineSet
EndChar

StartChar: ubu.cvc
Encoding: 77 -1 111
Width: 0
VWidth: 230
Flags: W
HStem: 267.005 132.995<333.995 399.995> 334 66<67 334.005 400.005 600>
VStem: 334 66<267.005 334> 600 66<67 334>
AnchorPoint: "Above" 0 0 mark 0
LayerCount: 2
Back
SplineSet
367 300 m 5,0,-1
 367.009765625 365.009765625 l 1025
100 367 m 5,2,-1
 633 367 l 1,3,-1
 633 100 l 1025
EndSplineSet
Fore
SplineSet
67 367 m 1,0,-1
 67 400 l 1,1,-1
 100 400 l 1,2,-1
 633 400 l 2,3,4
 647 400 647 400 656.5 389.5 c 128,-1,5
 666 379 666 379 666 367 c 2,6,-1
 666 100 l 1,7,-1
 666 67 l 1,8,-1
 633 67 l 1,9,-1
 600 67 l 1,10,-1
 600 100 l 1,11,-1
 600 334 l 1,12,-1
 400.005107778 334 l 1,13,14
 400.005107778 328.332507136 400.005107778 328.332507136 400.002553703 316.997521407 c 128,-1,15
 399.999999628 305.662535678 399.999999628 305.662535678 399.999999628 299.995042813 c 2,16,-1
 399.99504244 266.995043184 l 1,17,-1
 366.995042812 267.000000372 l 1,18,-1
 333.995043184 267.00495756 l 1,19,-1
 334.000000372 300.004957188 l 2,20,21
 334.000000372 305.670797656 334.000000372 305.670797656 334.002553702 317.002478593 c 128,-1,22
 334.005107033 328.33415953 334.005107033 328.33415953 334.005107033 333.999999999 c 1,23,-1
 100 334 l 1,24,-1
 67 334 l 1,25,-1
 67 367 l 1,0,-1
EndSplineSet
EndChar

StartChar: abu.cvc
Encoding: 78 -1 112
Width: 0
VWidth: 230
Flags: W
HStem: 334 66<67 666>
AnchorPoint: "Above" 0 0 mark 0
LayerCount: 2
Back
SplineSet
100 367 m 5,0,-1
 633 367 l 1025
EndSplineSet
Fore
SplineSet
67 367 m 1,0,-1
 67 400 l 1,1,-1
 100 400 l 1,2,-1
 633 400 l 1,3,-1
 666 400 l 1,4,-1
 666 367 l 1,5,-1
 666 334 l 1,6,-1
 633 334 l 1,7,-1
 100 334 l 1,8,-1
 67 334 l 1,9,-1
 67 367 l 1,0,-1
EndSplineSet
EndChar

StartChar: ybu.cvc
Encoding: 79 -1 113
Width: 0
VWidth: 230
Flags: W
HStem: 267 133<334 400> 334 66<67 334 400 666>
VStem: 334 66<267 334>
AnchorPoint: "Above" 0 0 mark 0
LayerCount: 2
Back
SplineSet
367 367 m 5,0,-1
 367 300 l 1025
100 367 m 5,2,-1
 633 367 l 1025
EndSplineSet
Fore
SplineSet
67 367 m 1,0,-1
 67 400 l 1,1,-1
 100 400 l 1,2,-1
 334 400 l 1,3,-1
 367 400 l 1,4,-1
 400 400 l 1,5,-1
 633 400 l 1,6,-1
 666 400 l 1,7,-1
 666 367 l 1,8,-1
 666 334 l 1,9,-1
 633 334 l 1,10,-1
 400 334 l 1,11,-1
 400 300 l 1,12,-1
 400 267 l 1,13,-1
 367 267 l 1,14,-1
 334 267 l 1,15,-1
 334 300 l 1,16,-1
 334 334 l 1,17,-1
 100 334 l 1,18,-1
 67 334 l 1,19,-1
 67 367 l 1,0,-1
EndSplineSet
EndChar

StartChar: eibu.cvc
Encoding: 90 -1 114
Width: 0
VWidth: 230
Flags: W
HStem: 334 132.511<335.489 399.511 399.533 400.504> 334 66<133 334.496 400.504 666>
VStem: 67 66<67 334> 335.004 65.9929<333.489 334 400 466.511>
AnchorPoint: "Above" 0 0 mark 0
LayerCount: 2
Back
SplineSet
367 366 m 5,0,-1
 368 434 l 1025
100 100 m 5,2,-1
 100 367 l 1,3,-1
 633 367 l 1025
EndSplineSet
Fore
SplineSet
100 67 m 1,0,-1
 67 67 l 1,1,-1
 67 100 l 1,2,-1
 67 367 l 2,3,4
 67 381 67 381 77.5 390.5 c 128,-1,5
 88 400 88 400 100 400 c 2,6,-1
 334.496431854 400 l 1,7,-1
 335.00356776 434.485241651 l 1,8,-1
 335.488809411 467.48167389 l 1,9,-1
 368.485241651 466.99643224 l 1,10,-1
 401.48167389 466.511190589 l 1,11,-1
 400.99643224 433.514758349 l 1,12,-1
 400.503568146 400 l 1,13,-1
 633 400 l 1,14,-1
 666 400 l 1,15,-1
 666 367 l 1,16,-1
 666 334 l 1,17,-1
 633 334 l 1,18,-1
 399.532979911 334 l 1,19,-1
 399.511190589 332.51832611 l 1,20,-1
 366.514758349 333.00356776 l 1,21,-1
 333.51832611 333.488809411 l 1,22,-1
 333.525843619 334 l 1,23,-1
 133 334 l 1,24,-1
 133 100 l 1,25,-1
 133 67 l 1,26,-1
 100 67 l 1,0,-1
EndSplineSet
EndChar

StartChar: oibu.cvc
Encoding: 91 -1 115
Width: 0
VWidth: 230
Flags: W
HStem: 334 133<334 400> 334 66<67 334 400 600>
VStem: 334 66<400 467> 600 66<67 334>
AnchorPoint: "Above" 0 0 mark 0
LayerCount: 2
Back
SplineSet
367 368 m 5,0,-1
 367 434 l 1025
633 100 m 5,2,-1
 633 367 l 1,3,-1
 100 367 l 1025
EndSplineSet
Fore
SplineSet
633 67 m 1,0,-1
 600 67 l 1,1,-1
 600 100 l 1,2,-1
 600 334 l 1,3,-1
 100 334 l 1,4,-1
 67 334 l 1,5,-1
 67 367 l 1,6,-1
 67 400 l 1,7,-1
 100 400 l 1,8,-1
 334 400 l 1,9,-1
 334 434 l 1,10,-1
 334 467 l 1,11,-1
 367 467 l 1,12,-1
 400 467 l 1,13,-1
 400 434 l 1,14,-1
 400 400 l 1,15,-1
 633 400 l 2,16,17
 645 400 645 400 655.5 390.5 c 128,-1,18
 666 381 666 381 666 367 c 2,19,-1
 666 100 l 1,20,-1
 666 67 l 1,21,-1
 633 67 l 1,0,-1
EndSplineSet
EndChar

StartChar: aibu.cvc
Encoding: 92 -1 116
Width: 0
VWidth: 230
Flags: W
HStem: 334 133<334 400> 334 66<67 334 400 666>
VStem: 334 66<400 467>
AnchorPoint: "Above" 0 0 mark 0
LayerCount: 2
Back
SplineSet
367 434 m 5,0,-1
 367 368 l 1025
100 367 m 5,2,-1
 633 367 l 1025
EndSplineSet
Fore
SplineSet
67 367 m 1,0,-1
 67 400 l 1,1,-1
 100 400 l 1,2,-1
 334 400 l 1,3,-1
 334 434 l 1,4,-1
 334 467 l 1,5,-1
 367 467 l 1,6,-1
 400 467 l 1,7,-1
 400 434 l 1,8,-1
 400 400 l 1,9,-1
 633 400 l 1,10,-1
 666 400 l 1,11,-1
 666 367 l 1,12,-1
 666 334 l 1,13,-1
 633 334 l 1,14,-1
 100 334 l 1,15,-1
 67 334 l 1,16,-1
 67 367 l 1,0,-1
EndSplineSet
EndChar

StartChar: aubu.cvc
Encoding: 93 -1 117
Width: 0
VWidth: 230
Flags: W
HStem: 334 66<133 599>
VStem: 67 66<67 334> 599 66<67 334>
AnchorPoint: "Above" 0 0 mark 0
LayerCount: 2
Back
SplineSet
632 100 m 5,0,-1
 632 367 l 1,1,-1
 100 367 l 1,2,-1
 100 100 l 1025
EndSplineSet
Fore
SplineSet
632 67 m 1,0,-1
 599 67 l 1,1,-1
 599 100 l 1,2,-1
 599 334 l 1,3,-1
 133 334 l 1,4,-1
 133 100 l 1,5,-1
 133 67 l 1,6,-1
 100 67 l 1,7,-1
 67 67 l 1,8,-1
 67 100 l 1,9,-1
 67 367 l 2,10,11
 67 379 67 379 76.5 389.5 c 128,-1,12
 86 400 86 400 100 400 c 2,13,-1
 632 400 l 2,14,15
 644 400 644 400 654.5 390.5 c 128,-1,16
 665 381 665 381 665 367 c 2,17,-1
 665 100 l 1,18,-1
 665 67 l 1,19,-1
 632 67 l 1,0,-1
EndSplineSet
EndChar

StartChar: ny.cvc.3
Encoding: 64 -1 118
Width: 0
VWidth: 230
Flags: W
HStem: -67 66<265.991 466.991> 66 66<265.996 466.994> 200 66<265.999 466.999>
VStem: 200 65.9961<-1 66 132 200> 466.996 66<-1 66 132 200>
AnchorPoint: "Above" 0 0 mark 0
LayerCount: 2
Back
Refer: 35 -1 N 1 0 0 1 -2.84217e-14 -534 2
Fore
SplineSet
233 266 m 2,0,-1
 500 266 l 2,1,2
 514.056640625 266 514.056640625 266 523.528320312 255.33203125 c 128,-1,3
 533 244.6640625 533 244.6640625 533 232.999023438 c 0,4,5
 533 216.166015625 533 216.166015625 532.998046875 182.499023438 c 0,6,7
 532.99609375 148.5 532.99609375 148.5 532.99609375 132 c 1,8,-1
 533 99 l 1,9,-1
 533 66 l 2,10,11
 532.994140625 49.3330078125 532.994140625 49.3330078125 532.9921875 15.9990234375 c 128,-1,12
 532.990234375 -17.333984375 532.990234375 -17.333984375 532.990234375 -34.0009765625 c 0,13,14
 532.989257812 -47.69140625 532.989257812 -47.69140625 522.881835938 -57.345703125 c 128,-1,15
 512.774414062 -67 512.774414062 -67 499.990234375 -67 c 2,16,-1
 232.990234375 -67 l 2,17,18
 218.93359375 -67 218.93359375 -67 209.461914062 -56.33203125 c 128,-1,19
 199.990234375 -45.6640625 199.990234375 -45.6640625 199.990234375 -33.9990234375 c 2,20,-1
 200 233.000976562 l 2,21,22
 200.000976562 246.69140625 200.000976562 246.69140625 210.108398438 256.345703125 c 128,-1,23
 220.215820312 266 220.215820312 266 233 266 c 2,0,-1
466.99609375 132 m 1,24,25
 466.99609375 143.333007812 466.99609375 143.333007812 466.997070312 166 c 0,26,27
 466.999023438 189 466.999023438 189 466.999023438 200 c 1,28,-1
 265.999023438 200 l 1,29,30
 265.999023438 188.666992188 265.999023438 188.666992188 265.997070312 166 c 0,31,32
 265.99609375 143 265.99609375 143 265.99609375 132 c 1,33,-1
 466.99609375 132 l 1,24,25
466.994140625 66 m 1,34,-1
 265.994140625 66 l 1,35,36
 265.994140625 54.8330078125 265.994140625 54.8330078125 265.9921875 32.5 c 128,-1,37
 265.991210938 10.1669921875 265.991210938 10.1669921875 265.991210938 -1 c 1,38,-1
 466.991210938 -1 l 1,39,40
 466.991210938 10.1669921875 466.991210938 10.1669921875 466.9921875 32.5 c 128,-1,41
 466.994140625 54.8330078125 466.994140625 54.8330078125 466.994140625 66 c 1,34,-1
EndSplineSet
EndChar

StartChar: ibu.ccv
Encoding: 108 -1 119
Width: 0
VWidth: 230
Flags: W
HStem: 8.2423e-13 21G<400 466> 133 66<133 400 466 800>
VStem: 67 66<-67 133> 400 66<8.2423e-13 133>
AnchorPoint: "Above" 0 0 mark 0
LayerCount: 2
Back
SplineSet
433 163 m 5,0,1
 433 33 l 1025
767 166 m 5,3,-1
 100 166 l 1,4,-1
 100 -34 l 1025
EndSplineSet
Fore
SplineSet
800 166 m 1,0,-1
 800 133 l 1,1,-1
 767 133 l 1,2,-1
 466 133 l 1,3,-1
 466 33 l 1,4,-1
 466 8.24229573482e-13 l 1,5,-1
 433 8.24229573482e-13 l 1,6,-1
 400 8.24229573482e-13 l 1,7,-1
 400 33 l 1,8,-1
 400 133 l 1,9,-1
 133 133 l 1,10,-1
 133 -34 l 1,11,-1
 133 -67 l 1,12,-1
 100 -67 l 1,13,-1
 67 -67 l 1,14,-1
 67 -34 l 1,15,-1
 67 166 l 2,16,17
 67 178 67 178 76.5 188.5 c 128,-1,18
 86 199 86 199 100 199 c 2,19,-1
 767 199 l 1,20,-1
 800 199 l 1,21,-1
 800 166 l 1,0,-1
EndSplineSet
Substitution2: "Single Substitution lookup 73 subtable" ibu.cvc
Substitution2: "Single Substitution lookup 69 subtable" ibu.ccv
EndChar

StartChar: ubu.ccv
Encoding: 109 -1 120
Width: 0
VWidth: 230
Flags: W
HStem: 0 21G<334 400> 133 66<67 334 400 600>
VStem: 334 66<0 133> 600 66<-67 133>
AnchorPoint: "Above" 0 0 mark 0
LayerCount: 2
Back
SplineSet
433 163 m 1,0,-1
 433 32 l 1025
100 166 m 1,2,-1
 767 166 l 1,3,-1
 767 -34 l 1025
EndSplineSet
Fore
SplineSet
67 166 m 1,0,-1
 67 199 l 1,1,-1
 100 199 l 1,2,-1
 633 199 l 2,3,4
 647 199 647 199 656.5 188.5 c 128,-1,5
 666 178 666 178 666 166 c 2,6,-1
 666 -34 l 1,7,-1
 666 -67 l 1,8,-1
 633 -67 l 1,9,-1
 600 -67 l 1,10,-1
 600 -34 l 1,11,-1
 600 133 l 1,12,-1
 400 133 l 1,13,-1
 400 33 l 1,14,-1
 400 0 l 1,15,-1
 367 0 l 1,16,-1
 334 0 l 1,17,-1
 334 33 l 1,18,-1
 334 133 l 1,19,-1
 100 133 l 1,20,-1
 67 133 l 1,21,-1
 67 166 l 1,0,-1
EndSplineSet
Substitution2: "Single Substitution lookup 73 subtable" ubu.cvc
Substitution2: "Single Substitution lookup 69 subtable" ubu.ccv
EndChar

StartChar: abu.ccv
Encoding: 110 -1 121
Width: 0
VWidth: 230
Flags: W
HStem: 133 66<67 800>
AnchorPoint: "Above" 0 0 mark 0
LayerCount: 2
Back
SplineSet
100 166 m 5,0,-1
 767 166 l 1025
EndSplineSet
Fore
SplineSet
67 166 m 1,0,-1
 67 199 l 1,1,-1
 100 199 l 1,2,-1
 767 199 l 1,3,-1
 800 199 l 1,4,-1
 800 166 l 1,5,-1
 800 133 l 1,6,-1
 767 133 l 1,7,-1
 100 133 l 1,8,-1
 67 133 l 1,9,-1
 67 166 l 1,0,-1
EndSplineSet
Substitution2: "Single Substitution lookup 73 subtable" abu.cvc
Substitution2: "Single Substitution lookup 69 subtable" abu.ccv
EndChar

StartChar: aibu.ccv
Encoding: 124 -1 122
Width: 0
VWidth: 230
Flags: W
HStem: 133 133<334 400> 133 66<67 334 400 666>
VStem: 334 66<199 266>
AnchorPoint: "Above" 0 0 mark 0
LayerCount: 2
Back
SplineSet
433 300 m 5,0,-1
 433 166 l 1029
767 166 m 5,2,-1
 100 166 l 1029
EndSplineSet
Fore
SplineSet
800 166 m 1,0,-1
 800 133 l 1,1,-1
 767 133 l 1,2,-1
 466 133 l 1,3,-1
 433 133 l 1,4,-1
 400 133 l 1,5,-1
 100 133 l 1,6,-1
 67 133 l 1,7,-1
 67 166 l 1,8,-1
 67 199 l 1,9,-1
 100 199 l 1,10,-1
 400 199 l 1,11,-1
 400 300 l 1,12,-1
 400 333 l 1,13,-1
 433 333 l 1,14,-1
 466 333 l 1,15,-1
 466 300 l 1,16,-1
 466 199 l 1,17,-1
 767 199 l 1,18,-1
 800 199 l 1,19,-1
 800 166 l 1,0,-1
EndSplineSet
EndChar

StartChar: aubu.ccv
Encoding: 125 -1 123
Width: 0
VWidth: 230
Flags: W
HStem: 133 66<133 600>
VStem: 67 66<-67 133> 600 66<-67 133>
AnchorPoint: "Above" 0 0 mark 0
LayerCount: 2
Back
SplineSet
767 -34 m 5,0,-1
 767 166 l 5,1,-1
 100 166 l 5,2,-1
 100 -34 l 1029
EndSplineSet
Fore
SplineSet
767 -67 m 1,0,-1
 734 -67 l 1,1,-1
 734 -34 l 1,2,-1
 734 133 l 1,3,-1
 133 133 l 1,4,-1
 133 -34 l 1,5,-1
 133 -67 l 1,6,-1
 100 -67 l 1,7,-1
 67 -67 l 1,8,-1
 67 -34 l 1,9,-1
 67 166 l 2,10,11
 67 178 67 178 76.5 188.5 c 128,-1,12
 86 199 86 199 100 199 c 2,13,-1
 767 199 l 2,14,15
 779 199 779 199 789.5 189.5 c 128,-1,16
 800 180 800 180 800 166 c 2,17,-1
 800 -34 l 1,18,-1
 800 -67 l 1,19,-1
 767 -67 l 1,0,-1
EndSplineSet
EndChar

StartChar: sy.cvc.3
Encoding: 68 -1 124
Width: 0
VWidth: 230
Flags: W
HStem: 66 66<239.884 401> 199 66<254.224 401>
VStem: 401 66<-68 66 132 199>
AnchorPoint: "Above" 0 0 mark 0
LayerCount: 2
Back
Refer: 43 -1 S 1 0 0 1 -66 -535 2
Fore
SplineSet
434 -68 m 1,0,-1
 401 -68 l 1,1,-1
 401 -35 l 1,2,-1
 401 66 l 1,3,-1
 210.240234375 66 l 1,4,5
 198.296875 43.90625 198.296875 43.90625 185.288085938 24.33203125 c 128,-1,6
 172.278320312 4.7587890625 172.278320312 4.7587890625 152.53125 -21.74609375 c 128,-1,7
 132.784179688 -48.25 132.784179688 -48.25 127.888671875 -55.130859375 c 2,8,-1
 108.7578125 -82.01953125 l 1,9,-1
 81.869140625 -62.888671875 l 1,10,-1
 54.98046875 -43.7578125 l 1,11,-1
 74.111328125 -16.869140625 l 2,12,13
 79.2353515625 -9.6669921875 79.2353515625 -9.6669921875 103.286132812 22.70703125 c 128,-1,14
 127.336914062 55.0810546875 127.336914062 55.0810546875 134.884765625 67.681640625 c 128,-1,15
 142.43359375 80.2822265625 142.43359375 80.2822265625 158.482421875 109.486328125 c 128,-1,16
 174.53125 138.690429688 174.53125 138.690429688 183.860351562 169.190429688 c 128,-1,17
 193.188476562 199.69140625 193.188476562 199.69140625 200.592773438 238.2265625 c 0,18,19
 202.615234375 248.750976562 202.615234375 248.750976562 211.841796875 256.875 c 128,-1,20
 221.068359375 265 221.068359375 265 233 265 c 2,21,-1
 434 265 l 2,22,23
 446 265 446 265 456.5 255.5 c 128,-1,24
 467 246 467 246 467 232 c 2,25,-1
 467 -35 l 1,26,-1
 467 -68 l 1,27,-1
 434 -68 l 1,0,-1
401 132 m 1,28,-1
 401 199 l 1,29,-1
 259.73046875 199 l 1,30,31
 251.426757812 163.606445312 251.426757812 163.606445312 239.883789062 132 c 1,32,-1
 401 132 l 1,28,-1
EndSplineSet
EndChar

StartChar: dy.cvc.3
Encoding: 65 -1 125
Width: 0
VWidth: 230
Flags: W
HStem: -67.9902 66<265 534> 67 66<265 532> 200 66<265 534>
VStem: 199 66<-1.99023 67 133 200>
AnchorPoint: "Above" 0 0 mark 0
LayerCount: 2
Back
Refer: 40 -1 N 1 0 0 1 0 -534 2
Fore
SplineSet
534 -34.990234375 m 1,0,-1
 534 -67.990234375 l 1,1,-1
 501 -67.990234375 l 1,2,-1
 232 -67.990234375 l 2,3,4
 217.943359375 -67.990234375 217.943359375 -67.990234375 208.471679688 -57.322265625 c 128,-1,5
 199 -46.654296875 199 -46.654296875 199 -34.990234375 c 2,6,-1
 199 67 l 1,7,-1
 199 100 l 1,8,-1
 199 133 l 1,9,-1
 199 233 l 2,10,11
 199 247 199 247 209.5 256.5 c 128,-1,12
 220 266 220 266 232 266 c 2,13,-1
 501 266 l 1,14,-1
 534 266 l 1,15,-1
 534 233 l 1,16,-1
 534 200 l 1,17,-1
 501 200 l 1,18,-1
 265 200 l 1,19,-1
 265 133 l 1,20,-1
 499 133 l 1,21,-1
 532 133 l 1,22,-1
 532 100 l 1,23,-1
 532 67 l 1,24,-1
 499 67 l 1,25,-1
 265 67 l 1,26,-1
 265 -1.990234375 l 1,27,-1
 501 -1.990234375 l 1,28,-1
 534 -1.990234375 l 1,29,-1
 534 -34.990234375 l 1,0,-1
EndSplineSet
EndChar

StartChar: ty.cvc.3
Encoding: 66 -1 126
Width: 0
VWidth: 230
Flags: W
HStem: -66 66<199 467> 68 66<199 467> 201 66<199 467>
VStem: 467 66<0 68 134 201>
AnchorPoint: "Above" 0 0 mark 0
LayerCount: 2
Back
Refer: 41 -1 N 1 0 0 1 0 -533 2
Fore
SplineSet
199 234 m 1,0,-1
 199 267 l 1,1,-1
 232 267 l 1,2,-1
 500 267 l 2,3,4
 514 267 514 267 523.5 256.5 c 128,-1,5
 533 246 533 246 533 234 c 2,6,-1
 533 -33 l 2,7,8
 533 -47 533 -47 522.5 -56.5 c 128,-1,9
 512 -66 512 -66 500 -66 c 2,10,-1
 232 -66 l 1,11,-1
 199 -66 l 1,12,-1
 199 -33 l 1,13,-1
 199 0 l 1,14,-1
 232 0 l 1,15,-1
 467 0 l 1,16,-1
 467 68 l 1,17,-1
 232 68 l 1,18,-1
 199 68 l 1,19,-1
 199 101 l 1,20,-1
 199 134 l 1,21,-1
 232 134 l 1,22,-1
 467 134 l 1,23,-1
 467 201 l 1,24,-1
 232 201 l 1,25,-1
 199 201 l 1,26,-1
 199 234 l 1,0,-1
EndSplineSet
EndChar

StartChar: zy.cvc.3
Encoding: 67 -1 127
Width: 0
VWidth: 230
Flags: W
HStem: -67 66<266 412.776> 66 66<266 427.116>
VStem: 200 66<-1 66 132 266>
AnchorPoint: "Above" 0 0 mark 0
LayerCount: 2
Back
Refer: 42 -1 N 1 0 0 1 0 -534 2
Fore
SplineSet
233 266 m 1,0,-1
 266 266 l 1,1,-1
 266 233 l 1,2,-1
 266 132 l 1,3,-1
 456.760742188 132 l 1,4,5
 468.703125 154.09375 468.703125 154.09375 481.712890625 173.66796875 c 128,-1,6
 494.72265625 193.2421875 494.72265625 193.2421875 514.46875 219.745117188 c 128,-1,7
 534.21484375 246.249023438 534.21484375 246.249023438 539.111328125 253.130859375 c 2,8,-1
 558.241210938 280.01953125 l 1,9,-1
 585.130859375 260.888671875 l 1,10,-1
 612.01953125 241.758789062 l 1,11,-1
 592.888671875 214.869140625 l 2,12,13
 587.763671875 207.666015625 587.763671875 207.666015625 563.713867188 175.29296875 c 128,-1,14
 539.663085938 142.919921875 539.663085938 142.919921875 532.115234375 130.318359375 c 128,-1,15
 524.56640625 117.716796875 524.56640625 117.716796875 508.517578125 88.513671875 c 128,-1,16
 492.46875 59.3095703125 492.46875 59.3095703125 483.140625 28.8095703125 c 128,-1,17
 473.811523438 -1.69140625 473.811523438 -1.69140625 466.407226562 -40.2265625 c 0,18,19
 464.384765625 -50.7509765625 464.384765625 -50.7509765625 455.158203125 -58.875 c 128,-1,20
 445.931640625 -67 445.931640625 -67 434 -67 c 2,21,-1
 233 -67 l 2,22,23
 221 -67 221 -67 210.5 -57.5 c 128,-1,24
 200 -48 200 -48 200 -34 c 2,25,-1
 200 233 l 1,26,-1
 200 266 l 1,27,-1
 233 266 l 1,0,-1
266 66 m 1,28,-1
 266 -1 l 1,29,-1
 407.26953125 -1 l 1,30,31
 415.573242188 34.3935546875 415.573242188 34.3935546875 427.116210938 66 c 1,32,-1
 266 66 l 1,28,-1
EndSplineSet
EndChar

StartChar: gy.cvc.3
Encoding: 69 -1 128
Width: 0
VWidth: 230
Flags: W
VStem: 268.423 210.243
AnchorPoint: "Above" 0 0 mark 0
LayerCount: 2
Back
Refer: 44 -1 S 1 0 0 1 0 -534 2
Fore
SplineSet
455.069335938 256.59765625 m 1,0,-1
 478.666015625 233.528320312 l 1,1,-1
 455.59765625 209.930664062 l 1,2,-1
 347.234375 99.0869140625 l 1,3,-1
 455.510742188 -10.8427734375 l 1,4,-1
 478.66796875 -34.353515625 l 1,5,-1
 455.157226562 -57.5107421875 l 1,6,-1
 431.646484375 -80.66796875 l 1,7,-1
 408.489257812 -57.1572265625 l 1,8,-1
 277.489257812 75.8427734375 l 2,9,10
 268.943359375 84.51953125 268.943359375 84.51953125 268.422851562 97.984375 c 128,-1,11
 267.90234375 111.450195312 267.90234375 111.450195312 277.40234375 122.069335938 c 2,12,-1
 408.40234375 256.069335938 l 1,13,-1
 431.471679688 279.666015625 l 1,14,-1
 455.069335938 256.59765625 l 1,0,-1
EndSplineSet
EndChar

StartChar: jy.cvc.3
Encoding: 70 -1 129
Width: 0
VWidth: 230
Flags: W
HStem: -38 66<200 320.979 414.071 533>
VStem: 334 66<-147 -38>
AnchorPoint: "Above" 0 0 mark 0
LayerCount: 2
Back
Refer: 45 -1 N 1 0 0 1 0 -615 2
Fore
SplineSet
201.221679688 160.895507812 m 1,0,-1
 210.1171875 192.673828125 l 1,1,-1
 241.895507812 183.778320312 l 2,2,3
 327.849609375 159.71875 327.849609375 159.71875 367.94921875 85.2626953125 c 1,4,5
 407.151367188 154.974609375 407.151367188 154.974609375 489.270507812 183.20703125 c 2,6,-1
 520.478515625 193.936523438 l 1,7,-1
 531.20703125 162.729492188 l 1,8,-1
 541.936523438 131.521484375 l 1,9,-1
 510.729492188 120.79296875 l 2,10,11
 437.897460938 95.7529296875 437.897460938 95.7529296875 414.071289062 28 c 1,12,-1
 500 28 l 1,13,-1
 533 28 l 1,14,-1
 533 -5 l 1,15,-1
 533 -38 l 1,16,-1
 500 -38 l 1,17,-1
 401.608398438 -38 l 1,18,19
 400.622070312 -51.5625 400.622070312 -51.5625 400 -77.3974609375 c 2,20,-1
 400 -114 l 1,21,-1
 400 -147 l 1,22,-1
 367 -147 l 1,23,-1
 334 -147 l 1,24,-1
 334 -114 l 1,25,-1
 334 -77.15234375 l 2,26,27
 333.779296875 -53.40625 333.779296875 -53.40625 332.75 -38 c 1,28,-1
 233 -38 l 1,29,-1
 200 -38 l 1,30,-1
 200 -5 l 1,31,-1
 200 28 l 1,32,-1
 233 28 l 1,33,-1
 320.979492188 28 l 1,34,35
 297.18359375 99.765625 297.18359375 99.765625 224.104492188 120.221679688 c 2,36,-1
 192.326171875 129.1171875 l 1,37,-1
 201.221679688 160.895507812 l 1,0,-1
EndSplineSet
EndChar

StartChar: xy.cvc.3
Encoding: 71 -1 130
Width: 0
VWidth: 230
Flags: W
VStem: 335 66<62.0824 266>
AnchorPoint: "Above" 0 0 mark 0
LayerCount: 2
Back
Refer: 46 -1 S 1 0 0 1 0 -534 2
Fore
SplineSet
530.544921875 -46.490234375 m 1,0,-1
 518.0546875 -77.03515625 l 1,1,-1
 487.509765625 -64.544921875 l 2,2,3
 401.1015625 -29.2119140625 401.1015625 -29.2119140625 367.30859375 24.927734375 c 1,4,5
 355.298828125 8.189453125 355.298828125 8.189453125 336.823242188 -7.08203125 c 128,-1,6
 318.34765625 -22.3544921875 318.34765625 -22.3544921875 303.798828125 -31.2744140625 c 128,-1,7
 289.250976562 -40.1943359375 289.250976562 -40.1943359375 259.793945312 -56.7763671875 c 0,8,9
 252.815429688 -60.7060546875 252.815429688 -60.7060546875 249.244140625 -62.724609375 c 2,10,-1
 220.51953125 -78.9697265625 l 1,11,-1
 204.275390625 -50.244140625 l 1,12,-1
 188.030273438 -21.51953125 l 1,13,-1
 216.755859375 -5.275390625 l 2,14,15
 280.525390625 30.7880859375 280.525390625 30.7880859375 300.743164062 48.251953125 c 128,-1,16
 320.961914062 65.7158203125 320.961914062 65.7158203125 328.771484375 98.6162109375 c 0,17,18
 334.432617188 122.463867188 334.432617188 122.463867188 334.959960938 160.94140625 c 0,19,20
 334.908203125 167.041015625 334.908203125 167.041015625 335 173.249023438 c 2,21,-1
 335 233 l 1,22,-1
 335 266 l 1,23,-1
 368 266 l 1,24,-1
 401 266 l 1,25,-1
 401 233 l 1,26,-1
 401 173.090820312 l 1,27,-1
 401 165.0703125 l 1,28,-1
 401 158.319335938 l 2,29,30
 401.591796875 124.243164062 401.591796875 124.243164062 407.611328125 99.2216796875 c 0,31,32
 417.274414062 59.0615234375 417.274414062 59.0615234375 440.479492188 37.7822265625 c 128,-1,33
 463.68359375 16.501953125 463.68359375 16.501953125 512.490234375 -3.455078125 c 2,34,-1
 543.03515625 -15.9453125 l 1,35,-1
 530.544921875 -46.490234375 l 1,0,-1
EndSplineSet
EndChar

StartChar: iy.cvc.3
Encoding: 72 -1 131
Width: 0
VWidth: 230
Flags: W
HStem: -144 60<225 646>
VStem: 165 60<-84 246>
AnchorPoint: "Above" 0 0 mark 0
LayerCount: 2
Back
Refer: 47 -1 N 1 0 0 1 0 -616 2
Fore
SplineSet
646 -84 m 1,0,-1
 646 -144 l 1,1,-1
 195 -144 l 2,2,3
 182 -144 182 -144 173 -135 c 0,4,5
 165 -127 165 -127 165 -114 c 2,6,-1
 165 246 l 1,7,-1
 225 246 l 1,8,-1
 225 -84 l 1,9,-1
 646 -84 l 1,0,-1
EndSplineSet
EndChar

StartChar: ry.cvc.3
Encoding: 73 -1 132
Width: 0
VWidth: 230
Flags: W
AnchorPoint: "Above" 0 0 mark 0
LayerCount: 2
Back
Refer: 48 -1 S 1 0 0 1 1 -534 2
Fore
SplineSet
210.665039062 256.334960938 m 1,0,-1
 234 279.668945312 l 1,1,-1
 257.334960938 256.334960938 l 1,2,-1
 367.5 146.168945312 l 1,3,-1
 477.665039062 256.334960938 l 1,4,-1
 501 279.668945312 l 1,5,-1
 524.334960938 256.334960938 l 1,6,-1
 547.668945312 233 l 1,7,-1
 524.334960938 209.665039062 l 1,8,-1
 414.168945312 99.5 l 1,9,-1
 524.334960938 -10.6650390625 l 1,10,-1
 547.668945312 -34 l 1,11,-1
 524.334960938 -57.3349609375 l 1,12,-1
 501 -80.6689453125 l 1,13,-1
 477.665039062 -57.3349609375 l 1,14,-1
 367.5 52.8310546875 l 1,15,-1
 257.334960938 -57.3349609375 l 1,16,-1
 234 -80.6689453125 l 1,17,-1
 210.665039062 -57.3349609375 l 1,18,-1
 187.331054688 -34 l 1,19,-1
 210.665039062 -10.6650390625 l 1,20,-1
 320.831054688 99.5 l 1,21,-1
 210.665039062 209.665039062 l 1,22,-1
 187.331054688 233 l 1,23,-1
 210.665039062 256.334960938 l 1,0,-1
EndSplineSet
EndChar

StartChar: my.cvc.3
Encoding: 80 -1 133
Width: 0
VWidth: 230
Flags: W
HStem: -67 66<266 467> 200 66<266 467>
VStem: 200 66<-1 200> 467 66<-1 200>
AnchorPoint: "Above" 0 0 mark 0
LayerCount: 2
Back
Refer: 49 -1 S 1 0 0 1 0 -534 2
Fore
SplineSet
266 200 m 1,0,-1
 266 -1 l 1,1,-1
 467 -1 l 1,2,-1
 467 200 l 1,3,-1
 266 200 l 1,0,-1
233 266 m 2,4,-1
 500 266 l 2,5,6
 514 266 514 266 523.5 255.5 c 128,-1,7
 533 245 533 245 533 233 c 2,8,-1
 533 -34 l 2,9,10
 533 -48 533 -48 522.5 -57.5 c 128,-1,11
 512 -67 512 -67 500 -67 c 2,12,-1
 233 -67 l 2,13,14
 219 -67 219 -67 209.5 -56.5 c 128,-1,15
 200 -46 200 -46 200 -34 c 2,16,-1
 200 233 l 2,17,18
 200 247 200 247 210.5 256.5 c 128,-1,19
 221 266 221 266 233 266 c 2,4,-1
EndSplineSet
EndChar

StartChar: by.cvc.3
Encoding: 81 -1 134
Width: 0
VWidth: 230
Flags: W
HStem: -67 66<266 533> 200 66<266 533>
VStem: 200 66<-1 200>
AnchorPoint: "Above" 0 0 mark 0
LayerCount: 2
Back
Refer: 50 -1 S 1 0 0 1 0 -534 2
Fore
SplineSet
533 233 m 1,0,-1
 533 200 l 1,1,-1
 500 200 l 1,2,-1
 266 200 l 1,3,-1
 266 -1 l 1,4,-1
 500 -1 l 1,5,-1
 533 -1 l 1,6,-1
 533 -34 l 1,7,-1
 533 -67 l 1,8,-1
 500 -67 l 1,9,-1
 233 -67 l 2,10,11
 221 -67 221 -67 210.5 -57.5 c 128,-1,12
 200 -48 200 -48 200 -34 c 2,13,-1
 200 233 l 2,14,15
 200 245 200 245 209.5 255.5 c 128,-1,16
 219 266 219 266 233 266 c 2,17,-1
 500 266 l 1,18,-1
 533 266 l 1,19,-1
 533 233 l 1,0,-1
EndSplineSet
EndChar

StartChar: py.cvc.3
Encoding: 82 -1 135
Width: 0
VWidth: 230
Flags: W
HStem: -67 66<200 467> 200 66<200 467>
VStem: 467 66<-1 200>
AnchorPoint: "Above" 0 0 mark 0
LayerCount: 2
Back
Refer: 51 -1 S 1 0 0 1 0 -534 2
Fore
SplineSet
200 233 m 1,0,-1
 200 266 l 1,1,-1
 233 266 l 1,2,-1
 500 266 l 2,3,4
 514 266 514 266 523.5 255.5 c 128,-1,5
 533 245 533 245 533 233 c 2,6,-1
 533 -34 l 2,7,8
 533 -48 533 -48 522.5 -57.5 c 128,-1,9
 512 -67 512 -67 500 -67 c 2,10,-1
 233 -67 l 1,11,-1
 200 -67 l 1,12,-1
 200 -34 l 1,13,-1
 200 -1 l 1,14,-1
 233 -1 l 1,15,-1
 467 -1 l 1,16,-1
 467 200 l 1,17,-1
 233 200 l 1,18,-1
 200 200 l 1,19,-1
 200 233 l 1,0,-1
EndSplineSet
EndChar

StartChar: vy.cvc.3
Encoding: 83 -1 136
Width: 0
VWidth: 230
Flags: W
HStem: -69 66<266 412.698>
VStem: 200 66<-3 264>
AnchorPoint: "Above" 0 0 mark 0
LayerCount: 2
Back
Refer: 52 -1 S 1 0 0 1 -2.84217e-14 -536 2
Fore
SplineSet
233 264 m 1,0,-1
 266 264 l 1,1,-1
 266 231 l 1,2,-1
 266 -3 l 1,3,-1
 407.26953125 -3 l 1,4,5
 416.055664062 34.447265625 416.055664062 34.447265625 427.247070312 65.8623046875 c 128,-1,6
 438.439453125 97.27734375 438.439453125 97.27734375 455.268554688 126.71484375 c 128,-1,7
 472.098632812 156.153320312 472.098632812 156.153320312 480.947265625 170.348632812 c 128,-1,8
 489.795898438 184.544921875 489.795898438 184.544921875 512.356445312 214.890625 c 128,-1,9
 534.916992188 245.236328125 534.916992188 245.236328125 539.111328125 251.130859375 c 2,10,-1
 558.241210938 278.01953125 l 1,11,-1
 585.130859375 258.888671875 l 1,12,-1
 612.01953125 239.758789062 l 1,13,-1
 592.888671875 212.869140625 l 2,14,15
 587.763671875 205.666015625 587.763671875 205.666015625 563.713867188 173.29296875 c 128,-1,16
 539.663085938 140.919921875 539.663085938 140.919921875 532.115234375 128.318359375 c 128,-1,17
 524.56640625 115.716796875 524.56640625 115.716796875 508.517578125 86.513671875 c 128,-1,18
 492.46875 57.3095703125 492.46875 57.3095703125 483.140625 26.8095703125 c 128,-1,19
 473.811523438 -3.69140625 473.811523438 -3.69140625 466.407226562 -42.2265625 c 0,20,21
 464.384765625 -52.7509765625 464.384765625 -52.7509765625 455.158203125 -60.875 c 128,-1,22
 445.931640625 -69 445.931640625 -69 434 -69 c 2,23,-1
 233 -69 l 2,24,25
 221 -69 221 -69 210.5 -59.5 c 128,-1,26
 200 -50 200 -50 200 -36 c 2,27,-1
 200 231 l 1,28,-1
 200 264 l 1,29,-1
 233 264 l 1,0,-1
EndSplineSet
EndChar

StartChar: fy.cvc.3
Encoding: 84 -1 137
Width: 0
VWidth: 230
Flags: W
HStem: 200 66<320.302 467>
VStem: 467 66<-67 200>
AnchorPoint: "Above" 0 0 mark 0
LayerCount: 2
Back
Refer: 53 -1 S 1 0 0 1 -5.68434e-14 -534 2
Fore
SplineSet
500 -67 m 1,0,-1
 467 -67 l 1,1,-1
 467 -34 l 1,2,-1
 467 200 l 1,3,-1
 325.73046875 200 l 1,4,5
 316.9453125 162.552734375 316.9453125 162.552734375 305.752929688 131.137695312 c 128,-1,6
 294.561523438 99.7236328125 294.561523438 99.7236328125 277.731445312 70.28515625 c 128,-1,7
 260.901367188 40.8466796875 260.901367188 40.8466796875 252.052734375 26.650390625 c 128,-1,8
 243.205078125 12.455078125 243.205078125 12.455078125 220.643554688 -17.890625 c 128,-1,9
 198.08203125 -48.2373046875 198.08203125 -48.2373046875 193.888671875 -54.130859375 c 2,10,-1
 174.7578125 -81.01953125 l 1,11,-1
 147.869140625 -61.888671875 l 1,12,-1
 120.98046875 -42.7578125 l 1,13,-1
 140.111328125 -15.869140625 l 2,14,15
 145.235351562 -8.6669921875 145.235351562 -8.6669921875 169.286132812 23.70703125 c 128,-1,16
 193.336914062 56.0810546875 193.336914062 56.0810546875 200.884765625 68.681640625 c 128,-1,17
 208.43359375 81.2822265625 208.43359375 81.2822265625 224.482421875 110.486328125 c 128,-1,18
 240.53125 139.690429688 240.53125 139.690429688 249.860351562 170.190429688 c 128,-1,19
 259.188476562 200.69140625 259.188476562 200.69140625 266.592773438 239.2265625 c 0,20,21
 268.615234375 249.750976562 268.615234375 249.750976562 277.841796875 257.875 c 128,-1,22
 287.068359375 266 287.068359375 266 299 266 c 2,23,-1
 500 266 l 2,24,25
 512 266 512 266 522.5 256.5 c 128,-1,26
 533 247 533 247 533 233 c 2,27,-1
 533 -34 l 1,28,-1
 533 -67 l 1,29,-1
 500 -67 l 1,0,-1
EndSplineSet
EndChar

StartChar: ky.cvc.3
Encoding: 85 -1 138
Width: 0
VWidth: 230
Flags: W
VStem: 254.331 212.335
AnchorPoint: "Above" 0 0 mark 0
LayerCount: 2
Back
Refer: 54 -1 S 1 0 0 1 0 -534 2
Fore
SplineSet
277.752929688 256.421875 m 1,0,-1
 301.174804688 279.668945312 l 1,1,-1
 324.421875 256.247070312 l 1,2,-1
 457.421875 122.247070312 l 2,3,4
 467.04296875 111.936523438 467.04296875 111.936523438 466.666015625 98.2783203125 c 128,-1,5
 466.2890625 84.6201171875 466.2890625 84.6201171875 457.334960938 75.6650390625 c 2,6,-1
 324.334960938 -57.3349609375 l 1,7,-1
 301 -80.6689453125 l 1,8,-1
 277.665039062 -57.3349609375 l 1,9,-1
 254.331054688 -34 l 1,10,-1
 277.665039062 -10.6650390625 l 1,11,-1
 387.41796875 99.0869140625 l 1,12,-1
 277.578125 209.752929688 l 1,13,-1
 254.331054688 233.174804688 l 1,14,-1
 277.752929688 256.421875 l 1,0,-1
EndSplineSet
EndChar

StartChar: cy.cvc.3
Encoding: 86 -1 139
Width: 0
VWidth: 230
Flags: W
HStem: -66 66<200 289.952 442.102 533> 91 66<200 324.762 407.624 533>
VStem: 333 66<157 266>
AnchorPoint: "Above" 0 0 mark 0
LayerCount: 2
Back
Refer: 55 -1 S 1 0 0 1 0 -534 2
Fore
SplineSet
533 -33 m 1,0,-1
 533 -66 l 1,1,-1
 500 -66 l 2,2,3
 453.39453125 -66 453.39453125 -66 419.544921875 -44.59765625 c 128,-1,4
 385.6953125 -23.1953125 385.6953125 -23.1953125 366.52734375 11.2333984375 c 1,5,6
 324.259765625 -66 324.259765625 -66 233 -66 c 2,7,-1
 200 -66 l 1,8,-1
 200 -33 l 1,9,-1
 200 0 l 1,10,-1
 233 0 l 2,11,12
 306.23046875 0 306.23046875 0 324.76171875 91 c 1,13,-1
 233 91 l 1,14,-1
 200 91 l 1,15,-1
 200 124 l 1,16,-1
 200 157 l 1,17,-1
 233 157 l 1,18,-1
 331.874023438 157 l 1,19,20
 332.284179688 166.5234375 332.284179688 166.5234375 333 196.396484375 c 2,21,-1
 333 233 l 1,22,-1
 333 266 l 1,23,-1
 366 266 l 1,24,-1
 399 266 l 1,25,-1
 399 233 l 1,26,-1
 399 196.15234375 l 2,27,28
 399.221679688 172.17578125 399.221679688 172.17578125 399.903320312 157 c 1,29,-1
 500 157 l 1,30,-1
 533 157 l 1,31,-1
 533 124 l 1,32,-1
 533 91 l 1,33,-1
 500 91 l 1,34,-1
 407.624023438 91 l 1,35,36
 427.479492188 0 427.479492188 0 500 0 c 2,37,-1
 533 0 l 1,38,-1
 533 -33 l 1,0,-1
EndSplineSet
EndChar

StartChar: yhy.cvc.3
Encoding: 87 -1 140
Width: 0
VWidth: 230
Flags: W
VStem: 165 60<-49 248> 586 60<-141 156>
AnchorPoint: "Above" 0 0 mark 0
LayerCount: 2
Back
Refer: 56 -1 S 1 0 0 1 0 -614 2
Fore
SplineSet
646 -141 m 1,0,-1
 586 -141 l 1,1,-1
 586 156 l 1,2,-1
 213 -135 l 2,3,4
 204 -142 204 -142 188 -140 c 128,-1,5
 172 -138 172 -138 165 -128 c 1,6,-1
 165 248 l 1,7,-1
 225 248 l 1,8,-1
 225 -49 l 1,9,-1
 611 252 l 1,10,11
 622 253 622 253 635 242 c 0,12,13
 646 232 646 232 646 218 c 2,14,-1
 646 -141 l 1,0,-1
EndSplineSet
EndChar

StartChar: uy.cvc.3
Encoding: 88 -1 141
Width: 0
VWidth: 230
Flags: W
HStem: -143 60<165 586>
VStem: 586 60<-83 246>
AnchorPoint: "Above" 0 0 mark 0
LayerCount: 2
Back
Refer: 57 -1 S 1 0 0 1 0 -616 2
Fore
SplineSet
586 246 m 1,0,-1
 646 246 l 1,1,-1
 646 -113 l 2,2,3
 646 -125 646 -125 636 -135 c 0,4,5
 628 -143 628 -143 616 -143 c 2,6,-1
 165 -143 l 1,7,-1
 165 -83 l 1,8,-1
 586 -83 l 1,9,-1
 586 246 l 1,0,-1
EndSplineSet
EndChar

StartChar: ly.cvc.3
Encoding: 89 -1 142
Width: 0
VWidth: 230
Flags: W
HStem: -67 66<266 533> 66 66<266 467> 200 66<200 467>
VStem: 200 66<-1 66> 467 66<132 200>
AnchorPoint: "Above" 0 0 mark 0
LayerCount: 2
Back
Refer: 58 -1 S 1 0 0 1 0 -534 2
Fore
SplineSet
200 233 m 1,0,-1
 200 266 l 1,1,-1
 233 266 l 1,2,-1
 500 266 l 2,3,4
 514 266 514 266 523.5 255.5 c 128,-1,5
 533 245 533 245 533 233 c 2,6,-1
 533 99 l 2,7,8
 533 85 533 85 522.5 75.5 c 128,-1,9
 512 66 512 66 500 66 c 2,10,-1
 266 66 l 1,11,-1
 266 -1 l 1,12,-1
 500 -1 l 1,13,-1
 533 -1 l 1,14,-1
 533 -34 l 1,15,-1
 533 -67 l 1,16,-1
 500 -67 l 1,17,-1
 233 -67 l 2,18,19
 221 -67 221 -67 210.5 -57.5 c 128,-1,20
 200 -48 200 -48 200 -34 c 2,21,-1
 200 99 l 2,22,23
 200 111 200 111 209.5 121.5 c 128,-1,24
 219 132 219 132 233 132 c 2,25,-1
 467 132 l 1,26,-1
 467 200 l 1,27,-1
 233 200 l 1,28,-1
 200 200 l 1,29,-1
 200 233 l 1,0,-1
EndSplineSet
EndChar

StartChar: denpabu.ccv.1
Encoding: 127 -1 143
Width: 733
VWidth: 230
Flags: W
HStem: 255 60<193.93 254.07> 801 60<193.93 254.07>
VStem: 74 60<408.538 707.462> 314 60<408.538 707.462>
AnchorPoint: "Above" 0 0 basechar 0
LayerCount: 2
Back
SplineSet
104.009765625 558.009765625 m 4,0,1
 104.009765625 671.113213901 104.009765625 671.113213901 139.227487144 751.061489763 c 0
 174.445208663 831.009765625 174.445208663 831.009765625 224.009765625 831.009765625 c 0,2,3
 273.574322587 831.009765625 273.574322587 831.009765625 308.792044106 751.061489763 c 0
 344.009765625 671.113213901 344.009765625 671.113213901 344.009765625 558.009765625 c 0,4,5
 344.009765625 444.906317349 344.009765625 444.906317349 308.792044106 364.958041487 c 0
 273.574322587 285.009765625 273.574322587 285.009765625 224.009765625 285.009765625 c 0,6,7
 174.445208663 285.009765625 174.445208663 285.009765625 139.227487144 364.958041487 c 0
 104.009765625 444.906317349 104.009765625 444.906317349 104.009765625 558.009765625 c 4,0,1
EndSplineSet
Fore
SplineSet
74 558 m 128,-1,1
 74 678 74 678 114 770 c 0,2,3
 153 861 153 861 224 861 c 128,-1,4
 295 861 295 861 334 770 c 0,5,6
 374 678 374 678 374 558 c 128,-1,7
 374 438 374 438 334 346 c 0,8,9
 295 255 295 255 224 255 c 128,-1,10
 153 255 153 255 114 346 c 0,11,0
 74 438 74 438 74 558 c 128,-1,1
134 558 m 128,-1,13
 134 508 134 508 144 455 c 0,14,15
 153 406 153 406 168 378 c 0,16,17
 186 345 186 345 197 332 c 0,18,19
 212 315 212 315 224 315 c 128,-1,20
 236 315 236 315 251 332 c 0,21,22
 262 345 262 345 280 378 c 0,23,24
 295 406 295 406 304 455 c 0,25,26
 314 508 314 508 314 558 c 128,-1,27
 314 608 314 608 304 661 c 0,28,29
 295 710 295 710 280 738 c 0,30,31
 262 771 262 771 251 784 c 0,32,33
 236 801 236 801 224 801 c 128,-1,34
 212 801 212 801 197 784 c 0,35,36
 186 771 186 771 168 738 c 0,37,38
 153 710 153 710 144 661 c 0,39,12
 134 608 134 608 134 558 c 128,-1,13
EndSplineSet
EndChar

StartChar: denpabu.cvc.3
Encoding: 95 -1 144
Width: 0
VWidth: 230
Flags: W
HStem: -128 66<304.304 427.696> 138 66<304.304 427.696>
VStem: 200 66<-23.6965 99.6965> 466 66<-23.6965 99.6965>
AnchorPoint: "Above" 0 0 mark 0
LayerCount: 2
Back
Refer: 78 -1 N 1 0 0 1 0 -595 2
Fore
SplineSet
266 38 m 128,-1,1
 266 -3 266 -3 295.5 -32.5 c 128,-1,2
 325 -62 325 -62 366 -62 c 128,-1,3
 407 -62 407 -62 436.5 -32.5 c 128,-1,4
 466 -3 466 -3 466 38 c 128,-1,5
 466 79 466 79 436.5 108.5 c 128,-1,6
 407 138 407 138 366 138 c 128,-1,7
 325 138 325 138 295.5 108.5 c 128,-1,0
 266 79 266 79 266 38 c 128,-1,1
200 38 m 128,-1,9
 200 106 200 106 249 155 c 128,-1,10
 298 204 298 204 366 204 c 128,-1,11
 434 204 434 204 483 155 c 128,-1,12
 532 106 532 106 532 38 c 128,-1,13
 532 -30 532 -30 483 -79 c 128,-1,14
 434 -128 434 -128 366 -128 c 128,-1,15
 298 -128 298 -128 249 -79 c 128,-1,8
 200 -30 200 -30 200 38 c 128,-1,9
EndSplineSet
EndChar

StartChar: guillemotleft
Encoding: 160 171 145
Width: 800
VWidth: 230
Flags: W
LayerCount: 2
Back
SplineSet
586.009765625 503.009765625 m 5,0,-1
 405.009765625 360.009765625 l 1,1,-1
 586.009765625 217.009765625 l 1025
405.009765625 503.009765625 m 5,3,-1
 224.009765625 360.009765625 l 1,4,-1
 405.009765625 217.009765625 l 1025
EndSplineSet
Fore
SplineSet
410 545 m 1,0,-1
 447 498 l 1,1,-1
 272 360 l 1,2,-1
 447 222 l 1,3,-1
 410 175 l 1,4,-1
 202 339 l 2,5,6
 192 348 192 348 194 362 c 0,7,8
 196 377 196 377 205 384 c 2,9,-1
 410 545 l 1,0,-1
591 545 m 1,10,-1
 628 498 l 1,11,-1
 453 360 l 1,12,-1
 628 222 l 1,13,-1
 591 175 l 1,14,-1
 383 339 l 2,15,16
 374 348 374 348 375 362 c 0,17,18
 377 377 377 377 386 384 c 2,19,-1
 591 545 l 1,10,-1
EndSplineSet
EndChar

StartChar: guillemotright
Encoding: 161 187 146
Width: 800
VWidth: 230
Flags: W
LayerCount: 2
Back
Refer: 145 171 N -1 0 0 1 816 0 2
Fore
SplineSet
412 545 m 1,0,-1
 375 498 l 1,1,-1
 550 360 l 1,2,-1
 375 222 l 1,3,-1
 412 175 l 1,4,-1
 620 339 l 2,5,6
 630 348 630 348 628 362 c 0,7,8
 626 377 626 377 617 384 c 2,9,-1
 412 545 l 1,0,-1
231 545 m 1,10,-1
 194 498 l 1,11,-1
 369 360 l 1,12,-1
 194 222 l 1,13,-1
 231 175 l 1,14,-1
 439 339 l 2,15,16
 448 348 448 348 447 362 c 0,17,18
 445 377 445 377 436 384 c 2,19,-1
 231 545 l 1,10,-1
EndSplineSet
EndChar

StartChar: parenright
Encoding: 163 41 147
Width: 500
VWidth: 230
Flags: W
VStem: 355 60<223.332 494.858>
LayerCount: 2
Back
Refer: 148 40 N -1 0 0 1 488.619 0 2
Fore
SplineSet
103 873 m 1,0,-1
 71 823 l 1,1,-1
 96 807 l 2,2,3
 98 806 98 806 112 796 c 2,4,-1
 148 766 l 2,5,6
 166 751 166 751 200 717 c 0,7,8
 220 697 220 697 254 651 c 0,9,10
 285 609 285 609 305 569 c 0,11,12
 324 532 324 532 340 471 c 0,13,14
 355 416 355 416 355 359 c 128,-1,15
 355 302 355 302 340 247 c 0,16,17
 325 190 325 190 304 149 c 0,18,19
 284 109 284 109 253 67 c 0,20,21
 219 21 219 21 199 1 c 0,22,23
 166 -32 166 -32 148 -47 c 0,24,25
 118 -72 118 -72 111 -77 c 0,26,27
 108 -79 108 -79 105 -81.5 c 128,-1,28
 102 -84 102 -84 100 -85.5 c 128,-1,29
 98 -87 98 -87 96 -88 c 2,30,-1
 71 -104 l 1,31,-1
 103 -154 l 1,32,-1
 127 -139 l 2,33,34
 134.5 -134.5 134.5 -134.5 145 -127 c 0,35,36
 160 -116 160 -116 185 -95 c 0,37,38
 212 -72 212 -72 242 -42 c 0,39,40
 269 -15 269 -15 302 30 c 0,41,42
 334 74 334 74 359 122 c 0,43,44
 382 166 382 166 399 232 c 0,45,46
 415 293 415 293 415 359 c 0,47,48
 415 426 415 426 399 487 c 0,49,50
 382 551 382 551 359 596 c 0,51,52
 334 644 334 644 302 688 c 0,53,54
 269 733 269 733 242 760 c 0,55,56
 205 797 205 797 185 814 c 0,57,58
 160 835 160 835 145 846 c 0,59,60
 138 851 138 851 128 857 c 2,61,-1
 103 873 l 1,0,-1
EndSplineSet
EndChar

StartChar: parenleft
Encoding: 162 40 148
Width: 500
VWidth: 230
Flags: W
VStem: 74 60<223.332 494.858>
LayerCount: 2
Back
SplineSet
377.009765625 832.009765625 m 24,0,1
 371.304146873 828.361129067 371.304146873 828.361129067 361.478330115 821.456229805 c 0
 351.652513357 814.551330544 351.652513357 814.551330544 323.296969402 790.585930362 c 0
 294.941425448 766.62053018 294.941425448 766.62053018 269.152568225 739.948588133 c 0
 243.363711002 713.276646085 243.363711002 713.276646085 211.869115448 670.75158725 c 0
 180.374519894 628.226528415 180.374519894 628.226528415 157.724355534 583.500804332 c 0
 135.074191173 538.775080249 135.074191173 538.775080249 119.542277347 479.403623511 c 0
 104.01036352 420.032166773 104.01036352 420.032166773 104.009765625 359.009765625 c 0,2,3
 104.00916773 298.195232781 104.00916773 298.195232781 119.06496703 239.29532759 c 0
 134.120766331 180.395422399 134.120766331 180.395422399 158.197258507 134.859094559 c 0
 182.273750684 89.3227667183 182.273750684 89.3227667183 211.391190154 48.3924599695 c 0
 240.508629624 7.46215322066 240.508629624 7.46215322066 269.626188673 -21.3052469593 c 0
 298.743747722 -50.0726471392 298.743747722 -50.0726471392 322.820479057 -71.2831618417 c 0
 346.897210391 -92.4936765443 346.897210391 -92.4936765443 361.953488008 -102.74195546 c 2
 377.009765625 -112.990234375 l 1025
EndSplineSet
Fore
SplineSet
386 873 m 1,0,-1
 418 823 l 1,1,-1
 393 807 l 2,2,3
 391 806 391 806 377 796 c 2,4,-1
 341 766 l 2,5,6
 323 751 323 751 289 717 c 0,7,8
 269 697 269 697 235 651 c 0,9,10
 204 609 204 609 184 569 c 0,11,12
 165 532 165 532 149 471 c 0,13,14
 134 416 134 416 134 359 c 128,-1,15
 134 302 134 302 149 247 c 0,16,17
 164 190 164 190 185 149 c 0,18,19
 205 109 205 109 236 67 c 0,20,21
 270 21 270 21 290 1 c 0,22,23
 323 -32 323 -32 341 -47 c 0,24,25
 371 -72 371 -72 378 -77 c 0,26,27
 381 -79 381 -79 384 -81.5 c 128,-1,28
 387 -84 387 -84 389 -85.5 c 128,-1,29
 391 -87 391 -87 393 -88 c 2,30,-1
 418 -104 l 1,31,-1
 386 -154 l 1,32,-1
 362 -139 l 2,33,34
 354.5 -134.5 354.5 -134.5 344 -127 c 0,35,36
 329 -116 329 -116 304 -95 c 0,37,38
 277 -72 277 -72 247 -42 c 0,39,40
 220 -15 220 -15 187 30 c 0,41,42
 155 74 155 74 130 122 c 0,43,44
 107 166 107 166 90 232 c 0,45,46
 74 293 74 293 74 359 c 0,47,48
 74 426 74 426 90 487 c 0,49,50
 107 551 107 551 130 596 c 0,51,52
 155 644 155 644 187 688 c 0,53,54
 220 733 220 733 247 760 c 0,55,56
 284 797 284 797 304 814 c 0,57,58
 329 835 329 835 344 846 c 0,59,60
 351 851 351 851 361 857 c 2,61,-1
 386 873 l 1,0,-1
EndSplineSet
EndChar

StartChar: denpabu_iy
Encoding: 174 -1 149
Width: 810
VWidth: 2427
Flags: W
HStem: 256 59<162 710> 456 60<394.059 541.941> 800 60<394.059 541.941>
VStem: 102 60<315 858> 270 60<581.026 734.974> 606 60<581.026 734.974>
AnchorPoint: "Above" 0 0 basechar 0
LayerCount: 2
Back
SplineSet
131.877929688 827.811523438 m 5,0,-1
 131.877929688 284.955078125 l 1,1,-1
 680.229492188 285.50390625 l 1025
300.009765625 658.009765625 m 0,3,4
 300.009765625 729.296802662 300.009765625 729.296802662 349.152837914 779.653284144 c 0
 398.295910203 830.009765625 398.295910203 830.009765625 468.009765625 830.009765625 c 0,5,6
 537.723621047 830.009765625 537.723621047 830.009765625 586.866693336 779.653284144 c 0
 636.009765625 729.296802662 636.009765625 729.296802662 636.009765625 658.009765625 c 0,7,8
 636.009765625 586.722728588 636.009765625 586.722728588 586.866693336 536.366247106 c 0
 537.723621047 486.009765625 537.723621047 486.009765625 468.009765625 486.009765625 c 0,9,10
 398.295910203 486.009765625 398.295910203 486.009765625 349.152837914 536.366247106 c 0
 300.009765625 586.722728588 300.009765625 586.722728588 300.009765625 658.009765625 c 0,3,4
EndSplineSet
Fore
SplineSet
102 858 m 1,0,-1
 162 858 l 1,1,-1
 162 315 l 1,2,-1
 710 315 l 1,3,-1
 710 256 l 1,4,-1
 132 256 l 2,5,6
 120 256 120 256 112 264 c 0,7,8
 102 274 102 274 102 285 c 2,9,-1
 102 858 l 1,0,-1
330 658 m 128,-1,11
 330 599 330 599 370 558 c 0,12,13
 410 516 410 516 468 516 c 128,-1,14
 526 516 526 516 566 558 c 0,15,16
 606 599 606 599 606 658 c 128,-1,17
 606 717 606 717 566 758 c 0,18,19
 526 800 526 800 468 800 c 128,-1,20
 410 800 410 800 370 758 c 0,21,10
 330 717 330 717 330 658 c 128,-1,11
270 658 m 128,-1,23
 270 741 270 741 328 800 c 0,24,25
 386 860 386 860 468 860 c 128,-1,26
 550 860 550 860 608 800 c 0,27,28
 666 741 666 741 666 658 c 128,-1,29
 666 575 666 575 608 516 c 0,30,31
 550 456 550 456 468 456 c 128,-1,32
 386 456 386 456 328 516 c 0,33,22
 270 575 270 575 270 658 c 128,-1,23
EndSplineSet
LCarets2: 1 0
Ligature2: "Vdenpabu subtable" denpabu iy
EndChar

StartChar: denpabu_uy
Encoding: 175 -1 150
Width: 810
VWidth: 2427
Flags: W
HStem: 255 60<102 652> 455 60<269.519 416.481> 799 60<269.519 416.481>
VStem: 145 60<581.432 732.568> 481 60<581.432 732.568> 652 60<315 864>
AnchorPoint: "Above" 0 0 basechar 0
LayerCount: 2
Back
SplineSet
131.877929688 285.50390625 m 1,0,-1
 682.427734375 285.50390625 l 1,1,-1
 682.427734375 834.405273438 l 1025
175.009765625 657.009765625 m 0,3,4
 175.009765625 728.296802662 175.009765625 728.296802662 224.152837914 778.653284144 c 0
 273.295910203 829.009765625 273.295910203 829.009765625 343.009765625 829.009765625 c 0,5,6
 412.723621047 829.009765625 412.723621047 829.009765625 461.866693336 778.653284144 c 0
 511.009765625 728.296802662 511.009765625 728.296802662 511.009765625 657.009765625 c 0,7,8
 511.009765625 585.722728588 511.009765625 585.722728588 461.866693336 535.366247106 c 0
 412.723621047 485.009765625 412.723621047 485.009765625 343.009765625 485.009765625 c 0,9,10
 273.295910203 485.009765625 273.295910203 485.009765625 224.152837914 535.366247106 c 0
 175.009765625 585.722728588 175.009765625 585.722728588 175.009765625 657.009765625 c 0,3,4
EndSplineSet
Fore
SplineSet
102 255 m 1,0,-1
 102 315 l 1,1,-1
 652 315 l 1,2,-1
 652 864 l 1,3,-1
 712 864 l 1,4,-1
 712 285 l 2,5,6
 712 273 712 273 704 265 c 0,7,8
 694 255 694 255 682 255 c 2,9,-1
 102 255 l 1,0,-1
205 657 m 128,-1,11
 205 599 205 599 246 556 c 0,12,13
 286 515 286 515 343 515 c 128,-1,14
 400 515 400 515 440 556 c 0,15,16
 481 599 481 599 481 657 c 128,-1,17
 481 715 481 715 440 758 c 0,18,19
 400 799 400 799 343 799 c 128,-1,20
 286 799 286 799 246 758 c 0,21,10
 205 715 205 715 205 657 c 128,-1,11
145 657 m 128,-1,23
 145 741 145 741 203 800 c 128,-1,24
 261 859 261 859 343 859 c 128,-1,25
 425 859 425 859 483 800 c 128,-1,26
 541 741 541 741 541 657 c 128,-1,27
 541 573 541 573 483 514 c 128,-1,28
 425 455 425 455 343 455 c 128,-1,29
 261 455 261 455 203 514 c 128,-1,22
 145 573 145 573 145 657 c 128,-1,23
EndSplineSet
LCarets2: 1 0
Ligature2: "Vdenpabu subtable" denpabu uy
EndChar

StartChar: colon
Encoding: 164 58 151
Width: 326
VWidth: 230
Flags: W
HStem: 91 82<129.376 186.624> 546 82<129.376 186.624>
VStem: 117 82<103.376 160.624 558.376 615.624>
LayerCount: 2
Fore
SplineSet
117 132 m 128,-1,1
 117 149 117 149 129 161 c 128,-1,2
 141 173 141 173 158 173 c 128,-1,3
 175 173 175 173 187 161 c 128,-1,4
 199 149 199 149 199 132 c 128,-1,5
 199 115 199 115 187 103 c 128,-1,6
 175 91 175 91 158 91 c 128,-1,7
 141 91 141 91 129 103 c 128,-1,0
 117 115 117 115 117 132 c 128,-1,1
117 587 m 128,-1,9
 117 604 117 604 129 616 c 128,-1,10
 141 628 141 628 158 628 c 128,-1,11
 175 628 175 628 187 616 c 128,-1,12
 199 604 199 604 199 587 c 128,-1,13
 199 570 199 570 187 558 c 128,-1,14
 175 546 175 546 158 546 c 128,-1,15
 141 546 141 546 129 558 c 128,-1,8
 117 570 117 570 117 587 c 128,-1,9
EndSplineSet
EndChar

StartChar: question
Encoding: 165 63 152
Width: 698
VWidth: 230
Flags: W
HStem: 60 82<318.376 375.624> 697 60<222.955 471.385>
VStem: 89 60<471.746 629.945> 306 82<72.3762 129.624> 319 60<206 324.96> 549 60<503.534 628.615>
LayerCount: 2
Fore
SplineSet
306 101 m 128,-1,1
 306 118 306 118 318 130 c 128,-1,2
 330 142 330 142 347 142 c 128,-1,3
 364 142 364 142 376 130 c 128,-1,4
 388 118 388 118 388 101 c 128,-1,5
 388 84 388 84 376 72 c 128,-1,6
 364 60 364 60 347 60 c 128,-1,7
 330 60 330 60 318 72 c 128,-1,0
 306 84 306 84 306 101 c 128,-1,1
251 415 m 1,8,-1
 230 358 l 1,9,-1
 202 369 l 2,10,11
 196 370.5 196 370.5 187 375 c 0,12,13
 184 376 184 376 160 395 c 0,14,15
 145 406 145 406 127 430 c 0,16,17
 114 447 114 447 101 484 c 0,18,19
 89 518.5 89 518.5 89 559 c 0,20,21
 89 644 89 644 154 700 c 0,22,23
 220 757 220 757 349 757 c 128,-1,24
 478 757 478 757 543 699 c 0,25,26
 609 640 609 640 609 559 c 0,27,28
 609 467 609 467 544 423 c 0,29,30
 523 410 523 410 473 386 c 0,31,32
 413 357 413 357 393 311 c 0,33,34
 379 278 379 278 379 236 c 2,35,-1
 379 206 l 1,36,-1
 319 206 l 1,37,-1
 319 236 l 2,38,39
 319 293 319 293 332 332 c 0,40,41
 347 377 347 377 365 396 c 0,42,43
 386 418.5 386 418.5 410 435 c 0,44,45
 432 450 432 450 459 462 c 0,46,47
 491 476 491 476 504 484 c 0,48,49
 524 497 524 497 536 514 c 0,50,51
 549 534 549 534 549 559 c 0,52,53
 549 616 549 616 503 656 c 0,54,55
 456 697 456 697 349 697 c 0,56,57
 238 697 238 697 194 657 c 0,58,59
 149 616 149 616 149 559 c 0,60,61
 149 531 149 531 157 505 c 0,62,63
 164 481 164 481 174 467 c 0,64,65
 182 456 182 456 196 443 c 0,66,67
 209 432 209 432 213 429 c 0,68,69
 215 428 215 428 223 425 c 2,70,-1
 251 415 l 1,8,-1
EndSplineSet
EndChar

StartChar: exclam
Encoding: 166 33 153
Width: 350
VWidth: 230
Flags: W
HStem: 91 82<129.376 186.624>
VStem: 117 82<103.376 160.624> 127 60<255 700>
LayerCount: 2
Fore
SplineSet
117 132 m 128,-1,1
 117 149 117 149 129 161 c 128,-1,2
 141 173 141 173 158 173 c 128,-1,3
 175 173 175 173 187 161 c 128,-1,4
 199 149 199 149 199 132 c 128,-1,5
 199 115 199 115 187 103 c 128,-1,6
 175 91 175 91 158 91 c 128,-1,7
 141 91 141 91 129 103 c 128,-1,0
 117 115 117 115 117 132 c 128,-1,1
127 700 m 1,8,-1
 187 700 l 1,9,-1
 187 255 l 1,10,-1
 127 255 l 1,11,-1
 127 700 l 1,8,-1
EndSplineSet
EndChar

StartChar: less
Encoding: 167 60 154
Width: 807
VWidth: 230
Flags: W
LayerCount: 2
Fore
SplineSet
646 698 m 1,0,-1
 676 646 l 1,1,-1
 193 360 l 1,2,-1
 677 72 l 1,3,-1
 646 21 l 1,4,-1
 108 340 l 1,5,6
 101 350 101 350 104 365 c 0,7,8
 107 379 107 379 119 386 c 2,9,-1
 646 698 l 1,0,-1
EndSplineSet
EndChar

StartChar: greater
Encoding: 168 62 155
Width: 807
VWidth: 230
Flags: W
LayerCount: 2
Fore
SplineSet
130 698 m 1,0,-1
 100 646 l 1,1,-1
 583 360 l 1,2,-1
 99 72 l 1,3,-1
 130 21 l 1,4,-1
 668 340 l 1,5,6
 675 350 675 350 672 365 c 0,7,8
 669 379 669 379 657 386 c 2,9,-1
 130 698 l 1,0,-1
EndSplineSet
EndChar

StartChar: braceleft
Encoding: 169 123 156
Width: 535
VWidth: 230
Flags: W
HStem: -143 60<318.771 435> 329 60<79.2217 139.268> 802 60<323.549 435>
VStem: 194 60<-21.1501 246.5 475.926 736.939>
LayerCount: 2
Fore
SplineSet
105 329 m 0,0,1
 86 331 86 331 79 344 c 0,2,3
 71 359 71 359 78 373 c 128,-1,4
 85 387 85 387 105 389 c 0,5,6
 107 389 107 389 115 391 c 0,7,8
 122 393 122 393 136 407 c 0,9,10
 151 422 151 422 163 447 c 0,11,12
 175 473 175 473 184 527 c 0,13,14
 194 589 194 589 194 656 c 0,15,16
 194 698 194 698 206 732 c 0,17,18
 217 764 217 764 236 786 c 0,19,20
 255 809 255 809 277 823 c 0,21,22
 298 837 298 837 322 845 c 0,23,24
 343 852 343 852 363 857 c 0,25,26
 379 861 379 861 393 861 c 2,27,-1
 405 862 l 1,28,-1
 435 862 l 1,29,-1
 435 832 l 1,30,-1
 435 802 l 1,31,-1
 405 802 l 2,32,33
 394 802 394 802 386 801 c 0,34,35
 373 799 373 799 349 791 c 0,36,37
 322 781 322 781 304 769 c 0,38,39
 284 755 284 755 269 725 c 128,-1,40
 254 695 254 695 254 656 c 0,41,42
 254 435 254 435 171 359 c 1,43,44
 254 283 254 283 254 61 c 0,45,46
 254 -48 254 -48 356 -76 c 0,47,48
 380 -83 380 -83 405 -83 c 2,49,-1
 435 -83 l 1,50,-1
 435 -143 l 1,51,-1
 406 -143 l 1,52,-1
 394 -143 l 2,53,54
 389 -143 389 -143 364 -138 c 0,55,56
 336 -132 336 -132 322 -127 c 0,57,58
 299 -118 299 -118 278 -105 c 0,59,60
 254 -90 254 -90 236 -69 c 0,61,62
 217 -47 217 -47 206 -15 c 0,63,64
 194 20 194 20 194 61 c 0,65,66
 194 272 194 272 125 320 c 0,67,68
 111 329 111 329 105 329 c 0,0,1
EndSplineSet
EndChar

StartChar: braceright
Encoding: 170 125 157
Width: 535
VWidth: 230
Flags: W
HStem: -143 60<105 191.229> 329 60<370.732 430.778> 802 60<105 186.451>
VStem: 256 60<-21.1501 246.5 475.926 736.939>
LayerCount: 2
Fore
SplineSet
405 329 m 0,0,1
 424 331 424 331 431 344 c 0,2,3
 439 359 439 359 432 373 c 128,-1,4
 425 387 425 387 405 389 c 0,5,6
 403 389 403 389 395 391 c 0,7,8
 388 393 388 393 374 407 c 0,9,10
 359 422 359 422 347 447 c 0,11,12
 335 473 335 473 326 527 c 0,13,14
 316 589 316 589 316 656 c 0,15,16
 316 698 316 698 304 732 c 0,17,18
 293 764 293 764 274 786 c 0,19,20
 255 809 255 809 233 823 c 0,21,22
 212 837 212 837 188 845 c 0,23,24
 167 852 167 852 147 857 c 0,25,26
 131 861 131 861 117 861 c 2,27,-1
 105 862 l 1,28,-1
 75 862 l 1,29,-1
 75 832 l 1,30,-1
 75 802 l 1,31,-1
 105 802 l 2,32,33
 116 802 116 802 124 801 c 0,34,35
 137 799 137 799 161 791 c 0,36,37
 188 781 188 781 206 769 c 0,38,39
 226 755 226 755 241 725 c 128,-1,40
 256 695 256 695 256 656 c 0,41,42
 256 435 256 435 339 359 c 1,43,44
 256 283 256 283 256 61 c 0,45,46
 256 -48 256 -48 154 -76 c 0,47,48
 130 -83 130 -83 105 -83 c 2,49,-1
 75 -83 l 1,50,-1
 75 -143 l 1,51,-1
 104 -143 l 1,52,-1
 116 -143 l 2,53,54
 121 -143 121 -143 146 -138 c 0,55,56
 174 -132 174 -132 188 -127 c 0,57,58
 211 -118 211 -118 232 -105 c 0,59,60
 256 -90 256 -90 274 -69 c 0,61,62
 293 -47 293 -47 304 -15 c 0,63,64
 316 20 316 20 316 61 c 0,65,66
 316 272 316 272 385 320 c 0,67,68
 399 329 399 329 405 329 c 0,0,1
EndSplineSet
EndChar

StartChar: semicolon
Encoding: 171 59 158
Width: 378
VWidth: 230
Flags: W
HStem: 552 82<166.376 223.624>
VStem: 154 82<564.376 621.624>
LayerCount: 2
Fore
SplineSet
207 237 m 24,0,1
 208 236 208 236 214 228 c 0,2,3
 217 223 217 223 224 202 c 0,4,5
 230 182 230 182 230 164 c 128,-1,6
 230 146 230 146 216 116 c 128,-1,7
 202 86 202 86 175 62 c 1024,8,-1
165 241 m 1,9,-1
 211 279 l 1,10,-1
 230 256 l 2,11,12
 256 225 256 225 259 178 c 0,13,14
 265 104 265 104 195 40 c 2,15,-1
 173 20 l 1,16,-1
 133 64 l 1,17,-1
 155 84 l 2,18,19
 177.5 105 177.5 105 188 126 c 128,-1,20
 198.5 147 198.5 147 200 162 c 0,21,22
 201 176 201 176 197 191 c 0,23,24
 192 206 192 206 190 210 c 0,25,26
 189 212 189 212 187 214 c 128,-1,27
 185 216 185 216 184 218 c 2,28,-1
 165 241 l 1,9,-1
154 593 m 128,-1,30
 154 610 154 610 166 622 c 128,-1,31
 178 634 178 634 195 634 c 128,-1,32
 212 634 212 634 224 622 c 128,-1,33
 236 610 236 610 236 593 c 128,-1,34
 236 576 236 576 224 564 c 128,-1,35
 212 552 212 552 195 552 c 128,-1,36
 178 552 178 552 166 564 c 128,-1,29
 154 576 154 576 154 593 c 128,-1,30
EndSplineSet
EndChar

StartChar: quotedbl
Encoding: 172 34 159
Width: 407
VWidth: 230
Flags: W
HStem: 627 235<102 162 256 316>
VStem: 102 60<627 862> 256 60<627 862>
LayerCount: 2
Fore
SplineSet
102 862 m 1,0,-1
 162 862 l 1,1,-1
 162 627 l 1,2,-1
 102 627 l 1,3,-1
 102 862 l 1,0,-1
256 862 m 1,4,-1
 316 862 l 1,5,-1
 316 627 l 1,6,-1
 256 627 l 1,7,-1
 256 862 l 1,4,-1
EndSplineSet
EndChar

StartChar: denpabu.ccv.2
Encoding: 159 -1 161
Width: 0
VWidth: 230
Flags: W
HStem: 255 60<581.93 642.07> 801 60<581.93 642.07>
VStem: 462 60<408.538 707.462> 702 60<408.538 707.462>
AnchorPoint: "Above" 0 0 mark 0
LayerCount: 2
Back
Refer: 143 -1 N 1 0 0 1 388 0 2
Fore
SplineSet
462 558 m 128,-1,1
 462 678 462 678 502 770 c 0,2,3
 541 861 541 861 612 861 c 128,-1,4
 683 861 683 861 722 770 c 0,5,6
 762 678 762 678 762 558 c 128,-1,7
 762 438 762 438 722 346 c 0,8,9
 683 255 683 255 612 255 c 128,-1,10
 541 255 541 255 502 346 c 0,11,0
 462 438 462 438 462 558 c 128,-1,1
522 558 m 128,-1,13
 522 508 522 508 532 455 c 0,14,15
 541 406 541 406 556 378 c 0,16,17
 574 345 574 345 585 332 c 0,18,19
 600 315 600 315 612 315 c 128,-1,20
 624 315 624 315 639 332 c 0,21,22
 650 345 650 345 668 378 c 0,23,24
 683 406 683 406 692 455 c 0,25,26
 702 508 702 508 702 558 c 128,-1,27
 702 608 702 608 692 661 c 0,28,29
 683 710 683 710 668 738 c 0,30,31
 650 771 650 771 639 784 c 0,32,33
 624 801 624 801 612 801 c 128,-1,34
 600 801 600 801 585 784 c 0,35,36
 574 771 574 771 556 738 c 0,37,38
 541 710 541 710 532 661 c 0,39,12
 522 608 522 608 522 558 c 128,-1,13
EndSplineSet
EndChar

StartChar: NameMe.176
Encoding: 256 -1 162
Width: 0
VWidth: 230
Flags: W
HStem: -7 66<266 467> 260 66<266 467>
VStem: 200 66<59 260> 467 66<59 260>
AnchorPoint: "Above" 0 0 mark 0
LayerCount: 2
Fore
SplineSet
266 260 m 1,0,-1
 266 59 l 1,1,-1
 467 59 l 1,2,-1
 467 260 l 1,3,-1
 266 260 l 1,0,-1
233 326 m 2,4,-1
 500 326 l 2,5,6
 514 326 514 326 523.5 315.5 c 128,-1,7
 533 305 533 305 533 293 c 2,8,-1
 533 26 l 2,9,10
 533 12 533 12 522.5 2.5 c 128,-1,11
 512 -7 512 -7 500 -7 c 2,12,-1
 233 -7 l 2,13,14
 219 -7 219 -7 209.5 3.5 c 128,-1,15
 200 14 200 14 200 26 c 2,16,-1
 200 293 l 2,17,18
 200 307 200 307 210.5 316.5 c 128,-1,19
 221 326 221 326 233 326 c 2,4,-1
EndSplineSet
EndChar

StartChar: NameMe.186
Encoding: 257 12435 163
Width: 0
VWidth: 230
Flags: W
HStem: -142.99 60<84.9161 785.01>
VStem: 24.0001 59.9997<-82.9902 239.916> 375.01 60<-265.99 -82.9902>
AnchorPoint: "Above" 0 0 mark 0
LayerCount: 2
Back
SplineSet
405.009765625 -112.990234375 m 5,0,-1
 405.009765625 10.009765625 l 1025
54 210.009765625 m 29,2,-1
 55.009765625 -112.990234375 l 1,3,-1
 755.009765625 -112.990234375 l 1025
EndSplineSet
Fore
SplineSet
405.009765625 -265.990234375 m 1,0,-1
 375.009765625 -265.990234375 l 1,1,-1
 375.009765625 -235.990234375 l 1,2,-1
 375.009765625 -112.990234375 l 1,3,-1
 375.009765625 -82.990234375 l 1,4,-1
 405.009765625 -82.990234375 l 1,5,-1
 435.009765625 -82.990234375 l 1,6,-1
 435.009765625 -112.990234375 l 1,7,-1
 435.009765625 -235.990234375 l 1,8,-1
 435.009765625 -265.990234375 l 1,9,-1
 405.009765625 -265.990234375 l 1,0,-1
53.9062141773 240.009619028 m 1,10,-1
 83.9060675806 240.103404851 l 1,11,-1
 83.9998534033 210.103551448 l 1,12,-1
 84.9161259415 -82.990234375 l 1,13,-1
 755.009765625 -82.990234375 l 1,14,-1
 785.009765625 -82.990234375 l 1,15,-1
 785.009765625 -112.990234375 l 1,16,-1
 785.009765625 -142.990234375 l 1,17,-1
 755.009765625 -142.990234375 l 1,18,-1
 55.009765625 -142.990234375 l 2,19,20
 43.4787030304 -142.990234375 43.4787030304 -142.990234375 34.26375 -134.256280165 c 128,-1,21
 25.0487969696 -125.522325955 25.0487969696 -125.522325955 25.0099122217 -113.084020198 c 2,22,-1
 24.0001465967 209.915979802 l 1,23,-1
 23.906360774 239.915833206 l 1,24,-1
 53.9062141773 240.009619028 l 1,10,-1
EndSplineSet
EndChar

